<svg xmlns="http://www.w3.org/2000/svg" width="307" height="50" version="1.0" viewBox="0 0 230.25 37.5">
  <defs>
    <clipPath id="a">
      <path d="M1.145 6H20v13H1.145Zm0 0" />
    </clipPath>
  </defs>
  <path fill="#fff"
    d="M53.31 28.37c.32 0 .547 0 .68-.043.137 0 .363-.094.59-.274.09-.047.136-.18.136-.363.047-.137-.136-.226-.273-.27-.316 0-.496 0-.813.133-.046.047-.136.047-.273.047s-.227-.047-.363-.09c-.5-.363-.907-.773-1.133-1.27-.77-1.269-.996-3.171-.996-4.624.043-2.309.226-4.485.722-6.66.227-1.043.5-2.086.774-3.13.226-1.042.496-2.038.723-3.081.226-1.043.5-2.04.726-3.082.227-.996.5-1.996.727-3.035.043-.227.09-.41.09-.637.042-.317-.09-.543-.364-.727-.047-.043-.136-.043-.18-.09-.093-.043-.183-.043-.226-.09-.047-.046-.137-.046-.227-.046-.546 0-1.406 2.086-1.722 2.539-.41.863-.817 1.633-1.227 2.402-1.133 2.133-2.308 4.262-3.445 6.348-1.133 2.129-2.309 4.258-3.441 6.39-.954 1.766-1.95 3.399-3.266 4.848l-.633.59c-.137.137-.316-.047-.363-.18-.047-.32-.09-.59-.09-.906v-.863c.137-4.805 1.855-10.88 3.625-15.32.18-.497.363-.95.543-1.45.184-.453.363-.953.5-1.45.137-.362.27-.726.406-1.089.137-.363.274-.723.453-1.086.047-.094.137-.273.184-.5.043-.18 0-.316-.184-.453-.136-.137-.363-.18-.59-.18-.226 0-.359.043-.496.18a4.358 4.358 0 0 0-1.09 1.316l-.68 1.45c-2.355 5.12-4.35 11.375-4.71 17.043-.047.406-.047.77-.047 1.175 0 .41.047.774.09 1.18.226 1.043.41 1.996 1.496 2.356.047.046.137.046.227.046.046 0 .136 0 .18.047h.183c.047.043.136.043.18.043 1.042 0 1.68-.86 2.222-1.586.953-1.222 1.723-2.492 2.445-3.898.684-1.27 1.364-2.54 2.043-3.852.68-1.27 1.36-2.539 2.04-3.851.68-1.27 1.312-2.54 1.992-3.762.047-.094.136-.184.183-.273.043-.09.09-.18.18-.227.047-.047.047-.047.09-.047.047.094.094.184.047.227a285.202 285.202 0 0 1-.996 4.035c-.774 2.902-1.09 5.758-1.227 8.883 0 2.718.363 5.531 2.902 6.8.5.27 1.086.407 1.676.407Zm0 0" />
  <path fill="#fff"
    d="M60.017 26.057c.32 0 .637-.09.91-.226.317-.227.633-.496.86-.813l.816-1.226c.59-1.043 1.223-2.082 1.812-3.125.59-1 1.18-2.043 1.77-3.082.227-.41.453-.817.633-1.227.18-.406.363-.86.59-1.27.136-.226 0-.406-.317-.453-.047-.043-.136-.043-.226-.043-.184 0-.32.09-.41.227l-.454.86a69.19 69.19 0 0 1-4.714 7.843c-.18.227-.36.453-.586.633 0 .047-.047.047-.184.047 0-.047 0-.047-.047-.094-.133-.36 0-.723.047-1.086a76.95 76.95 0 0 1 1.27-5.394l1.086-4.215c.093-.453.136-.907.136-1.36-.043-.406-.226-.68-.496-.816l-.273-.137a.934.934 0 0 0-.407-.09c-.59 0-1.496 1.36-1.77 1.903l-2.175 4.035c-.59 1.043-1.27 2.039-1.95 3.082a.467.467 0 0 1-.226.137c-.136.047-.18-.047-.18-.317 0-.226 0-.41.044-.543.136-.59.226-1.226.363-1.86.09-.636.226-1.269.363-1.905.047-.317.137-.633.227-.95.047-.273.136-.59.18-.906.046-.273-.09-.453-.317-.59l-.27-.136h-.093c-.317 0-.496.226-.633.543l-.41 1.09c-.68 2.038-1.04 4.124-1.223 6.253-.09.68.184 1.133.77 1.407l.183.043c.227.093.453.136.59.136.363 0 .633-.136.86-.453.226-.226.41-.453.542-.77a143.79 143.79 0 0 0 2.133-3.718l1.86-3.352a.67.67 0 0 1 .18-.273h.179s0 .047.047.09l-.274 1c-.59 1.855-1.175 3.668-1.675 5.617-.407 1.59-.59 2.812-.59 4.398.047.317.183.5.41.633.316.274.633.41 1.039.453ZM81.048 28.733c.41-.047.773-.227 1-.543.316-.5.406-1.09.543-1.633.09-.5.18-1.043.27-1.586.093-.5.183-1.043.32-1.543l.949-4.257c.68-3.22 1.406-6.301 2.36-9.43a53.43 53.43 0 0 0 1.269-5.89c.043-.41.27-.637.68-.727.316-.043.679-.137.995-.227l.954-.27 4.71-1.226c.907-.316 1.813-.363 2.766-.406.184 0 .317 0 .41.043.133.047.18.136.18.226l-.137.5v.137c-.043.043-.043.137 0 .18.137.32.41.5.817.5.18 0 .316-.047.453-.18.047-.094.136-.184.226-.32.047-.09.137-.18.18-.317.227-.363.137-.726-.18-1.043-.543-.496-1.132-.77-1.812-.86-.227-.046-.453-.046-.68-.046h-.68c-1.132 0-2.175.274-3.265.59-.406.137-.86.226-1.27.363-.453.137-.906.27-1.36.406l-2.265.637h-.09c-.046.043-.09.043-.136.043a.58.58 0 0 1-.453-.18l-.27-.226a1.208 1.208 0 0 0-.5-.137c-.226 0-.453.18-.59.543-.047 0-.047.047-.047.09-.09.273-.316.457-.68.59l-2.581.68c-.86.183-1.766.32-2.493.32h-.906c-.226 0-.41-.047-.637-.094-.77-.09-1.132-.543-1.132-1.312 0-.317.047-.543.09-.864.046-.316.093-.496.093-.812a.412.412 0 0 0-.183-.363l-.317-.137c-.047-.047-.136-.047-.273-.047-.68 0-.906 1.09-1.04 1.586-.136.683.044 1.27.544 1.723.816.906 3.082 1.453 4.215 1.453 1.222 0 2.445-.227 3.582-.547.132-.043.226-.09.359-.09.137 0 .227 0 .363-.043.137 0 .227.09.227.227-.043.042-.043.132-.043.18 0 .089 0 .179-.047.226a85.887 85.887 0 0 1-.996 4.035 88.981 88.981 0 0 0-1.77 6.57l-1.359 5.938c-.406 1.77-.68 3.445-.996 5.215a7.15 7.15 0 0 0-.09.996c0 .316.09.68.227.996.132.226.27.363.496.363Zm0 0" />
  <path fill="#fff"
    d="M92.242 24.018c.953 0 1.59-.043 2.133-.906a.81.81 0 0 0 .226-.363c.543-1.04.77-2.22.727-3.489a6.144 6.144 0 0 0-.953-2.808c-.227-.32-.41-.59-.59-.91-.09-.18-.047-.317.137-.407.59-.046 1.175-.09 1.949-.09h1.676c.59.044 1.316.044 2.128.044.227-.043.274-.18.137-.407-.137-.18-.406-.316-.722-.406a56.353 56.353 0 0 0-2.813-.094c-.95 0-1.812.047-2.54.094-.769.09-1.175.227-1.222.36-.226.046-.316.32-.18.5.227.406.497.816.723 1.18.953 1.495 1.09 3.034.59 4.71-.043.227-.137.41-.226.59a3.285 3.285 0 0 0-.317.547c-.226.36-.453.633-.726.77-.137.09-.227.136-.364.136a.557.557 0 0 1-.406-.184c-.273-.226-.5-.496-.727-.906-.406-.726-.542-1.539-.496-2.445.137-2.856.996-5.711 3.172-7.66.137-.137.09-.32-.047-.364 0-.046-.043-.046-.09-.046a1.89 1.89 0 0 0-.722-.137c-.41 0-.774.137-1.09.41-1.996 1.539-3.129 4.984-3.262 7.477v.453c0 .047 0 .136.043.183v.227c.227 1.86 1.223 3.082 2.903 3.715.136.047.316.09.496.136.136.047.32.047.453.09Zm0 0" />
  <path fill="#fff"
    d="M100.447 34.264c1.586 0 2.492-1.453 2.809-2.855.32-1.09.41-2.176.273-3.266-.09-1.312-.59-2.402-1.539-3.172-.91-.816-.726-.636-.5-1.812v-.09c.317-1.043.227-.953 1.18-1.496 3.035-1.586 5.21-3.809 7.387-6.39.18-.184.226-.321.18-.454-.044-.137-.18-.273-.497-.32-.41 0-.637.047-.953.363-1.812 1.996-3.309 3.625-5.621 5.215a.356.356 0 0 1-.18.09c-.047.043-.136.09-.183.137-.09 0-.133 0-.18-.047-.047-.09-.09-.137-.047-.18.047-.137.137-.32.184-.453.043-.137.09-.32.136-.453 1.223-3.13 2.762-6.075 4.258-9.024.137-.133.227-.36.32-.586.044-.136 0-.273-.136-.363a.861.861 0 0 0-.59-.227c-.316 0-.543.137-.68.364-.136.226-.316.453-.453.722l-.816 1.36c-.137.226-.227.32-.363.32-.047 0-.09-.047-.227-.094-.137-.043-.227-.132-.316-.18-.09-.046-.184-.046-.274-.09-.406-.183-.816-.226-1.176-.226-.773 0-1.496.27-2.086.86-.136.136-.226.226-.316.363-.094.137-.184.226-.32.363a10.793 10.793 0 0 0-1.766 3.625c-.137.274-.184.59-.184.953-.043.633.184 1.086.727 1.403.453.32.863.457 1.223.457.226 0 .453-.094.773-.227a.323.323 0 0 1 .18-.094h.226c.09 0 .09.094.047.274-.136.406-.32.816-.453 1.18-.137.406-.32.812-.453 1.222a.814.814 0 0 1-.41.453c-.227.09-.453.18-.68.274a4.816 4.816 0 0 1-.68.316c-.226.09-.406.227-.632.363-.137.133-.184.227-.047.36.136.137.226.183.273.226l.996.547c.227.133.364.317.317.633a25.68 25.68 0 0 0-.543 4.625v.77c-.137.906 0 1.812.136 2.765 0 .68.454 1.403 1.133 1.45.137.046.317.046.543.046Zm.406-1.226c-.132 0-.226-.09-.27-.317 0-.136-.046-.316-.089-.632-.094-.5-.137-1-.094-1.454.047-.68.094-1.359.137-2.039.047-.722.09-1.402.227-2.086l.136-.496c0-.09.047-.136.137-.136.137 0 .18 0 .18.046a.884.884 0 0 1 .183.227c.043.09.09.18.133.227.32.586.5 1.222.547 1.949.18 1.312-.047 2.582-.547 3.804-.043.137-.133.227-.18.364-.046.09-.136.183-.18.316a.344.344 0 0 1-.32.227Zm-.906-15.817-.133-.136c0-.09 0-.137.043-.18.41-1.453 1.543-4.262 2.993-4.852.046-.047.09-.047.18-.047.136 0 .226.047.32.137.043.09.132.184.226.274.09.09.18.18.227.316v.273c-1.043 1.403-1.996 2.762-3.309 3.899l-.32.27c-.043.046-.09.046-.227.046Zm0 0" />
  <path fill="#fff"
    d="M114.586 23.296c.5 0 .91-.227 1.137-.637.18-.227.317-.406.36-.543 1.132-2.13 2.27-4.078 3.492-6.211l.363-.77c.133-.316 0-.5-.32-.543-.317 0-.496.09-.633.317-1.133 2.039-2.266 4.035-3.488 5.984l-.32.406c-.044 0-.044 0-.09.047-.137-.047-.18-.093-.18-.136v-.637l.27-2.219c.136-.953.226-1.902.363-2.765v-.5c0-.133 0-.317-.043-.454 0-.18-.094-.316-.32-.406-.227-.137-.407-.18-.544-.18-.273 0-.5.133-.726.454-.133.226-.317.453-.453.722l-1.086 1.95c-.364.726-1.586 3.171-2.266 3.581h-.09l-.047-.046c-.046-.227-.09-.364-.046-.454.046-.406.136-.77.183-1.175.043-.41.137-.817.18-1.227.09-.496.183-1.043.316-1.586.137-.5.227-1.043.32-1.539.043-.137.09-.32.09-.5 0-.137 0-.316.043-.453 0-.227-.132-.406-.36-.5l-.272-.137c-.317 0-.59-.043-.77.274l-.41.863c-.77 2.129-1.176 4.121-1.496 6.344-.043.59-.043 1.043.093 1.449.133.363.36.59.586.727.274.18.59.273.907.273.363 0 .636-.137.863-.363l.5-.68 1.36-2.176c.136-.226.269-.5.452-.726.043-.09.137-.18.18-.317.047-.09.09-.136.227-.09.047.043.09.09.09.18 0 .137 0 .227-.043.317l-.047.32c-.043.316-.09.586-.09.86v.952c0 .317.09.633.226 1.043.317.586.86.907 1.54.907Zm0 0" />
  <path fill="#fff"
    d="M119.211 24.835c1.133 0 1.95-.817 2.63-1.586.726-.907 1.406-1.86 2.085-2.809.496-.773 1.043-1.586 1.54-2.36.5-.769.995-1.538 1.495-2.312.047-.133.18-.316.317-.543.137-.226.226-.453.226-.59a.34.34 0 0 0-.09-.18c-.09-.136-.226-.179-.406-.179a.515.515 0 0 0-.363.133.337.337 0 0 0-.09.183c-.047.043-.094.137-.136.18l-2.72 4.082c-.546.906-3.308 4.8-4.308 4.8-.18 0-.316-.179-.363-.495v-.317c-.043-1.09.047-2.222.23-3.308l.27-1.137c.09-.316.273-.496.543-.543.226-.043.41-.137.59-.18.183-.046.363-.09.543-.183 1.226-.723 2.496-1.813 2.902-3.262.316-.953.047-1.586-.86-1.996-.41-.227-.726-.227-1.226-.227-.363 0-.723.137-1.133.364a7.833 7.833 0 0 0-.86.77c-.542.546-1 1.226-1.358 1.906-1.227 2.492-1.77 5.074-1.586 7.75l.132.726c.227.906 1.133 1.313 1.996 1.313Zm.997-7.93c-.137-.047-.137-.137-.09-.274.273-.906 1.633-3.671 2.629-3.671.18 0 .316.09.363.316v.094c0 1.265-1.543 3.082-2.719 3.535a.147.147 0 0 1-.183 0ZM143.594 26.194c.59 0 1.042-.043 1.542-.543l.454-.453c.136-.137.273-.317.406-.5.59-.817 1.09-1.676 1.496-2.582.5-1.09.953-2.176 1.406-3.262.453-1.09.906-2.176 1.406-3.265.137-.227.18-.407.227-.633 0-.047 0-.137.043-.184 0-.043 0-.09-.043-.137 0-.043-.047-.132-.137-.226-.136-.043-.226-.09-.273-.09-.227 0-.36.09-.496.273l-.274.59c-1.043 2.492-2.039 4.848-3.172 7.207-.316.68-.68 1.223-1.18 1.903-.042.136-.136.226-.226.316-.137.09-.226.184-.316.316-.09.094-.18.137-.274.137-.363 0-.453-.86-.453-1.18-.043-.77-.09-1.585-.09-2.355s.047-1.54.137-2.312c.274-1.95.817-6.028 1.902-7.114 2.36-2.496 5.668-6.484 6.528-9.883.226-1.132.047-1.812-1.406-2.312-.18-.043-.317-.09-.454-.09-1.539 0-3.171 2.902-4.257 5.348-1.043 2.265-2.45 6.258-2.856 7.707-.047.136-.094.226-.094.316-.043.09-.09.184-.132.274-.047.136-.137.18-.227.18-.047 0-.094 0-.137-.044-.136-.047-.226-.136-.363-.226-.137-.047-.227-.137-.363-.184-.453-.137-.86-.226-1.223-.226-2.586 0-4.078 3.355-4.351 5.757-.047.454 0 .907.136 1.36.18.722.633 1.176 1.36 1.36.27.089.543.136.816.136.77 0 1.402-.5 1.902-1.09.137-.137.274-.316.407-.453.093-.137.23-.316.363-.453a.69.69 0 0 0 .183-.27c.043-.136.137-.136.227-.093.137.046.227.136.18.273-.043.137-.043.227-.043.363v.68c0 .226 0 .453-.047.68 0 1.406.047 2.312.226 3.218l.274.907c.27.543.68.816 1.266.859Zm-4.801-5.938c-.094 0-.137 0-.184-.042-.137-.094-.18-.274-.18-.59.137-1.586 1.223-5.895 2.993-5.895a.69.69 0 0 1 .27.184c.089.043.136.09.136.136.09.36.316.586.633.68.183.043.226.18.183.317-.047.043-.047.09-.047.136-.859 1.766-1.812 3.352-3.261 4.668l-.137.137c-.137.133-.273.27-.406.27Zm7.25-10.062c-.047-.043-.09-.09-.09-.137.363-2.039 2.492-6.843 3.941-8.566.227-.317.5-.586.817-.813.047-.047.136-.047.226-.047.184 0 .317.09.364.317 0 .09 0 .183.046.316-.136.91-.363 1.77-.863 2.63-1.043 2.175-2.445 4.171-4.035 5.984a1.02 1.02 0 0 1-.316.316Zm0 0" />
  <path fill="#fff"
    d="M149.714 24.835c1.133 0 1.95-.817 2.63-1.586.726-.907 1.405-1.86 2.085-2.809.496-.773 1.043-1.586 1.54-2.36.5-.769.995-1.538 1.495-2.312.047-.133.18-.316.317-.543.136-.226.226-.453.226-.59a.34.34 0 0 0-.09-.18c-.09-.136-.226-.179-.406-.179a.515.515 0 0 0-.363.133.337.337 0 0 0-.09.183c-.047.043-.094.137-.137.18l-2.719 4.082c-.546.906-3.308 4.8-4.308 4.8-.18 0-.317-.179-.363-.495v-.317c-.043-1.09.046-2.222.23-3.308l.27-1.137c.09-.316.273-.496.543-.543.226-.043.41-.137.59-.18.183-.046.363-.09.542-.183 1.227-.723 2.496-1.813 2.903-3.262.316-.953.047-1.586-.86-1.996-.41-.227-.726-.227-1.226-.227-.363 0-.723.137-1.133.364a7.833 7.833 0 0 0-.86.77c-.542.546-1 1.226-1.359 1.906-1.226 2.492-1.77 5.074-1.586 7.75l.133.726c.227.906 1.133 1.313 1.996 1.313Zm.996-7.93c-.136-.047-.136-.137-.09-.274.274-.906 1.633-3.671 2.63-3.671.179 0 .316.09.363.316v.094c0 1.265-1.543 3.082-2.72 3.535a.147.147 0 0 1-.183 0ZM181.983 28.28c1.316 0 2.402-1.86 2.95-2.992.132-.407.316-.77.495-1.133.184-.363.364-.727.5-1.086l.09-.227c.047-.183-.137-.32-.316-.32-.227 0-.364.047-.41.137-.043.09-.133.183-.18.273-.09.137-.18.227-.227.364a9.955 9.955 0 0 0-.406.77c-.137.269-.273.542-.41.815-.363.77-.906 1.403-1.496 2.083-.137.183-.363.32-.59.457-.043.043-.133.043-.18.043-.226 0-.363-.09-.406-.27-.32-.59-.363-1.09-.41-1.77 0-4.578 1.09-9.109 2.492-13.46.59-1.86 1.133-3.672 1.68-5.532.36-1.27.722-2.539.906-3.941 0-.137 0-.317.043-.5v-.453c-.043-.543-.59-1.496-1.27-1.496-.18 0-.359.09-.496.226-1.043.863-1.68 2.133-2.359 3.266-1.266 2.129-2.219 4.394-3.172 6.617a119.828 119.828 0 0 0-1.539 3.625c-.5 1.043-.906 1.95-1.406 2.902l-.317.407-.047.046h-.042c-.047 0-.047 0-.094-.046v-.18c-.043-.047-.043-.094 0-.137.226-1.09.453-2.176.636-3.265l.68-3.672c.09-.496.043-.95-.09-1.36-.183-.496-.5-.77-1-.906-.043-.043-.18-.043-.316-.043-.316 0-.543.09-.723.317a3.077 3.077 0 0 0-.363.453c-.137.18-.227.363-.363.5-1.813 2.898-3.492 7.25-4.352 10.515l-.137.36c-.043.047-.09.047-.18.047l-.046-.047a1.69 1.69 0 0 1 .047-.813c.043-.273.09-.547.136-.773.18-1.586.407-3.035.813-4.532.727-3.035 1.36-5.984 1.95-9.066l.136-.496c.047-.5-.406-.906-.906-.863-.18 0-.317.09-.364.273-.363.68-.543 1.223-.722 1.902-.32 1.133-.59 2.266-.864 3.356a87.893 87.893 0 0 1-.859 3.351c-.906 3.63-1.633 8.208-1.633 12.012 0 .317.047.5.09.637.316.906.77.95 1.543.95.133 0 .27-.09.316-.227.137-.27.227-.543.274-.813.27-1 .543-1.996.86-3.039.273-.996.542-1.992.816-3.035.59-2.176 2.629-7.707 4.168-9.246h.093c.043 0 .043.043.043.09a.604.604 0 0 1 0 .406 5.124 5.124 0 0 1-.226.906c-.09.32-.18.637-.227.953a86.988 86.988 0 0 0-1.043 4.668 7.504 7.504 0 0 0-.136 2.45c.093.68.5 1.132 1.18 1.359h.136c.047.043.047.043.09.043.316 0 .543-.133.726-.406l.364-.633c.859-1.77 1.629-3.403 2.355-5.168a155.41 155.41 0 0 1 2.992-6.801c.86-1.766 1.676-3.488 2.899-4.984.047-.047.136-.137.32-.274h.09c.043.047.043.047.043.09.047.41-.09.773-.227 1.137-.496 1.586-.949 3.082-1.492 4.574-1.543 4.262-3.719 11.289-3.719 15.82v1.18c0 .86.227 1.586.59 2.355.5 1.043 1.313 1.27 2.219 1.27Zm0 0" />
  <path fill="#fff"
    d="M192.5 24.202c.453 0 .86-.184 1.27-.547a9.99 9.99 0 0 0 .995-.996c.454-.59.907-1.27 1.407-1.95l1.902-2.992c.227-.316.41-.68.637-1.039.18-.363.36-.726.586-1.09.136-.226.183-.453.226-.59v-.179c-.043-.227-.226-.316-.543-.316-.136 0-.226.043-.27.132-.183.184-.32.41-.41.637-.953 1.813-3.398 5.664-4.847 7.117a2.632 2.632 0 0 1-.41.317c-.137.136-.27.226-.453.316h-.043c0 .047 0 .047-.047.047-.137 0-.227-.094-.317-.227-.136-.5 0-1 .043-1.496.32-1.496.59-2.902 1.133-4.308.363-.86.727-1.723 1.043-2.582.227-.317.953-2.356.953-2.582.047-.227-.047-.364-.226-.453a.584.584 0 0 0-.453-.184c-.227 0-.41.09-.543.316-.184.32-.364.547-.547.774l-1.36 1.949c-.136.133-.226.227-.316.27h-.18l-.226-.497c-.547-.863-1.317-1.27-2.27-1.27a2.81 2.81 0 0 0-1.719.59c-.363.317-.68.634-1 1.134-.18.316-.363.586-.543.859-.18.316-.363.633-.543.953a7.25 7.25 0 0 0-.816 3.399c.137 1.085.953 1.675 1.992 1.812h.274c.316 0 .59-.09.77-.227a18.022 18.022 0 0 0 2.269-2.265c.133-.137.226-.227.36-.363h.093c.09.09.133.136.133.136v.18c-.043.094-.043.184-.043.227-.047.363-.137.726-.184 1.09-.09.363-.133.722-.18 1.132 0 1.406.817 2.766 2.403 2.766Zm-5.621-4.215c-.137-.047-.18-.227-.18-.453.227-1.633 1.902-5.895 3.352-5.895.183 0 .32.09.41.274.136.18.18.316.226.406.043.316.227.543.59.68.133.047.18.183.133.363 0 0-.043.047-.09.09-1.043 1.406-2.039 2.629-3.309 3.855a2.61 2.61 0 0 1-.406.317c-.136.09-.316.18-.453.316-.047.047-.137.047-.273.047Zm0 0" />
  <path fill="#fff"
    d="M197.438 35.487c1.633 0 2.496-1.18 3.265-2.492.68-1.317 1.133-2.676 1.497-4.082.226-.86.453-1.676.68-2.492.179-.817.363-1.63.59-2.446.179-.726.452-1.36.948-1.906.68-.77 1.317-1.496 1.95-2.266.636-.77 1.269-1.496 1.906-2.265l1.765-2.176c.137-.18.184-.316.227-.453.047-.047.047-.137-.043-.18a.861.861 0 0 0-.59-.226c-.226 0-.363.043-.5.18-.316.316-.59.632-.816.952-.496.68-1.043 1.313-1.54 1.903-.546.633-1.09 1.27-1.585 1.902-.094.094-.184.184-.32.227-.044.047-.09.047-.133 0l-.047-.043c.047-.184.047-.364.09-.543 0-.184.046-.364.09-.5.226-.817.5-1.633.726-2.45.227-.77.453-1.585.68-2.355.047-.137.09-.273.136-.406 0-.094 0-.184.043-.32.047-.227-.043-.407-.27-.544a1.316 1.316 0 0 0-.452-.09c-.274 0-.5.09-.637.227l-1.27 1.313c-.043.047-.09.047-.18.047-.046 0-.09 0-.136-.047-.633-.633-1.402-.95-2.266-.95-.726 0-1.406.227-1.992.723-.047.047-.136.094-.226.184-1.317 1.222-2.27 2.855-2.27 4.668.137.86 1.043 1.312 1.813 1.312.41 0 .726-.09 1.043-.316.41-.227.773-.496 1.09-.817.406-.363.816-.722 1.18-1.132.359-.364.722-.723 1.132-1.086.227-.184.406-.317.496-.41h.09a.345.345 0 0 1 .094.183l-.274.906c-.68 1.95-1.222 3.942-1.722 5.938-.137.496-.364.86-.59 1.133-2.22 2.539-4.578 5.62-5.121 9.066-.137.496 0 .86.136 1.36.227.542.77.769 1.313.769Zm.137-1.09c-.137 0-.227-.09-.227-.316-.043-.137-.043-.317-.043-.543 0-.59.133-1.18.316-1.77a19.087 19.087 0 0 1 2.72-4.758c.046-.046.089-.046.226-.046.047.046.047.093.047.183v.227c-.5 1.765-.907 3.488-1.633 5.12a7.323 7.323 0 0 1-.906 1.587c-.047.047-.09.047-.09.09l-.137.136c-.137.047-.227.09-.273.09Zm1.722-16.27c-.137.044-.27-.09-.27-.136 0-.137 0-.274.044-.317.41-1.449 1.316-2.992 2.629-3.761.046-.047.136-.047.273-.047.227 0 .363.09.453.273.043.137.137.227.18.317.047.136.09.226.137.363v.09c0 .09 0 .18-.047.226l-.133.137c-.817.906-1.77 1.766-2.813 2.582Zm0 0" />
  <path fill="#fff"
    d="M209.18 23.385c.59 0 1.132-.41 1.539-.77a20.107 20.107 0 0 0 2.312-2.901c.406-.68.816-1.36 1.223-2.04.41-.636.816-1.27 1.226-1.949l.36-.68c.136-.183-.09-.453-.317-.5-.043-.042-.136-.042-.27-.042-.183 0-.363.09-.546.316-.137.18-.227.363-.317.496-.09.184-.18.363-.316.5l-1.676 2.856-1.043 1.496c-.363.5-.816.906-1.316 1.406-.043.043-.09.043-.137.09-.043.047-.09.047-.133.09-.047.046-.093.046-.183.046-.137-.046-.18-.09-.18-.226.043-.41.09-.774.137-1.133.043-.363.09-.726.133-1.09.226-1.222.5-2.312.816-3.535l.273-1.133c.043-.273 0-.453-.226-.543-.227-.136-.363-.183-.363-.183h-.137c-.363 0-.543.273-.68.59-1.133 2.175-1.676 4.44-1.676 6.753v.543c0 .184.043.364.09.5.137.68.727 1.043 1.406 1.043Zm2.039-11.875h.316c.047 0 .137-.046.273-.09.317-.226.454-.816.227-1.136a2.724 2.724 0 0 1-.41-.543.785.785 0 0 0-.633-.317c-.227 0-.41.09-.5.274-.137.27-.18.586-.18.95 0 .32.137.589.453.726.09.047.18.09.27.09.047 0 .137 0 .184.046Zm0 0" />
  <path fill="#fff"
    d="M220.827 24.202c.453 0 .86-.184 1.27-.547a9.99 9.99 0 0 0 .996-.996c.453-.59.906-1.27 1.406-1.95l1.902-2.992c.227-.316.41-.68.637-1.039.18-.363.36-.726.586-1.09.137-.226.183-.453.226-.59v-.179c-.043-.227-.226-.316-.543-.316-.136 0-.226.043-.27.132-.183.184-.32.41-.41.637-.952 1.813-3.398 5.664-4.847 7.117a2.632 2.632 0 0 1-.41.317c-.137.136-.27.226-.453.316h-.043c0 .047 0 .047-.047.047-.137 0-.227-.094-.316-.227-.137-.5 0-1 .043-1.496.32-1.496.59-2.902 1.132-4.308.364-.86.727-1.723 1.043-2.582.227-.317.953-2.356.953-2.582.047-.227-.046-.364-.226-.453a.584.584 0 0 0-.453-.184c-.227 0-.41.09-.543.316-.184.32-.364.547-.547.774l-1.36 1.949c-.136.133-.226.227-.316.27h-.18l-.226-.497c-.547-.863-1.317-1.27-2.27-1.27a2.81 2.81 0 0 0-1.718.59c-.364.317-.68.634-1 1.134-.18.316-.364.586-.543.859-.18.316-.364.633-.543.953a7.25 7.25 0 0 0-.817 3.399c.137 1.085.953 1.675 1.992 1.812h.274c.316 0 .59-.09.77-.227a18.022 18.022 0 0 0 2.269-2.265c.133-.137.226-.227.36-.363h.093c.09.09.133.136.133.136v.18c-.043.094-.043.184-.043.227-.047.363-.137.726-.184 1.09-.09.363-.133.722-.18 1.132 0 1.406.817 2.766 2.403 2.766Zm-5.621-4.215c-.137-.047-.18-.227-.18-.453.227-1.633 1.903-5.895 3.352-5.895.183 0 .32.09.41.274.137.18.18.316.226.406.043.316.227.543.59.68.133.047.18.183.133.363 0 0-.043.047-.09.09-1.043 1.406-2.039 2.629-3.308 3.855a2.61 2.61 0 0 1-.407.317c-.136.09-.316.18-.453.316-.047.047-.136.047-.273.047Zm0 0" />
  <path fill="#80cbf2" fill-rule="evenodd"
    d="M17.664 17.793a8.501 8.501 0 0 0-5.52-2.016c-4.746 0-8.609 3.848-8.609 8.602a8.622 8.622 0 0 0 5.086 7.86 8.938 8.938 0 0 1-1.289-4.563 7.358 7.358 0 0 1-.727-3.196 7.53 7.53 0 0 1 7.536-7.535 7.33 7.33 0 0 1 3.382.813c-.074.02-.132.043-.199.058.106-.015.223-.023.34-.023Zm0 0" />
  <path fill="#00a3dd" fill-rule="evenodd"
    d="M17.523 17.742c-.074.016-.132.043-.199.059-5.57.465-9.941 4.62-10.02 9.691v.145s.02.015.02.031a7.6 7.6 0 0 0 4.469 3.965 9.77 9.77 0 0 1-1.164-4.621 9.7 9.7 0 0 1 6.894-9.27Zm-10.218 9.75v.145Zm0 0" />
  <path fill="#0075b8" fill-rule="evenodd"
    d="M17.523 17.742a7.356 7.356 0 0 0-3.382-.816 7.532 7.532 0 0 0-7.536 7.535c0 1.133.258 2.227.727 3.2 0-.036-.016-.044-.016-.075 0-5.113 4.403-9.328 10.008-9.793.067 0 .125-.035.2-.05Zm0 0" />
  <path fill="#aa84b3" fill-rule="evenodd"
    d="M16.457 18.5a8.595 8.595 0 0 0-3.488 4.738c-1.348 4.563 1.25 9.352 5.777 10.707a8.603 8.603 0 0 0 8.977-2.636 8.913 8.913 0 0 1-4.739-.043 7.542 7.542 0 0 1-3.28-.235c-3.962-1.172-6.243-5.37-5.056-9.351a7.868 7.868 0 0 1 1.735-3.04v.22c.031-.126.058-.243.074-.36Zm0 0" />
  <path fill="#743b8c" fill-rule="evenodd"
    d="M16.39 18.633v.219a12.36 12.36 0 0 0-.25 2.128v.727c.133 4.43 2.731 8.324 6.786 9.523.02 0 .043 0 .074.02a7.56 7.56 0 0 0 5.074-3.184 9.355 9.355 0 0 1-4.746-.191 9.652 9.652 0 0 1-6.937-9.242Zm6.602 12.625c-.117.015-.25.023-.363.039.121-.016.238-.031.363-.04Zm0 0" />
  <path fill="#372c65" fill-rule="evenodd"
    d="M16.39 18.633a7.797 7.797 0 0 0-1.73 3.039c-1.191 3.973 1.09 8.168 5.05 9.351 1.11.332 2.227.391 3.282.235-.023-.02-.039-.02-.074-.02-4.914-1.465-7.668-6.867-6.535-12.386.008-.075.008-.145.008-.22Zm0 0" />
  <path fill="#ee9abd" fill-rule="evenodd"
    d="M16.781 19.906a8.622 8.622 0 0 0 3.414 4.805c3.922 2.691 9.285 1.684 11.965-2.238 1.992-2.871 1.957-6.535.258-9.344-.098 1.582-.582 3.125-1.508 4.488a7.355 7.355 0 0 1-1.223 3.047c-2.355 3.434-7.042 4.297-10.472 1.95-1-.7-1.8-1.598-2.34-2.598.059.027.133.043.2.058-.095-.05-.192-.11-.294-.168Zm0 0" />
  <path fill="#c22a75" fill-rule="evenodd"
    d="M16.883 20.023c.539 1 1.332 1.907 2.34 2.598a7.527 7.527 0 0 0 10.472-1.945 7.399 7.399 0 0 0 1.227-3.051.245.245 0 0 0-.043.059c-2.89 4.23-8.895 5.207-13.781 2.398-.082-.016-.157-.023-.215-.059Zm0 0" />
  <path fill="#f1ae88" fill-rule="evenodd"
    d="M18.172 19.941a8.571 8.571 0 0 0 5.637-1.742c3.789-2.863 4.53-8.265 1.656-12.054a8.572 8.572 0 0 0-8.781-3.18 9.065 9.065 0 0 1 3.785 2.828 7.904 7.904 0 0 1 2.5 2.133c2.515 3.312 1.855 8.035-1.45 10.543a7.405 7.405 0 0 1-3.195 1.406c.04-.059.082-.117.113-.176-.09.082-.171.168-.265.242Zm0 0" />
  <path fill="#ce2c1e" fill-rule="evenodd"
    d="M18.32 19.883a7.4 7.4 0 0 0 3.2-1.406c3.312-2.516 3.964-7.239 1.449-10.543a7.792 7.792 0 0 0-2.5-2.13c.02.024.035.04.043.075 3.097 4.062 2.125 10.082-2.075 13.836-.03.05-.074.11-.117.168Zm0 0" />
  <g clip-path="url(#a)">
    <path fill="#aece93" fill-rule="evenodd"
      d="M18.582 18.477a8.609 8.609 0 0 0 0-5.895c-1.617-4.465-6.539-6.777-11.008-5.148a8.631 8.631 0 0 0-5.656 7.453c1-1.23 2.3-2.192 3.84-2.774A7.58 7.58 0 0 1 8.53 10.34c3.903-1.406 8.219.601 9.633 4.504a7.5 7.5 0 0 1 .406 3.492 1.731 1.731 0 0 0-.133-.176c.043.09.102.207.145.317Zm0 0" />
  </g>
  <path fill="#176633" fill-rule="evenodd"
    d="M18.563 18.324a7.541 7.541 0 0 0-.407-3.488c-1.406-3.902-5.722-5.91-9.633-4.504-1.074.39-2.007 1-2.773 1.773.031-.015.059-.015.074-.023 4.805-1.742 10.258.941 12.606 6.07.05.059.093.114.133.172Zm0 0" />
  <path fill="#39a338" fill-rule="evenodd"
    d="M18.355 17.992c.075.094.141.184.215.274-.039-.067-.082-.106-.125-.172-2.32-5.07-7.715-7.778-12.504-6.121-.015.007-.035.007-.05.015l.015-.015-.015.015c-.016.008-.024.008-.043.02-.016.008-.024.008-.04.015 0 0-.007.016-.027.024a7.566 7.566 0 0 0-2.215 5.555l.008-.008v.082a9.611 9.611 0 0 1 2.324-1.906 8.568 8.568 0 0 1 1.618-.766c4.113-1.5 8.566-.016 11.046 3.32a1.697 1.697 0 0 0-.132-.172c-.016-.05-.051-.101-.075-.16Zm0 0" />
  <path fill="#e54e23" fill-rule="evenodd"
    d="m18.398 19.766.047-.075-.015.016a.29.29 0 0 1-.032.059Zm2.73-12.973a6.036 6.036 0 0 0-.1-.164c-.016-.027-.032-.05-.051-.086a11.975 11.975 0 0 0-.465-.7c-.008-.007-.008-.015-.016-.023.043.024.082.051.133.067.043.023.101.058.156.082-.055-.032-.113-.074-.156-.098-.059-.035-.117-.059-.16-.086v.008s-.008 0-.008-.008a7.607 7.607 0 0 0-5.961-.473l.043.024c-.008 0-.016.008-.027.008a9.802 9.802 0 0 1 3.5 2.715c.066.082.132.16.191.242a9.67 9.67 0 0 1 .082 11.539c.05-.059.074-.113.125-.164.023-.028.059-.051.082-.074-.016.023-.031.054-.05.082a12.992 12.992 0 0 0 2.183-2.575c1.058-1.714 1.656-3.629 1.7-5.52v-.484a8.984 8.984 0 0 0-1.2-4.312Zm0 0" />
  <path fill="#e5007e" fill-rule="evenodd"
    d="M17.047 20.074c-.059-.015-.106-.031-.164-.05.05.027.105.042.164.05Zm12.433-8.27c0 .02-.007.036-.007.051 0-.007-.008-.007-.02-.015a9.473 9.473 0 0 1-1.656 4.445 9.556 9.556 0 0 1-3.379 3.047l-.05.027a4.333 4.333 0 0 1-.192.098c-.059.035-.117.059-.176.086-.023.016-.059.023-.082.039a9.7 9.7 0 0 1-7.012.45c.059.027.11.034.168.058-.008 0-.02-.008-.035-.008.016.008.035.008.05.016 0 0-.007 0-.007-.008.008 0 .016.008.023.008-.007 0-.015 0-.015-.008 3.957 2.258 8.633 2.058 11.808-.34 0 0 .008 0 .008-.008.059-.043.106-.086.164-.133a8.92 8.92 0 0 0 1.774-1.859c.02-.023.035-.047.058-.082 0 0 0-.008.008-.008-.008.05-.008.09-.023.14a.91.91 0 0 0-.024.192c0-.058.016-.117.024-.176.008-.046.023-.105.023-.156.012-.008.012-.015.02-.027 0 0 0-.016.008-.031a7.642 7.642 0 0 0-1.458-5.797Zm0 0" />
</svg>
