<svg xmlns="http://www.w3.org/2000/svg" xmlns:xlink="http://www.w3.org/1999/xlink" width="1500" zoomAndPan="magnify" viewBox="0 0 1125 374.999991" height="500" preserveAspectRatio="xMidYMid meet" version="1.0"><defs><g/><clipPath id="7b119ef94d"><path d="M 37 188 L 113 188 L 113 301 L 37 301 Z M 37 188 " clip-rule="nonzero"/></clipPath><clipPath id="47d0b16d57"><path d="M -18.292969 132.226562 L 179.34375 63.21875 L 248.351562 260.855469 L 50.714844 329.863281 Z M -18.292969 132.226562 " clip-rule="nonzero"/></clipPath><clipPath id="4b9e13fc5f"><path d="M -18.292969 132.226562 L 179.34375 63.21875 L 248.351562 260.855469 L 50.714844 329.863281 Z M -18.292969 132.226562 " clip-rule="nonzero"/></clipPath><clipPath id="e14005b098"><path d="M -18.292969 132.226562 L 179.34375 63.21875 L 248.351562 260.855469 L 50.714844 329.863281 Z M -18.292969 132.226562 " clip-rule="nonzero"/></clipPath><clipPath id="a071b74ecb"><path d="M 67 192 L 112 192 L 112 290 L 67 290 Z M 67 192 " clip-rule="nonzero"/></clipPath><clipPath id="4df3469113"><path d="M -18.292969 132.226562 L 179.34375 63.21875 L 248.351562 260.855469 L 50.714844 329.863281 Z M -18.292969 132.226562 " clip-rule="nonzero"/></clipPath><clipPath id="6ce6da7c4f"><path d="M -18.292969 132.226562 L 179.34375 63.21875 L 248.351562 260.855469 L 50.714844 329.863281 Z M -18.292969 132.226562 " clip-rule="nonzero"/></clipPath><clipPath id="fae49c6abc"><path d="M -18.292969 132.226562 L 179.34375 63.21875 L 248.351562 260.855469 L 50.714844 329.863281 Z M -18.292969 132.226562 " clip-rule="nonzero"/></clipPath><clipPath id="eec66f88b0"><path d="M 56 192 L 112 192 L 112 276 L 56 276 Z M 56 192 " clip-rule="nonzero"/></clipPath><clipPath id="2f4f775a6a"><path d="M -18.292969 132.226562 L 179.34375 63.21875 L 248.351562 260.855469 L 50.714844 329.863281 Z M -18.292969 132.226562 " clip-rule="nonzero"/></clipPath><clipPath id="dc2d54ba42"><path d="M -18.292969 132.226562 L 179.34375 63.21875 L 248.351562 260.855469 L 50.714844 329.863281 Z M -18.292969 132.226562 " clip-rule="nonzero"/></clipPath><clipPath id="55808d7775"><path d="M -18.292969 132.226562 L 179.34375 63.21875 L 248.351562 260.855469 L 50.714844 329.863281 Z M -18.292969 132.226562 " clip-rule="nonzero"/></clipPath><clipPath id="6ca9295d66"><path d="M 95 199 L 203 199 L 203 289 L 95 289 Z M 95 199 " clip-rule="nonzero"/></clipPath><clipPath id="67afd2a773"><path d="M -18.292969 132.226562 L 179.34375 63.21875 L 248.351562 260.855469 L 50.714844 329.863281 Z M -18.292969 132.226562 " clip-rule="nonzero"/></clipPath><clipPath id="e4c77abd21"><path d="M -18.292969 132.226562 L 179.34375 63.21875 L 248.351562 260.855469 L 50.714844 329.863281 Z M -18.292969 132.226562 " clip-rule="nonzero"/></clipPath><clipPath id="51f8838ec9"><path d="M -18.292969 132.226562 L 179.34375 63.21875 L 248.351562 260.855469 L 50.714844 329.863281 Z M -18.292969 132.226562 " clip-rule="nonzero"/></clipPath><clipPath id="5a8438f83b"><path d="M 106 200 L 198 200 L 198 265 L 106 265 Z M 106 200 " clip-rule="nonzero"/></clipPath><clipPath id="7a8468add4"><path d="M -18.292969 132.226562 L 179.34375 63.21875 L 248.351562 260.855469 L 50.714844 329.863281 Z M -18.292969 132.226562 " clip-rule="nonzero"/></clipPath><clipPath id="74f556cb24"><path d="M -18.292969 132.226562 L 179.34375 63.21875 L 248.351562 260.855469 L 50.714844 329.863281 Z M -18.292969 132.226562 " clip-rule="nonzero"/></clipPath><clipPath id="5b51abaeef"><path d="M -18.292969 132.226562 L 179.34375 63.21875 L 248.351562 260.855469 L 50.714844 329.863281 Z M -18.292969 132.226562 " clip-rule="nonzero"/></clipPath><clipPath id="842b677859"><path d="M 102 200 L 174 200 L 174 270 L 102 270 Z M 102 200 " clip-rule="nonzero"/></clipPath><clipPath id="c14028eb5b"><path d="M -18.292969 132.226562 L 179.34375 63.21875 L 248.351562 260.855469 L 50.714844 329.863281 Z M -18.292969 132.226562 " clip-rule="nonzero"/></clipPath><clipPath id="aba310d158"><path d="M -18.292969 132.226562 L 179.34375 63.21875 L 248.351562 260.855469 L 50.714844 329.863281 Z M -18.292969 132.226562 " clip-rule="nonzero"/></clipPath><clipPath id="5327b67213"><path d="M -18.292969 132.226562 L 179.34375 63.21875 L 248.351562 260.855469 L 50.714844 329.863281 Z M -18.292969 132.226562 " clip-rule="nonzero"/></clipPath><clipPath id="e33b4d36a6"><path d="M 111 132 L 214 132 L 214 232 L 111 232 Z M 111 132 " clip-rule="nonzero"/></clipPath><clipPath id="b4564d3c0b"><path d="M -18.292969 132.226562 L 179.34375 63.21875 L 248.351562 260.855469 L 50.714844 329.863281 Z M -18.292969 132.226562 " clip-rule="nonzero"/></clipPath><clipPath id="ed235ea4d9"><path d="M -18.292969 132.226562 L 179.34375 63.21875 L 248.351562 260.855469 L 50.714844 329.863281 Z M -18.292969 132.226562 " clip-rule="nonzero"/></clipPath><clipPath id="0ca18b2234"><path d="M -18.292969 132.226562 L 179.34375 63.21875 L 248.351562 260.855469 L 50.714844 329.863281 Z M -18.292969 132.226562 " clip-rule="nonzero"/></clipPath><clipPath id="bb185dd7dc"><path d="M 112 163 L 194 163 L 194 221 L 112 221 Z M 112 163 " clip-rule="nonzero"/></clipPath><clipPath id="5bfe8ab0b2"><path d="M -18.292969 132.226562 L 179.34375 63.21875 L 248.351562 260.855469 L 50.714844 329.863281 Z M -18.292969 132.226562 " clip-rule="nonzero"/></clipPath><clipPath id="55cb780c03"><path d="M -18.292969 132.226562 L 179.34375 63.21875 L 248.351562 260.855469 L 50.714844 329.863281 Z M -18.292969 132.226562 " clip-rule="nonzero"/></clipPath><clipPath id="1dbbacf1b1"><path d="M -18.292969 132.226562 L 179.34375 63.21875 L 248.351562 260.855469 L 50.714844 329.863281 Z M -18.292969 132.226562 " clip-rule="nonzero"/></clipPath><clipPath id="bacb6eda52"><path d="M 74 95 L 161 95 L 161 205 L 74 205 Z M 74 95 " clip-rule="nonzero"/></clipPath><clipPath id="917ae9dcf6"><path d="M -18.292969 132.226562 L 179.34375 63.21875 L 248.351562 260.855469 L 50.714844 329.863281 Z M -18.292969 132.226562 " clip-rule="nonzero"/></clipPath><clipPath id="bfb027f976"><path d="M -18.292969 132.226562 L 179.34375 63.21875 L 248.351562 260.855469 L 50.714844 329.863281 Z M -18.292969 132.226562 " clip-rule="nonzero"/></clipPath><clipPath id="26af79cc6a"><path d="M -18.292969 132.226562 L 179.34375 63.21875 L 248.351562 260.855469 L 50.714844 329.863281 Z M -18.292969 132.226562 " clip-rule="nonzero"/></clipPath><clipPath id="e56f124bfb"><path d="M 103 113 L 146 113 L 146 205 L 103 205 Z M 103 113 " clip-rule="nonzero"/></clipPath><clipPath id="ebdaca18dd"><path d="M -18.292969 132.226562 L 179.34375 63.21875 L 248.351562 260.855469 L 50.714844 329.863281 Z M -18.292969 132.226562 " clip-rule="nonzero"/></clipPath><clipPath id="9d9c3f34a8"><path d="M -18.292969 132.226562 L 179.34375 63.21875 L 248.351562 260.855469 L 50.714844 329.863281 Z M -18.292969 132.226562 " clip-rule="nonzero"/></clipPath><clipPath id="d0663ce376"><path d="M -18.292969 132.226562 L 179.34375 63.21875 L 248.351562 260.855469 L 50.714844 329.863281 Z M -18.292969 132.226562 " clip-rule="nonzero"/></clipPath><clipPath id="05272e5553"><path d="M 8 138 L 120 138 L 120 209 L 8 209 Z M 8 138 " clip-rule="nonzero"/></clipPath><clipPath id="d8ce9a0bd5"><path d="M -18.292969 132.226562 L 179.34375 63.21875 L 248.351562 260.855469 L 50.714844 329.863281 Z M -18.292969 132.226562 " clip-rule="nonzero"/></clipPath><clipPath id="82c36d7f78"><path d="M -18.292969 132.226562 L 179.34375 63.21875 L 248.351562 260.855469 L 50.714844 329.863281 Z M -18.292969 132.226562 " clip-rule="nonzero"/></clipPath><clipPath id="0bc5a73ab6"><path d="M -18.292969 132.226562 L 179.34375 63.21875 L 248.351562 260.855469 L 50.714844 329.863281 Z M -18.292969 132.226562 " clip-rule="nonzero"/></clipPath><clipPath id="9dff50b8e1"><path d="M 27 155 L 120 155 L 120 194 L 27 194 Z M 27 155 " clip-rule="nonzero"/></clipPath><clipPath id="d89f2e8833"><path d="M -18.292969 132.226562 L 179.34375 63.21875 L 248.351562 260.855469 L 50.714844 329.863281 Z M -18.292969 132.226562 " clip-rule="nonzero"/></clipPath><clipPath id="5e80ead94e"><path d="M -18.292969 132.226562 L 179.34375 63.21875 L 248.351562 260.855469 L 50.714844 329.863281 Z M -18.292969 132.226562 " clip-rule="nonzero"/></clipPath><clipPath id="139fbb035a"><path d="M -18.292969 132.226562 L 179.34375 63.21875 L 248.351562 260.855469 L 50.714844 329.863281 Z M -18.292969 132.226562 " clip-rule="nonzero"/></clipPath><clipPath id="1c3513e544"><path d="M 22 169 L 120 169 L 120 222 L 22 222 Z M 22 169 " clip-rule="nonzero"/></clipPath><clipPath id="ae661856a3"><path d="M -18.292969 132.226562 L 179.34375 63.21875 L 248.351562 260.855469 L 50.714844 329.863281 Z M -18.292969 132.226562 " clip-rule="nonzero"/></clipPath><clipPath id="97a5b7a7e5"><path d="M -18.292969 132.226562 L 179.34375 63.21875 L 248.351562 260.855469 L 50.714844 329.863281 Z M -18.292969 132.226562 " clip-rule="nonzero"/></clipPath><clipPath id="1dabb17fb6"><path d="M -18.292969 132.226562 L 179.34375 63.21875 L 248.351562 260.855469 L 50.714844 329.863281 Z M -18.292969 132.226562 " clip-rule="nonzero"/></clipPath><clipPath id="b3311db698"><path d="M 66 112 L 132 112 L 132 204 L 66 204 Z M 66 112 " clip-rule="nonzero"/></clipPath><clipPath id="94bd169444"><path d="M -18.292969 132.226562 L 179.34375 63.21875 L 248.351562 260.855469 L 50.714844 329.863281 Z M -18.292969 132.226562 " clip-rule="nonzero"/></clipPath><clipPath id="d0595606ca"><path d="M -18.292969 132.226562 L 179.34375 63.21875 L 248.351562 260.855469 L 50.714844 329.863281 Z M -18.292969 132.226562 " clip-rule="nonzero"/></clipPath><clipPath id="dfbc4319a2"><path d="M -18.292969 132.226562 L 179.34375 63.21875 L 248.351562 260.855469 L 50.714844 329.863281 Z M -18.292969 132.226562 " clip-rule="nonzero"/></clipPath><clipPath id="694f3b5ff8"><path d="M 112 131 L 194 131 L 194 210 L 112 210 Z M 112 131 " clip-rule="nonzero"/></clipPath><clipPath id="187bfc3e4c"><path d="M -18.292969 132.226562 L 179.34375 63.21875 L 248.351562 260.855469 L 50.714844 329.863281 Z M -18.292969 132.226562 " clip-rule="nonzero"/></clipPath><clipPath id="e16d3e46f3"><path d="M -18.292969 132.226562 L 179.34375 63.21875 L 248.351562 260.855469 L 50.714844 329.863281 Z M -18.292969 132.226562 " clip-rule="nonzero"/></clipPath><clipPath id="1268b6d010"><path d="M -18.292969 132.226562 L 179.34375 63.21875 L 248.351562 260.855469 L 50.714844 329.863281 Z M -18.292969 132.226562 " clip-rule="nonzero"/></clipPath><clipPath id="dcc08f0a67"><path d="M 111.304688 195.839844 L 119.191406 195.839844 L 119.191406 203.726562 L 111.304688 203.726562 Z M 111.304688 195.839844 " clip-rule="nonzero"/></clipPath><clipPath id="ce0b3a91a8"><path d="M 115.246094 195.839844 C 113.070312 195.839844 111.304688 197.605469 111.304688 199.785156 C 111.304688 201.960938 113.070312 203.726562 115.246094 203.726562 C 117.425781 203.726562 119.191406 201.960938 119.191406 199.785156 C 119.191406 197.605469 117.425781 195.839844 115.246094 195.839844 " clip-rule="nonzero"/></clipPath></defs><rect x="-112.5" width="1350" fill="#ffffff" y="-37.499999" height="449.999989" fill-opacity="1"/><rect x="-112.5" width="1350" fill="#ffffff" y="-37.499999" height="449.999989" fill-opacity="1"/><g clip-path="url(#7b119ef94d)"><g clip-path="url(#47d0b16d57)"><g clip-path="url(#4b9e13fc5f)"><g clip-path="url(#e14005b098)"><path fill="#80ccf3" d="M 112.675781 192.558594 C 100.851562 188.113281 87.582031 187.574219 74.734375 192.058594 C 45.683594 202.203125 30.332031 234.019531 40.476562 263.074219 C 47.953125 284.484375 67.214844 298.378906 88.140625 300.3125 C 80.390625 293.777344 74.3125 285.257812 70.441406 275.226562 C 65.648438 270.398438 61.789062 264.207031 59.328125 257.15625 C 50.027344 231.578125 63.691406 203.824219 89.121094 194.945312 C 96.433594 192.390625 104.125 191.773438 111.640625 192.550781 C 111.046875 192.757812 111.164062 193.085938 110.503906 193.316406 C 111.164062 193.085938 111.753906 192.878906 112.675781 192.558594 Z M 112.675781 192.558594 " fill-opacity="1" fill-rule="evenodd"/></g></g></g></g><g clip-path="url(#a071b74ecb)"><g clip-path="url(#4df3469113)"><g clip-path="url(#6ce6da7c4f)"><g clip-path="url(#fae49c6abc)"><path fill="#00a4dd" d="M 111.664062 192.617188 C 111.070312 192.824219 111.183594 193.152344 110.527344 193.382812 C 77.566406 207.996094 59.804688 242.652344 69.933594 273.777344 L 70.257812 274.703125 C 79.417969 284.214844 92.578125 289.523438 105.90625 289.378906 C 98.417969 282.753906 92.554688 273.789062 89.035156 263.710938 C 79.964844 237.3125 89.777344 208.460938 111.664062 192.617188 Z M 70.09375 274.019531 C 70.09375 274.019531 70.207031 274.347656 70.300781 274.613281 C 70.300781 274.613281 70.300781 274.613281 70.414062 274.941406 Z M 70.09375 274.019531 " fill-opacity="1" fill-rule="evenodd"/></g></g></g></g><g clip-path="url(#eec66f88b0)"><g clip-path="url(#2f4f775a6a)"><g clip-path="url(#dc2d54ba42)"><g clip-path="url(#55808d7775)"><path fill="#0075b8" d="M 111.664062 192.617188 C 104.480469 191.726562 96.785156 192.339844 89.144531 195.007812 C 63.78125 203.867188 50.117188 231.621094 59.085938 257.316406 C 61.546875 264.363281 65.292969 270.226562 70.199219 275.386719 C 70.199219 275.386719 70.085938 275.058594 69.992188 274.792969 C 59.089844 243.566406 77.0625 208.464844 110.378906 193.804688 C 110.832031 193.203125 111.164062 193.085938 111.664062 192.617188 Z M 111.664062 192.617188 " fill-opacity="1" fill-rule="evenodd"/></g></g></g></g><g clip-path="url(#6ca9295d66)"><g clip-path="url(#67afd2a773)"><g clip-path="url(#e4c77abd21)"><g clip-path="url(#51f8838ec9)"><path fill="#ab85b4" d="M 106.53125 199.507812 C 98.96875 209.390625 94.582031 222.230469 95.265625 236.035156 C 96.757812 266.777344 122.894531 290.617188 153.191406 288.90625 C 175.820312 287.882812 194.503906 273.449219 202.28125 253.585938 C 193.644531 259.335938 183.828125 262.765625 173.113281 263.402344 C 166.976562 266.578125 160.144531 268.59375 152.421875 268.925781 C 126.230469 270.53125 103.488281 249.644531 102.246094 222.585938 C 101.957031 214.777344 103.351562 207.121094 106.566406 200.457031 C 106.773438 201.050781 106.886719 201.378906 107.003906 201.707031 C 107.058594 201.023438 106.851562 200.429688 106.53125 199.507812 Z M 106.53125 199.507812 " fill-opacity="1" fill-rule="evenodd"/></g></g></g></g><g clip-path="url(#5a8438f83b)"><g clip-path="url(#7a8468add4)"><g clip-path="url(#74f556cb24)"><g clip-path="url(#5b51abaeef)"><path fill="#743b8d" d="M 106.589844 200.523438 C 106.796875 201.113281 106.910156 201.445312 107.027344 201.773438 C 107.597656 206.378906 108.617188 211.195312 110.113281 215.480469 L 111.605469 219.761719 C 121.699219 246.761719 145.875 264.78125 173.199219 263.445312 C 173.199219 263.445312 173.53125 263.328125 173.792969 263.238281 C 185.667969 257.023438 194.273438 246.109375 197.859375 232.882812 C 189.132812 238.371094 179.199219 241.46875 168.371094 241.773438 C 140.480469 243.605469 115.46875 225.953125 106.589844 200.523438 Z M 173.820312 263.523438 C 173.226562 263.730469 172.304688 264.050781 171.761719 264.613281 C 172.417969 264.382812 172.964844 263.824219 173.820312 263.523438 Z M 173.820312 263.523438 " fill-opacity="1" fill-rule="evenodd"/></g></g></g></g><g clip-path="url(#842b677859)"><g clip-path="url(#c14028eb5b)"><g clip-path="url(#aba310d158)"><g clip-path="url(#5327b67213)"><path fill="#372c65" d="M 106.589844 200.523438 C 103.796875 207.335938 102.3125 214.730469 102.269531 222.652344 C 103.398438 249.382812 126.402344 270.175781 153.132812 269.046875 C 160.609375 268.875 167.421875 266.792969 173.820312 263.523438 C 173.820312 263.523438 173.488281 263.636719 173.226562 263.730469 C 140.144531 265.304688 111.824219 238.164062 107.050781 202.058594 C 106.910156 201.445312 106.796875 201.113281 106.589844 200.523438 Z M 106.589844 200.523438 " fill-opacity="1" fill-rule="evenodd"/></g></g></g></g><g clip-path="url(#e33b4d36a6)"><g clip-path="url(#b4564d3c0b)"><g clip-path="url(#ed235ea4d9)"><g clip-path="url(#0ca18b2234)"><path fill="#ef9bbe" d="M 111.695312 207.3125 C 118.773438 217.851562 129.785156 225.683594 142.773438 229.425781 C 172.394531 237.636719 202.882812 219.746094 211.089844 190.125 C 217.15625 168.125 209.121094 146.171875 192.730469 132.675781 C 195.449219 142.371094 195.667969 152.9375 193.074219 163.082031 C 194.078125 169.976562 194.199219 177.101562 192.269531 184.28125 C 184.941406 210.492188 158.296875 225.632812 132.53125 218.515625 C 124.910156 216.371094 118.101562 212.539062 112.625 207.652344 C 112.957031 207.539062 113.335938 207.777344 113.992188 207.546875 C 113.203125 207.820312 112.519531 207.765625 111.695312 207.3125 Z M 111.695312 207.3125 " fill-opacity="1" fill-rule="evenodd"/></g></g></g></g><g clip-path="url(#bb185dd7dc)"><g clip-path="url(#5bfe8ab0b2)"><g clip-path="url(#55cb780c03)"><g clip-path="url(#1dbbacf1b1)"><path fill="#c32b75" d="M 112.609375 208.027344 C 118.109375 212.980469 124.894531 216.746094 132.515625 218.890625 C 158.347656 225.984375 185.160156 210.488281 192.253906 184.65625 C 194.183594 177.476562 194.433594 170.148438 193.058594 163.457031 C 193.058594 163.457031 193.171875 163.789062 192.84375 163.902344 C 184.09375 195.78125 149.472656 214.746094 113.84375 207.964844 C 113.648438 208.035156 113.054688 208.242188 112.609375 208.027344 Z M 112.609375 208.027344 " fill-opacity="1" fill-rule="evenodd"/></g></g></g></g><g clip-path="url(#bacb6eda52)"><g clip-path="url(#917ae9dcf6)"><g clip-path="url(#bfb027f976)"><g clip-path="url(#26af79cc6a)"><path fill="#f2af89" d="M 120.375 204.652344 C 132.503906 201.082031 143.585938 193.445312 150.882812 181.953125 C 168.042969 156.375 161.128906 121.761719 135.335938 105.042969 C 116.511719 92.402344 92.640625 92.828125 74.945312 104.179688 C 85.128906 104.761719 95.058594 107.800781 104.183594 113.1875 C 111.039062 114.195312 117.738281 116.660156 124.066406 121.027344 C 146.390625 135.851562 152.488281 166.019531 137.714844 188.695312 C 133.527344 195.328125 127.75 200.375 121.140625 204.089844 C 121.351562 203.644531 121.523438 203.289062 121.292969 202.632812 C 120.976562 203.40625 120.523438 204.230469 120.375 204.652344 Z M 120.375 204.652344 " fill-opacity="1" fill-rule="evenodd"/></g></g></g></g><g clip-path="url(#e56f124bfb)"><g clip-path="url(#ebdaca18dd)"><g clip-path="url(#9d9c3f34a8)"><g clip-path="url(#d0663ce376)"><path fill="#cf2d1e" d="M 120.851562 204.117188 C 127.464844 200.402344 132.910156 195.472656 137.429688 188.71875 C 152.25 166.398438 146.21875 136.207031 123.78125 121.054688 C 117.566406 117.015625 110.773438 114.285156 103.894531 113.214844 C 103.894531 113.214844 104.011719 113.542969 104.433594 113.691406 C 132.054688 131.835938 138.738281 170.671875 121.402344 202.519531 C 121.238281 203.316406 121.351562 203.644531 120.851562 204.117188 Z M 120.851562 204.117188 " fill-opacity="1" fill-rule="evenodd"/></g></g></g></g><g clip-path="url(#05272e5553)"><g clip-path="url(#d8ce9a0bd5)"><g clip-path="url(#82c36d7f78)"><g clip-path="url(#0bc5a73ab6)"><path fill="#afcf95" d="M 119.707031 194.90625 C 119.703125 182.195312 115.664062 169.5625 107.101562 158.804688 C 87.785156 135.023438 52.886719 131.394531 28.777344 150.824219 C 11.195312 165.242188 4.628906 187.710938 10.175781 208.464844 C 13.632812 198.683594 19.582031 190.101562 27.894531 183.429688 C 30.894531 177.210938 35.429688 171.5625 40.945312 166.828125 C 61.800781 149.9375 92.433594 152.988281 109.324219 173.847656 C 114.222656 180.046875 117.695312 187.035156 119.234375 194.40625 C 118.792969 194.191406 118.4375 194.019531 118.207031 193.363281 C 118.585938 193.597656 119.171875 194.429688 119.707031 194.90625 Z M 119.707031 194.90625 " fill-opacity="1" fill-rule="evenodd"/></g></g></g></g><g clip-path="url(#9dff50b8e1)"><g clip-path="url(#d89f2e8833)"><g clip-path="url(#5e80ead94e)"><g clip-path="url(#139fbb035a)"><path fill="#196733" d="M 119.382812 193.984375 C 117.515625 186.730469 114.460938 179.886719 109.472656 173.425781 C 92.582031 152.566406 62.015625 149.492188 40.828125 166.496094 C 35.222656 171.191406 30.714844 176.902344 27.777344 183.101562 C 27.777344 183.101562 28.109375 182.988281 28.371094 182.894531 C 54.003906 161.898438 93.113281 166.792969 118.378906 193.007812 C 118.585938 193.597656 118.699219 193.929688 119.382812 193.984375 Z M 119.382812 193.984375 " fill-opacity="1" fill-rule="evenodd"/></g></g></g></g><g clip-path="url(#1c3513e544)"><g clip-path="url(#ae661856a3)"><g clip-path="url(#97a5b7a7e5)"><g clip-path="url(#1dabb17fb6)"><path fill="#3aa438" d="M 117.132812 192.40625 C 117.933594 192.792969 118.492188 193.335938 119.027344 193.8125 C 118.585938 193.597656 118.230469 193.429688 118 192.769531 C 92.851562 166.886719 54.335938 161.78125 28.496094 182.1875 L 28.164062 182.300781 C 28.164062 182.300781 28.164062 182.300781 27.835938 182.417969 C 27.835938 182.417969 27.835938 182.417969 27.507812 182.53125 C 21.71875 194.53125 21.097656 208.421875 25.914062 221.152344 L 26.121094 221.746094 C 28.460938 215.753906 32.136719 210.40625 36.167969 205.226562 C 38.554688 202.324219 41.453125 199.613281 44.375 197.1875 C 66.277344 179.269531 96.683594 178.925781 119.007812 193.746094 C 118.5625 193.535156 118.207031 193.363281 117.976562 192.703125 C 117.71875 193.238281 117.488281 192.578125 117.132812 192.40625 Z M 117.132812 192.40625 " fill-opacity="1" fill-rule="evenodd"/></g></g></g></g><g clip-path="url(#b3311db698)"><g clip-path="url(#94bd169444)"><g clip-path="url(#d0595606ca)"><g clip-path="url(#dfbc4319a2)"><path fill="#e64e23" d="M 121.238281 203.316406 C 121.238281 203.316406 121.453125 202.871094 121.359375 202.609375 C 121.453125 202.871094 121.125 202.988281 121.238281 203.316406 Z M 110.433594 118.175781 C 109.988281 117.960938 109.894531 117.695312 109.515625 117.460938 C 109.515625 117.460938 109.074219 117.246094 108.980469 116.980469 C 107.949219 115.9375 106.613281 115.074219 105.253906 114.144531 C 105.253906 114.144531 104.8125 113.929688 104.71875 113.664062 C 105.046875 113.550781 105.425781 113.789062 105.425781 113.789062 C 105.757812 113.671875 106.132812 113.910156 106.554688 114.058594 C 106.226562 114.175781 105.757812 113.671875 105.425781 113.789062 C 105.097656 113.902344 104.71875 113.664062 104.296875 113.515625 C 91.269531 111.5625 77.394531 115 66.898438 123.46875 C 66.898438 123.46875 66.898438 123.46875 67.230469 123.355469 C 76.488281 124.261719 85.710938 127.175781 94.414062 132.414062 C 94.949219 132.894531 95.65625 133.015625 96.195312 133.492188 C 119.546875 149.359375 129.335938 178.242188 121.46875 203.976562 C 121.683594 203.53125 121.855469 203.175781 121.738281 202.84375 C 121.738281 202.84375 121.953125 202.402344 122.125 202.046875 C 122.125 202.046875 121.910156 202.488281 122.003906 202.753906 C 125.503906 196.0625 128.300781 189.246094 129.726562 182.539062 C 132.550781 169.875 132.125 157.015625 128.382812 145.242188 L 127.324219 142.210938 C 123.394531 132.863281 117.761719 124.558594 110.433594 118.175781 Z M 110.433594 118.175781 " fill-opacity="1" fill-rule="evenodd"/></g></g></g></g><g clip-path="url(#694f3b5ff8)"><g clip-path="url(#187bfc3e4c)"><g clip-path="url(#e16d3e46f3)"><g clip-path="url(#1268b6d010)"><path fill="#e6007e" d="M 113.648438 208.035156 C 113.316406 208.152344 112.9375 207.914062 112.609375 208.027344 C 112.9375 207.914062 113.316406 208.152344 113.648438 208.035156 Z M 171.855469 131.097656 C 171.855469 131.097656 171.945312 131.359375 171.855469 131.097656 C 171.945312 131.359375 171.855469 131.097656 171.855469 131.097656 C 173.914062 141.019531 174.195312 151.566406 171.273438 161.824219 C 168.523438 171.726562 163.773438 180.554688 156.964844 187.738281 L 156.636719 187.851562 C 156.421875 188.296875 156.160156 188.386719 155.59375 188.882812 C 155.261719 188.996094 155.113281 189.417969 154.546875 189.910156 C 154.546875 189.910156 154.21875 190.027344 154.070312 190.449219 C 143.035156 201.175781 128.164062 207.699219 112.214844 208.167969 C 112.542969 208.050781 112.921875 208.289062 113.253906 208.171875 L 113.582031 208.058594 C 142.566406 213.386719 170.589844 202.199219 185.027344 180.675781 C 185.242188 180.230469 185.410156 179.875 185.742188 179.761719 C 188.636719 175.347656 190.921875 170.042969 192.523438 164.679688 C 192.523438 164.679688 192.738281 164.234375 192.644531 163.972656 C 192.761719 164.300781 192.851562 164.5625 192.96875 164.894531 C 193.175781 165.488281 193.175781 165.488281 193.40625 166.144531 C 193.289062 165.816406 193.199219 165.550781 192.96875 164.894531 C 192.851562 164.5625 192.761719 164.300781 192.644531 163.972656 C 192.644531 163.972656 192.644531 163.972656 192.53125 163.640625 C 190.925781 150.160156 183.34375 138.394531 171.855469 131.097656 Z M 171.855469 131.097656 " fill-opacity="1" fill-rule="evenodd"/></g></g></g></g><g clip-path="url(#dcc08f0a67)"><g clip-path="url(#ce0b3a91a8)"><path fill="#afd516" d="M 111.304688 195.839844 L 119.191406 195.839844 L 119.191406 203.726562 L 111.304688 203.726562 Z M 111.304688 195.839844 " fill-opacity="1" fill-rule="nonzero"/></g></g><g fill="#000000" fill-opacity="1"><g transform="translate(224.703484, 281.5553)"><g><path d="M 31.871094 -145.003906 C 31.984375 -145.003906 31.984375 -145.058594 31.871094 -145.058594 C 31.761719 -145.058594 31.761719 -145.003906 31.871094 -145.003906 Z M 121.390625 -13.582031 C 121.945312 -17.015625 114.019531 -15.742188 112.6875 -14.632812 C 111.136719 -13.304688 110.527344 -12.472656 108.699219 -13.691406 C 106.703125 -15.019531 105.484375 -17.570312 104.707031 -19.734375 C 102.542969 -25.496094 101.878906 -32.039062 101.214844 -38.082031 C 99.71875 -51.160156 99.882812 -64.355469 100.4375 -77.492188 C 101.601562 -103.984375 104.429688 -130.316406 106.703125 -156.753906 C 107.035156 -160.300781 96.945312 -160.300781 96.449219 -156.535156 C 94.121094 -139.960938 92.84375 -123.21875 91.679688 -106.589844 C 90.515625 -90.628906 89.351562 -74.609375 89.464844 -58.589844 C 89.074219 -57.425781 88.6875 -56.207031 88.242188 -55.042969 C 85.804688 -48.613281 71.835938 -10.808594 53.101562 -9.644531 C 46.78125 -9.257812 41.90625 -13.46875 39.855469 -18.511719 C 37.359375 -24.667969 37.746094 -31.539062 38.300781 -38.023438 C 39.410156 -52.382812 42.070312 -66.570312 44.84375 -80.707031 C 47.558594 -94.5625 50.332031 -108.421875 51.828125 -122.5 C 52.933594 -132.808594 55.261719 -146.945312 48.722656 -156.035156 C 42.679688 -164.460938 29.265625 -165.402344 21.007812 -159.636719 C 12.082031 -153.320312 6.375 -141.070312 4.15625 -130.703125 C 2.550781 -122.886719 0.332031 -105.59375 10.421875 -102.542969 C 20.730469 -99.441406 31.925781 -117.457031 34.867188 -127.265625 C 35.417969 -129.152344 30.984375 -129.261719 30.320312 -127.820312 C 27.660156 -122 24.722656 -116.347656 20.5625 -111.359375 C 19.125 -109.585938 17.570312 -107.699219 15.742188 -106.3125 C 10.03125 -102.046875 6.207031 -107.199219 5.488281 -112.355469 C 3.714844 -124.382812 8.757812 -136.300781 15.632812 -145.945312 C 29.710938 -165.789062 39.355469 -154.648438 40.960938 -149.9375 C 42.515625 -145.613281 42.515625 -140.847656 42.402344 -136.300781 C 42.183594 -129.152344 41.460938 -122 40.464844 -114.851562 C 36.859375 -89.074219 29.710938 -63.800781 27.660156 -37.804688 C 26.882812 -27.4375 27.105469 -15.742188 35.863281 -8.535156 C 39.6875 -5.375 44.175781 -3.660156 48.722656 -3.660156 C 71.726562 -3.660156 84.417969 -29.65625 90.019531 -44.730469 C 90.238281 -41.296875 90.570312 -37.859375 91.070312 -34.476562 C 91.902344 -28.214844 92.621094 -20.839844 95.839844 -15.1875 C 98.554688 -10.421875 103.210938 -7.925781 108.640625 -7.484375 C 113.132812 -7.09375 120.558594 -8.203125 121.390625 -13.582031 Z M 121.390625 -13.582031 "/></g></g></g><g fill="#000000" fill-opacity="1"><g transform="translate(338.389302, 281.5553)"><g><path d="M 42.015625 -22.394531 C 27.992188 -28.378906 38.691406 -74.554688 41.183594 -95.226562 C 41.628906 -98.996094 41.960938 -106.148438 40.132812 -110.914062 C 39.410156 -112.6875 33.921875 -116.234375 31.484375 -115.792969 C 27.4375 -115.015625 24.832031 -110.636719 23.058594 -106.648438 C 19.953125 -99.550781 16.960938 -92.402344 14.632812 -85.027344 C 12.082031 -76.9375 10.367188 -68.621094 8.425781 -60.308594 C 8.371094 -61.636719 8.257812 -62.96875 8.203125 -64.296875 C 7.703125 -73.445312 7.703125 -81.980469 8.3125 -91.902344 C 8.535156 -95.726562 1.273438 -94.175781 0.5 -92.011719 C -1.109375 -87.46875 -2.660156 -75.496094 -2.605469 -64.632812 C -2.496094 -55.929688 -2.21875 -45.894531 2.160156 -38.082031 C 3.324219 -35.972656 8.703125 -36.25 9.257812 -38.746094 C 12.195312 -51.550781 15.464844 -64.464844 18.902344 -77.101562 C 20.621094 -83.253906 22.449219 -89.40625 24.941406 -95.285156 C 26.105469 -98 27.269531 -100.660156 28.878906 -103.210938 C 29.210938 -103.765625 29.765625 -104.707031 30.375 -105.761719 C 30.375 -105.539062 30.375 -105.316406 30.429688 -105.09375 C 30.597656 -102.324219 30.597656 -99.496094 30.597656 -96.667969 C 23.003906 -49.277344 23.335938 -29.875 28.933594 -21.617188 C 31.539062 -18.570312 35.53125 -17.347656 39.464844 -17.847656 C 41.738281 -18.125 44.789062 -18.957031 44.398438 -21.726562 C 44.234375 -22.726562 42.625 -22.558594 42.015625 -22.394531 Z M 42.015625 -22.394531 "/></g></g></g><g fill="#000000" fill-opacity="1"><g transform="translate(386.058633, 281.5553)"><g/></g></g><g fill="#000000" fill-opacity="1"><g transform="translate(413.939655, 281.5553)"><g><path d="M 111.523438 -143.785156 C 108.699219 -141.566406 106.480469 -142.84375 103.210938 -143.121094 C 102.101562 -143.230469 98.332031 -143.121094 98.441406 -141.125 C 98.71875 -136.414062 107.3125 -136.632812 110.527344 -137.023438 C 115.128906 -137.632812 119.949219 -139.570312 122.777344 -143.507812 C 130.316406 -153.929688 117.566406 -164.40625 108.253906 -166.621094 C 95.007812 -169.78125 82.425781 -165.179688 70.339844 -160.027344 C 57.09375 -154.316406 43.457031 -148.941406 29.210938 -146.277344 C 22.558594 -145.003906 13.246094 -144.394531 10.199219 -152.097656 C 9.367188 -154.207031 9.421875 -160.300781 13.191406 -159.472656 C 15.910156 -158.804688 16.683594 -154.425781 15.6875 -152.320312 C 14.855469 -150.546875 18.902344 -150.824219 19.621094 -151.210938 C 23.167969 -153.207031 23.835938 -156.921875 21.117188 -160.082031 C 18.125 -163.515625 12.914062 -164.183594 8.703125 -162.796875 C 4.601562 -161.464844 0.167969 -156.921875 0.386719 -152.320312 C 0.664062 -146.886719 6.042969 -143.398438 10.585938 -141.734375 C 23.613281 -136.855469 39.578125 -142.175781 52.160156 -146.277344 C 55.152344 -147.222656 58.144531 -148.328125 61.082031 -149.4375 C 61.195312 -119.949219 61.417969 -90.515625 60.863281 -61.027344 C 60.695312 -53.378906 60.527344 -45.785156 60.308594 -38.136719 C 60.085938 -31.097656 60.140625 -23.613281 57.039062 -17.128906 C 55.152344 -13.082031 50.164062 -6.207031 44.953125 -9.203125 C 40.851562 -11.53125 40.019531 -19.066406 44.398438 -21.617188 C 46.285156 -22.726562 46.171875 -24.445312 44.289062 -25.496094 C 42.292969 -26.660156 38.800781 -26.550781 36.804688 -25.386719 C 28.101562 -20.289062 29.875 -8.648438 38.578125 -4.65625 C 48.554688 -0.109375 60.527344 -4.488281 66.070312 -13.582031 C 69.34375 -18.957031 70.285156 -25.441406 70.617188 -31.59375 C 71.0625 -39.132812 71.117188 -46.671875 71.28125 -54.210938 C 71.613281 -69.730469 71.835938 -85.304688 71.890625 -100.882812 C 71.949219 -118.175781 71.949219 -135.527344 71.394531 -152.820312 C 71.394531 -153.042969 71.339844 -153.261719 71.28125 -153.484375 C 72.167969 -153.816406 73.054688 -154.207031 73.941406 -154.59375 C 80.59375 -157.421875 87.414062 -160.800781 94.617188 -161.855469 C 102.101562 -162.964844 111.136719 -160.855469 113.796875 -152.765625 C 114.851562 -149.550781 114.242188 -146 111.523438 -143.785156 Z M 111.523438 -143.785156 "/></g></g></g><g fill="#000000" fill-opacity="1"><g transform="translate(502.793066, 281.5553)"><g><path d="M 40.019531 -75.382812 C 40.132812 -69.453125 34.808594 -65.90625 29.046875 -64.078125 C 29.101562 -64.574219 29.15625 -65.074219 29.15625 -65.519531 C 30.375 -79.210938 27.824219 -88.519531 20.5625 -94.894531 C 16.019531 -98.886719 8.925781 -99.273438 3.660156 -93.289062 C -1.773438 -87.078125 -4.488281 -77.824219 -2.4375 -70.175781 C -2.660156 -69.5625 -2.828125 -68.789062 -2.828125 -67.902344 C -2.992188 -60.863281 -1.996094 -33.3125 14.078125 -34.367188 C 22.171875 -34.867188 26.71875 -47.945312 28.546875 -60.195312 C 36.472656 -63.300781 41.128906 -67.679688 42.070312 -74.773438 C 42.625 -76.214844 40.574219 -76.492188 40.019531 -75.382812 Z M 5.765625 -84.808594 C 8.425781 -93.289062 13.746094 -98.5 18.070312 -89.742188 C 21.230469 -83.421875 21.0625 -74.71875 20.839844 -67.789062 C 20.839844 -66.460938 20.730469 -64.632812 20.507812 -62.582031 C 14.46875 -62.359375 9.035156 -63.855469 6.597656 -66.515625 C 6.484375 -66.625 6.429688 -66.738281 6.320312 -66.847656 C 6.320312 -67.847656 6.320312 -68.621094 6.320312 -69.066406 C 6.261719 -70.285156 5.488281 -71.339844 4.324219 -72.058594 C 3.714844 -76.824219 5.042969 -82.425781 5.765625 -84.808594 Z M 13.691406 -40.628906 C 9.3125 -40.351562 7.539062 -50.71875 6.816406 -59.089844 C 10.53125 -57.425781 15.1875 -57.148438 20.011719 -57.867188 C 19.011719 -49.832031 17.015625 -40.851562 13.691406 -40.628906 Z M 13.691406 -40.628906 "/></g></g></g><g fill="#000000" fill-opacity="1"><g transform="translate(542.314273, 281.5553)"><g><path d="M 54.097656 -75.496094 C 54.15625 -76.328125 51.828125 -76.269531 51.769531 -75.441406 C 50.773438 -60.695312 40.464844 -41.238281 31.316406 -33.3125 C 32.09375 -53.378906 33.589844 -73.5 35.085938 -93.511719 C 35.308594 -97.113281 24.941406 -97.222656 24.667969 -93.34375 C 24.667969 -93.121094 24.667969 -92.957031 24.609375 -92.734375 C 21.117188 -97.335938 15.410156 -99.882812 9.699219 -96.835938 C 4.710938 -94.121094 1.941406 -87.855469 0.0546875 -82.867188 C -2.4375 -76.160156 -3.492188 -69.011719 -3.046875 -61.859375 C -2.714844 -56.59375 -2.105469 -48.277344 2.050781 -44.34375 C 5.765625 -40.90625 11.863281 -40.464844 16.128906 -43.179688 C 18.847656 -44.898438 20.5625 -47.835938 21.785156 -51.050781 C 20.785156 -33.257812 20.121094 -15.410156 20.398438 2.382812 C 20.5625 12.859375 22.0625 30.652344 36.917969 27.269531 C 45.785156 25.277344 49 4.824219 46.949219 -6.320312 C 45.007812 -16.960938 40.90625 -27.050781 31.429688 -29.378906 C 40.628906 -35.199219 51.769531 -51.828125 54.097656 -75.496094 Z M 23.78125 -81.480469 C 20.5625 -72.667969 19.789062 -63.132812 16.460938 -54.265625 C 15.742188 -52.269531 15.019531 -50.164062 13.914062 -48.335938 C 13.523438 -47.667969 12.25 -45.675781 11.140625 -46.007812 C 10.808594 -46.117188 10.089844 -47.667969 9.921875 -48.003906 C 7.761719 -51.992188 6.816406 -56.816406 6.261719 -61.304688 C 5.15625 -69.953125 5.820312 -79.542969 8.8125 -87.800781 C 9.535156 -89.742188 10.421875 -91.734375 11.863281 -93.289062 C 14.355469 -95.839844 17.347656 -94.617188 19.34375 -92.011719 C 21.394531 -89.296875 22.449219 -86.027344 23.890625 -82.921875 C 23.890625 -82.425781 23.835938 -81.980469 23.78125 -81.480469 Z M 41.628906 -11.917969 C 46.617188 19.289062 35.863281 22.617188 34.253906 21.175781 C 34.035156 20.839844 33.8125 20.453125 33.589844 20.121094 C 30.042969 13.746094 30.761719 4.878906 30.707031 -2.160156 C 30.652344 -10.367188 30.820312 -18.511719 31.039062 -26.660156 C 36.917969 -24.609375 40.742188 -17.738281 41.628906 -11.917969 Z M 41.628906 -11.917969 "/></g></g></g><g fill="#000000" fill-opacity="1"><g transform="translate(593.808242, 281.5553)"><g><path d="M 48.058594 -70.726562 C 47.058594 -61.472656 44.398438 -52.214844 41.515625 -43.347656 C 40.1875 -39.300781 38.746094 -35.917969 36.417969 -32.371094 C 36.417969 -32.425781 36.417969 -32.425781 36.363281 -32.480469 C 35.917969 -33.148438 35.53125 -33.867188 35.253906 -34.589844 C 34.476562 -36.363281 34.199219 -38.355469 33.867188 -40.296875 C 30.875 -57.589844 34.976562 -76.660156 34.144531 -94.0625 C 33.921875 -97.777344 23.722656 -95.839844 24.054688 -92.347656 C 24.113281 -91.847656 24.113281 -91.402344 24.113281 -90.90625 C 24 -80.984375 16.628906 -46.726562 13.136719 -45.453125 C 9.3125 -44.066406 7.925781 -52.382812 7.925781 -52.382812 C 6.929688 -56.484375 6.484375 -60.75 6.261719 -64.964844 C 5.929688 -69.675781 6.042969 -88.964844 5.929688 -93.730469 C 5.875 -97.777344 -0.445312 -96.171875 -1.996094 -94.230469 C -4.210938 -91.570312 -4.101562 -83.144531 -4.15625 -76.492188 C -4.269531 -70.617188 -4.15625 -64.632812 -3.492188 -58.8125 C -2.496094 -50.054688 1.109375 -36.640625 12.027344 -40.1875 C 18.347656 -42.238281 19.511719 -52.324219 22.835938 -62.746094 C 22.726562 -60.972656 22.617188 -59.144531 22.558594 -57.3125 C 22.394531 -51.550781 22.558594 -45.785156 23.613281 -40.074219 C 24.332031 -36.085938 25.109375 -31.261719 28.878906 -28.933594 C 36.25 -24.5 41.238281 -30.597656 43.457031 -37.414062 C 47.113281 -48.5 50.496094 -59.199219 49.941406 -70.785156 C 49.941406 -71.0625 48.113281 -71.003906 48.058594 -70.726562 Z M 48.058594 -70.726562 "/></g></g></g><g fill="#000000" fill-opacity="1"><g transform="translate(641.810161, 281.5553)"><g><path d="M 22.503906 -68.675781 C 27.382812 -76.882812 35.585938 -102.933594 18.511719 -102.878906 C 3.382812 -102.820312 -2.714844 -81.703125 -3.382812 -69.785156 C -3.824219 -62.414062 -3.824219 -53.710938 -0.664062 -46.894531 C 2.605469 -39.910156 9.589844 -36.582031 17.074219 -37.136719 C 25 -37.691406 31.761719 -45.007812 36.25 -54.488281 C 39.796875 -61.859375 43.011719 -70.671875 44.398438 -76.605469 C 44.898438 -78.765625 42.070312 -78.933594 41.683594 -76.660156 C 40.628906 -70.839844 35.695312 -59.753906 34.199219 -57.257812 C 30.707031 -51.550781 25.332031 -43.011719 18.179688 -43.289062 C 9.976562 -43.625 7.425781 -51.605469 6.875 -59.699219 C 7.316406 -59.640625 7.761719 -59.53125 8.203125 -59.53125 C 14.6875 -58.976562 19.398438 -63.46875 22.503906 -68.675781 Z M 6.761719 -63.855469 C 6.761719 -68.34375 7.207031 -72.445312 7.425781 -74.828125 C 8.980469 -90.628906 16.460938 -100.328125 19.789062 -98.386719 C 22.449219 -96.890625 22.503906 -91.679688 22.449219 -89.132812 C 22.339844 -82.480469 20.289062 -75.828125 17.015625 -70.007812 C 15.296875 -67.015625 11.917969 -61.195312 7.484375 -63.410156 C 7.207031 -63.523438 6.984375 -63.6875 6.761719 -63.855469 Z M 6.761719 -63.855469 "/></g></g></g><g fill="#000000" fill-opacity="1"><g transform="translate(683.936547, 281.5553)"><g/></g></g><g fill="#000000" fill-opacity="1"><g transform="translate(711.817557, 281.5553)"><g><path d="M 49.109375 -71.613281 C 47.558594 -64.019531 45.230469 -56.871094 42.070312 -49.832031 C 41.296875 -48.113281 40.628906 -46.226562 39.519531 -44.621094 C 38.96875 -43.789062 38.300781 -42.957031 37.582031 -42.292969 C 37.304688 -42.570312 37.082031 -42.847656 36.859375 -43.125 C 35.808594 -44.84375 35.308594 -46.78125 34.921875 -48.722656 C 32.261719 -61.636719 31.984375 -75.496094 32.425781 -88.742188 C 40.519531 -100.605469 45.507812 -115.625 48.113281 -129.316406 C 48.945312 -133.917969 50.21875 -149.105469 46.339844 -153.652344 C 41.847656 -158.917969 34.199219 -155.371094 31.429688 -148.605469 C 28.214844 -140.625 26.773438 -131.3125 25.277344 -122.886719 C 23.835938 -114.851562 22.835938 -106.757812 22.28125 -98.609375 C 20.675781 -99.386719 18.570312 -99.773438 17.183594 -99.773438 C 10.917969 -99.828125 7.261719 -95.394531 4.601562 -90.296875 C -1.609375 -78.101562 -4.765625 -60.917969 -1.273438 -47.503906 C 0.167969 -42.015625 3.324219 -36.640625 9.535156 -36.472656 C 16.796875 -36.304688 18.789062 -42.292969 20.675781 -48.113281 C 21.507812 -50.664062 22.28125 -53.269531 23.003906 -55.875 C 23.445312 -50.21875 24.445312 -44.511719 27.4375 -40.410156 C 31.429688 -34.921875 40.683594 -34.421875 42.957031 -41.570312 C 46.0625 -51.382812 48.554688 -61.417969 49.941406 -71.613281 C 49.996094 -71.890625 49.167969 -71.890625 49.109375 -71.613281 Z M 38.082031 -134.472656 C 38.855469 -138.019531 39.742188 -141.511719 40.742188 -145.003906 C 41.128906 -146.390625 41.515625 -147.832031 42.238281 -149.050781 C 43.070312 -150.4375 43.898438 -148.441406 43.898438 -148.441406 C 46.0625 -140.902344 45.453125 -133.972656 43.898438 -126.269531 C 42.238281 -118.453125 39.855469 -110.691406 36.695312 -103.320312 C 35.476562 -100.492188 34.089844 -97.832031 32.648438 -95.171875 C 33.367188 -108.421875 35.140625 -121.558594 38.082031 -134.472656 Z M 21.785156 -78.210938 C 21.339844 -73.832031 20.675781 -69.507812 19.789062 -65.183594 C 18.625 -59.585938 16.960938 -54.15625 14.964844 -48.832031 C 14.132812 -46.78125 13.691406 -44.675781 11.75 -42.792969 C 10.53125 -41.628906 9.699219 -41.570312 8.648438 -43.125 C 7.980469 -44.066406 7.539062 -45.339844 7.261719 -46.449219 C 5.210938 -54.652344 6.261719 -66.070312 8.203125 -75.105469 C 9.257812 -79.929688 10.53125 -84.753906 12.804688 -89.1875 C 13.582031 -90.683594 15.6875 -93.398438 17.460938 -93.953125 C 19.011719 -94.398438 21.339844 -92.679688 21.839844 -89.90625 C 21.726562 -86.027344 21.726562 -82.148438 21.785156 -78.210938 Z M 21.785156 -78.210938 "/></g></g></g><g fill="#000000" fill-opacity="1"><g transform="translate(760.817218, 281.5553)"><g><path d="M 22.503906 -68.675781 C 27.382812 -76.882812 35.585938 -102.933594 18.511719 -102.878906 C 3.382812 -102.820312 -2.714844 -81.703125 -3.382812 -69.785156 C -3.824219 -62.414062 -3.824219 -53.710938 -0.664062 -46.894531 C 2.605469 -39.910156 9.589844 -36.582031 17.074219 -37.136719 C 25 -37.691406 31.761719 -45.007812 36.25 -54.488281 C 39.796875 -61.859375 43.011719 -70.671875 44.398438 -76.605469 C 44.898438 -78.765625 42.070312 -78.933594 41.683594 -76.660156 C 40.628906 -70.839844 35.695312 -59.753906 34.199219 -57.257812 C 30.707031 -51.550781 25.332031 -43.011719 18.179688 -43.289062 C 9.976562 -43.625 7.425781 -51.605469 6.875 -59.699219 C 7.316406 -59.640625 7.761719 -59.53125 8.203125 -59.53125 C 14.6875 -58.976562 19.398438 -63.46875 22.503906 -68.675781 Z M 6.761719 -63.855469 C 6.761719 -68.34375 7.207031 -72.445312 7.425781 -74.828125 C 8.980469 -90.628906 16.460938 -100.328125 19.789062 -98.386719 C 22.449219 -96.890625 22.503906 -91.679688 22.449219 -89.132812 C 22.339844 -82.480469 20.289062 -75.828125 17.015625 -70.007812 C 15.296875 -67.015625 11.917969 -61.195312 7.484375 -63.410156 C 7.207031 -63.523438 6.984375 -63.6875 6.761719 -63.855469 Z M 6.761719 -63.855469 "/></g></g></g><g fill="#000000" fill-opacity="1"><g transform="translate(802.943604, 281.5553)"><g/></g></g><g fill="#000000" fill-opacity="1"><g transform="translate(830.824614, 281.5553)"><g><path d="M 86.414062 -67.957031 C 86.582031 -51.828125 86.746094 -34.808594 90.238281 -18.957031 C 91.625 -12.75 93.511719 -5.542969 98.609375 -1.273438 C 103.488281 2.769531 110.414062 3.105469 116.015625 0.554688 C 117.734375 -0.222656 117.566406 -1.664062 116.347656 -2.660156 C 114.851562 -3.878906 111.96875 -3.714844 110.25 -3.160156 C 107.699219 -2.328125 104.929688 -7.59375 104.097656 -9.257812 C 102.601562 -12.359375 101.601562 -15.742188 100.828125 -19.179688 C 99.386719 -25.554688 98.886719 -32.09375 98.332031 -38.632812 C 97.113281 -53.378906 96.78125 -68.179688 97.058594 -82.976562 C 97.554688 -112.355469 100.273438 -141.621094 103.042969 -170.890625 C 103.433594 -174.824219 94.007812 -173.773438 92.621094 -171.386719 C 84.753906 -157.917969 81.703125 -141.621094 77.433594 -126.710938 C 75.21875 -118.785156 72.945312 -110.914062 70.671875 -102.988281 C 69.839844 -100.105469 69.066406 -97.113281 68.066406 -94.175781 C 65.628906 -114.90625 70.449219 -136.300781 65.851562 -156.921875 C 65.074219 -160.578125 55.875 -160.578125 55.429688 -156.699219 C 54.875 -152.210938 54.488281 -141.011719 52.824219 -130.648438 C 51.4375 -121.835938 30.929688 -13.359375 15.632812 -17.183594 C 4.210938 -20.066406 8.648438 -59.976562 17.515625 -78.433594 C 18.679688 -80.761719 22.835938 -89.90625 25.886719 -87.96875 C 28.710938 -86.136719 27.882812 -79.375 27.660156 -76.714844 C 26.882812 -66.960938 23.835938 -58.144531 19.011719 -49 C 17.625 -46.285156 23.613281 -46.0625 25.773438 -48.722656 C 29.988281 -55.875 41.960938 -95.671875 21.726562 -91.957031 C 0.5 -88.023438 -6.597656 -29.597656 7.152344 -17.015625 C 12.804688 -11.804688 23.167969 -13.746094 27.382812 -19.066406 C 33.535156 -26.773438 36.640625 -36.75 39.519531 -46.0625 C 43.011719 -57.3125 46.226562 -68.734375 49 -80.152344 C 51.992188 -92.289062 54.597656 -104.539062 56.925781 -116.789062 C 57.589844 -120.226562 58.257812 -123.664062 58.921875 -127.042969 C 58.699219 -111.414062 56.703125 -96.058594 61.027344 -80.761719 C 61.914062 -77.65625 67.070312 -78.210938 70.285156 -81.203125 C 73.554688 -84.308594 81.703125 -117.789062 89.90625 -142.785156 C 87.746094 -117.898438 86.136719 -92.957031 86.414062 -67.957031 Z M 86.414062 -67.957031 "/></g></g></g><g fill="#000000" fill-opacity="1"><g transform="translate(942.459526, 281.5553)"><g><path d="M 44.398438 -78.046875 C 43.289062 -70.449219 41.40625 -63.132812 38.355469 -56.148438 C 36.917969 -52.824219 35.308594 -49.609375 33.257812 -46.617188 C 32.648438 -45.617188 31.925781 -44.675781 31.152344 -43.734375 C 30.929688 -44.453125 30.707031 -45.230469 30.652344 -46.007812 C 27.660156 -61.25 29.046875 -77.214844 30.210938 -92.621094 C 30.375 -95.0625 26.050781 -95.78125 22.890625 -94.949219 C 22.726562 -95.171875 22.617188 -95.339844 22.449219 -95.503906 C 18.570312 -99.773438 10.917969 -99.386719 6.652344 -95.949219 C 1.054688 -91.515625 -1.496094 -82.535156 -3.269531 -75.992188 C -5.320312 -68.34375 -6.261719 -60.527344 -5.820312 -52.65625 C -5.488281 -46.671875 -4.765625 -38.691406 1.664062 -36.140625 C 8.980469 -33.3125 13.636719 -38.800781 16.351562 -44.84375 C 17.347656 -47.058594 18.238281 -49.386719 18.957031 -51.769531 C 19.511719 -45.730469 21.117188 -39.519531 26.550781 -38.023438 C 35.476562 -35.585938 38.414062 -43.789062 40.796875 -50.496094 C 43.957031 -59.308594 45.730469 -68.675781 46.839844 -77.933594 C 46.894531 -78.433594 44.453125 -78.597656 44.398438 -78.046875 Z M 14.191406 -63.742188 C 13.082031 -59.699219 11.917969 -55.652344 10.476562 -51.714844 C 9.867188 -50.109375 8.257812 -45.398438 6.320312 -42.679688 C 5.652344 -44.453125 5.265625 -46.726562 5.15625 -47.613281 C 4.65625 -50.605469 4.546875 -53.710938 4.546875 -56.761719 C 4.546875 -63.578125 5.542969 -70.449219 7.539062 -76.992188 C 8.425781 -79.984375 9.535156 -82.921875 10.863281 -85.804688 C 11.472656 -87.191406 12.140625 -88.578125 12.859375 -89.851562 C 13.304688 -90.628906 13.746094 -91.457031 14.300781 -92.289062 C 14.632812 -91.847656 15.019531 -91.402344 15.296875 -90.960938 C 16.128906 -89.796875 16.738281 -88.464844 17.460938 -87.246094 C 17.847656 -86.527344 18.179688 -85.804688 18.457031 -85.085938 C 17.292969 -77.933594 16.183594 -70.726562 14.191406 -63.742188 Z M 14.191406 -63.742188 "/></g></g></g><g fill="#000000" fill-opacity="1"><g transform="translate(987.19109, 281.5553)"><g><path d="M 47.28125 -76.546875 C 44.066406 -68.125 40.132812 -61.027344 35.476562 -53.820312 C 34.3125 -51.992188 33.035156 -50.21875 31.707031 -48.5 C 32.09375 -63.742188 32.203125 -78.988281 32.203125 -94.175781 C 32.203125 -97.335938 24.667969 -97.722656 22.449219 -95.394531 C 21.394531 -96.390625 20.066406 -97.222656 18.238281 -97.722656 C 13.46875 -99.054688 7.980469 -97.613281 4.601562 -93.898438 C 0.445312 -89.242188 -0.886719 -81.703125 -2.105469 -75.773438 C -3.492188 -68.457031 -3.933594 -60.972656 -3.269531 -53.546875 C -2.828125 -48.390625 -1.664062 -43.011719 3.992188 -41.40625 C 9.144531 -39.964844 13.96875 -42.070312 16.519531 -46.617188 C 18.511719 -50.164062 20.011719 -54.042969 21.285156 -57.980469 C 21.230469 -54.597656 21.175781 -51.21875 21.117188 -47.835938 C 21.007812 -43.898438 20.953125 -39.964844 20.898438 -35.972656 C 20.230469 -35.199219 19.566406 -34.421875 18.902344 -33.644531 C 13.691406 -27.605469 8.535156 -21.617188 4.046875 -15.078125 C -0.109375 -9.035156 -4.101562 -2.050781 -3.824219 5.542969 C -3.660156 11.195312 -0.554688 16.960938 4.601562 19.675781 C 10.199219 22.617188 18.015625 20.011719 22.0625 15.574219 C 27.050781 10.089844 28.546875 1.882812 29.488281 -5.265625 C 30.597656 -13.96875 30.820312 -22.835938 31.207031 -31.59375 C 31.316406 -35.585938 31.429688 -39.578125 31.539062 -43.566406 C 42.847656 -58.535156 47.613281 -69.34375 49.167969 -76.050781 C 49.277344 -76.492188 47.449219 -76.882812 47.28125 -76.546875 Z M 19.34375 -74.332031 C 18.511719 -69.839844 14.523438 -48.5 7.980469 -45.785156 C 6.597656 -45.617188 5.820312 -50.71875 5.710938 -51.328125 C 4.433594 -59.640625 5.097656 -68.566406 6.816406 -76.769531 C 7.703125 -81.039062 8.8125 -85.972656 11.03125 -89.851562 C 15.132812 -96.945312 19.34375 -88.855469 20.289062 -84.253906 C 20.34375 -83.976562 20.5625 -83.699219 20.839844 -83.53125 C 20.011719 -80.539062 19.898438 -77.324219 19.34375 -74.332031 Z M 18.457031 -1.773438 C 17.570312 3.160156 15.574219 14.078125 9.421875 15.464844 C 5.597656 16.296875 3.160156 11.472656 2.4375 8.371094 C 1.550781 4.65625 2.050781 0.664062 3.160156 -2.9375 C 6.429688 -13.414062 13.636719 -22.003906 20.785156 -30.375 C 20.5625 -20.785156 20.011719 -11.140625 18.457031 -1.773438 Z M 18.457031 -1.773438 "/></g></g></g><g fill="#000000" fill-opacity="1"><g transform="translate(1034.860444, 281.5553)"><g><path d="M -1.550781 -79.152344 C -1.71875 -73.5 -1.941406 -67.847656 -2.105469 -62.246094 C -2.382812 -54.042969 -3.160156 -41.847656 4.210938 -36.195312 C 6.042969 -34.867188 8.148438 -34.144531 10.253906 -34.144531 C 23.226562 -34.144531 27.769531 -59.363281 29.875 -71.28125 C 30.042969 -72.503906 27.714844 -72.722656 27.546875 -71.558594 C 26.21875 -63.632812 20.621094 -38.910156 13.191406 -39.078125 C 10.308594 -39.132812 9.089844 -46.171875 8.757812 -48.222656 C 7.484375 -55.929688 8.3125 -63.964844 8.589844 -71.726562 C 8.703125 -75.660156 9.367188 -86.359375 9.203125 -90.351562 C 9.203125 -90.515625 9.203125 -90.738281 9.203125 -90.90625 C 11.585938 -91.070312 12.582031 -91.570312 12.527344 -92.84375 C 12.472656 -94.5625 8.703125 -95.339844 3.933594 -95.339844 C -0.832031 -95.339844 -4.710938 -95.117188 -4.710938 -92.84375 C -4.710938 -91.402344 -2.882812 -90.847656 -0.941406 -90.792969 C -0.941406 -90.628906 -0.996094 -90.40625 -0.996094 -90.238281 C -0.996094 -87.414062 -1.441406 -81.980469 -1.550781 -79.152344 Z M 13.304688 -104.652344 C 13.304688 -106.8125 9.976562 -108.699219 5.820312 -108.753906 C 1.664062 -108.808594 -1.773438 -107.089844 -1.773438 -104.871094 C -1.828125 -102.65625 1.496094 -100.828125 5.710938 -100.769531 C 9.867188 -100.714844 13.246094 -102.433594 13.304688 -104.652344 Z M 13.304688 -104.652344 "/></g></g></g><g fill="#000000" fill-opacity="1"><g transform="translate(1063.074065, 281.5553)"><g><path d="M 44.398438 -78.046875 C 43.289062 -70.449219 41.40625 -63.132812 38.355469 -56.148438 C 36.917969 -52.824219 35.308594 -49.609375 33.257812 -46.617188 C 32.648438 -45.617188 31.925781 -44.675781 31.152344 -43.734375 C 30.929688 -44.453125 30.707031 -45.230469 30.652344 -46.007812 C 27.660156 -61.25 29.046875 -77.214844 30.210938 -92.621094 C 30.375 -95.0625 26.050781 -95.78125 22.890625 -94.949219 C 22.726562 -95.171875 22.617188 -95.339844 22.449219 -95.503906 C 18.570312 -99.773438 10.917969 -99.386719 6.652344 -95.949219 C 1.054688 -91.515625 -1.496094 -82.535156 -3.269531 -75.992188 C -5.320312 -68.34375 -6.261719 -60.527344 -5.820312 -52.65625 C -5.488281 -46.671875 -4.765625 -38.691406 1.664062 -36.140625 C 8.980469 -33.3125 13.636719 -38.800781 16.351562 -44.84375 C 17.347656 -47.058594 18.238281 -49.386719 18.957031 -51.769531 C 19.511719 -45.730469 21.117188 -39.519531 26.550781 -38.023438 C 35.476562 -35.585938 38.414062 -43.789062 40.796875 -50.496094 C 43.957031 -59.308594 45.730469 -68.675781 46.839844 -77.933594 C 46.894531 -78.433594 44.453125 -78.597656 44.398438 -78.046875 Z M 14.191406 -63.742188 C 13.082031 -59.699219 11.917969 -55.652344 10.476562 -51.714844 C 9.867188 -50.109375 8.257812 -45.398438 6.320312 -42.679688 C 5.652344 -44.453125 5.265625 -46.726562 5.15625 -47.613281 C 4.65625 -50.605469 4.546875 -53.710938 4.546875 -56.761719 C 4.546875 -63.578125 5.542969 -70.449219 7.539062 -76.992188 C 8.425781 -79.984375 9.535156 -82.921875 10.863281 -85.804688 C 11.472656 -87.191406 12.140625 -88.578125 12.859375 -89.851562 C 13.304688 -90.628906 13.746094 -91.457031 14.300781 -92.289062 C 14.632812 -91.847656 15.019531 -91.402344 15.296875 -90.960938 C 16.128906 -89.796875 16.738281 -88.464844 17.460938 -87.246094 C 17.847656 -86.527344 18.179688 -85.804688 18.457031 -85.085938 C 17.292969 -77.933594 16.183594 -70.726562 14.191406 -63.742188 Z M 14.191406 -63.742188 "/></g></g></g></svg>