<svg xmlns="http://www.w3.org/2000/svg" xmlns:xlink="http://www.w3.org/1999/xlink" width="500" zoomAndPan="magnify" viewBox="0 0 375 374.999991" height="500" preserveAspectRatio="xMidYMid meet" version="1.0"><defs><g/><clipPath id="5d25807dd3"><path d="M 2.332031 2.332031 L 372.832031 2.332031 L 372.832031 372.832031 L 2.332031 372.832031 Z M 2.332031 2.332031 " clip-rule="nonzero"/></clipPath><clipPath id="2f09b8032b"><path d="M 109 182 L 184 182 L 184 314 L 109 314 Z M 109 182 " clip-rule="nonzero"/></clipPath><clipPath id="b87256aff2"><path d="M 19.375 147.070312 L 227.894531 19.394531 L 355.570312 227.910156 L 147.050781 355.585938 Z M 19.375 147.070312 " clip-rule="nonzero"/></clipPath><clipPath id="0c7bdd7143"><path d="M 19.375 147.070312 L 227.894531 19.394531 L 355.570312 227.910156 L 147.050781 355.585938 Z M 19.375 147.070312 " clip-rule="nonzero"/></clipPath><clipPath id="639f622812"><path d="M 19.375 147.070312 L 227.894531 19.394531 L 355.570312 227.910156 L 147.050781 355.585938 Z M 19.375 147.070312 " clip-rule="nonzero"/></clipPath><clipPath id="63d55adf22"><path d="M 145 183 L 201 183 L 201 298 L 145 298 Z M 145 183 " clip-rule="nonzero"/></clipPath><clipPath id="ec0a57e504"><path d="M 19.375 147.070312 L 227.894531 19.394531 L 355.570312 227.910156 L 147.050781 355.585938 Z M 19.375 147.070312 " clip-rule="nonzero"/></clipPath><clipPath id="398729dcb6"><path d="M 19.375 147.070312 L 227.894531 19.394531 L 355.570312 227.910156 L 147.050781 355.585938 Z M 19.375 147.070312 " clip-rule="nonzero"/></clipPath><clipPath id="8bc0ee9ba5"><path d="M 19.375 147.070312 L 227.894531 19.394531 L 355.570312 227.910156 L 147.050781 355.585938 Z M 19.375 147.070312 " clip-rule="nonzero"/></clipPath><clipPath id="093c704a8b"><path d="M 130 183 L 183 183 L 183 289 L 130 289 Z M 130 183 " clip-rule="nonzero"/></clipPath><clipPath id="c32be80aa5"><path d="M 19.375 147.070312 L 227.894531 19.394531 L 355.570312 227.910156 L 147.050781 355.585938 Z M 19.375 147.070312 " clip-rule="nonzero"/></clipPath><clipPath id="36b8a92d99"><path d="M 19.375 147.070312 L 227.894531 19.394531 L 355.570312 227.910156 L 147.050781 355.585938 Z M 19.375 147.070312 " clip-rule="nonzero"/></clipPath><clipPath id="cee0442e45"><path d="M 19.375 147.070312 L 227.894531 19.394531 L 355.570312 227.910156 L 147.050781 355.585938 Z M 19.375 147.070312 " clip-rule="nonzero"/></clipPath><clipPath id="f77b5c912b"><path d="M 172 192 L 302 192 L 302 286 L 172 286 Z M 172 192 " clip-rule="nonzero"/></clipPath><clipPath id="3892ce45c6"><path d="M 19.375 147.070312 L 227.894531 19.394531 L 355.570312 227.910156 L 147.050781 355.585938 Z M 19.375 147.070312 " clip-rule="nonzero"/></clipPath><clipPath id="071c49330f"><path d="M 19.375 147.070312 L 227.894531 19.394531 L 355.570312 227.910156 L 147.050781 355.585938 Z M 19.375 147.070312 " clip-rule="nonzero"/></clipPath><clipPath id="cf0b50996c"><path d="M 19.375 147.070312 L 227.894531 19.394531 L 355.570312 227.910156 L 147.050781 355.585938 Z M 19.375 147.070312 " clip-rule="nonzero"/></clipPath><clipPath id="95a46f52ed"><path d="M 178 194 L 292 194 L 292 252 L 178 252 Z M 178 194 " clip-rule="nonzero"/></clipPath><clipPath id="14c6197387"><path d="M 19.375 147.070312 L 227.894531 19.394531 L 355.570312 227.910156 L 147.050781 355.585938 Z M 19.375 147.070312 " clip-rule="nonzero"/></clipPath><clipPath id="e640978c5e"><path d="M 19.375 147.070312 L 227.894531 19.394531 L 355.570312 227.910156 L 147.050781 355.585938 Z M 19.375 147.070312 " clip-rule="nonzero"/></clipPath><clipPath id="b65c358fec"><path d="M 19.375 147.070312 L 227.894531 19.394531 L 355.570312 227.910156 L 147.050781 355.585938 Z M 19.375 147.070312 " clip-rule="nonzero"/></clipPath><clipPath id="a0884a7087"><path d="M 177 194 L 272 194 L 272 263 L 177 263 Z M 177 194 " clip-rule="nonzero"/></clipPath><clipPath id="79e1d7ddd6"><path d="M 19.375 147.070312 L 227.894531 19.394531 L 355.570312 227.910156 L 147.050781 355.585938 Z M 19.375 147.070312 " clip-rule="nonzero"/></clipPath><clipPath id="ea811379d6"><path d="M 19.375 147.070312 L 227.894531 19.394531 L 355.570312 227.910156 L 147.050781 355.585938 Z M 19.375 147.070312 " clip-rule="nonzero"/></clipPath><clipPath id="3df9be9a44"><path d="M 19.375 147.070312 L 227.894531 19.394531 L 355.570312 227.910156 L 147.050781 355.585938 Z M 19.375 147.070312 " clip-rule="nonzero"/></clipPath><clipPath id="bb6288cbae"><path d="M 186 95 L 296 95 L 296 219 L 186 219 Z M 186 95 " clip-rule="nonzero"/></clipPath><clipPath id="d3767eda4a"><path d="M 19.375 147.070312 L 227.894531 19.394531 L 355.570312 227.910156 L 147.050781 355.585938 Z M 19.375 147.070312 " clip-rule="nonzero"/></clipPath><clipPath id="531396f9ad"><path d="M 19.375 147.070312 L 227.894531 19.394531 L 355.570312 227.910156 L 147.050781 355.585938 Z M 19.375 147.070312 " clip-rule="nonzero"/></clipPath><clipPath id="e844176681"><path d="M 19.375 147.070312 L 227.894531 19.394531 L 355.570312 227.910156 L 147.050781 355.585938 Z M 19.375 147.070312 " clip-rule="nonzero"/></clipPath><clipPath id="4c222f3535"><path d="M 187 130 L 273 130 L 273 209 L 187 209 Z M 187 130 " clip-rule="nonzero"/></clipPath><clipPath id="0cac6985ee"><path d="M 19.375 147.070312 L 227.894531 19.394531 L 355.570312 227.910156 L 147.050781 355.585938 Z M 19.375 147.070312 " clip-rule="nonzero"/></clipPath><clipPath id="b08112d0ac"><path d="M 19.375 147.070312 L 227.894531 19.394531 L 355.570312 227.910156 L 147.050781 355.585938 Z M 19.375 147.070312 " clip-rule="nonzero"/></clipPath><clipPath id="7bb6fe229d"><path d="M 19.375 147.070312 L 227.894531 19.394531 L 355.570312 227.910156 L 147.050781 355.585938 Z M 19.375 147.070312 " clip-rule="nonzero"/></clipPath><clipPath id="bc75fc5559"><path d="M 118 73 L 230 73 L 230 196 L 118 196 Z M 118 73 " clip-rule="nonzero"/></clipPath><clipPath id="c698411c66"><path d="M 19.375 147.070312 L 227.894531 19.394531 L 355.570312 227.910156 L 147.050781 355.585938 Z M 19.375 147.070312 " clip-rule="nonzero"/></clipPath><clipPath id="3bf8c399b5"><path d="M 19.375 147.070312 L 227.894531 19.394531 L 355.570312 227.910156 L 147.050781 355.585938 Z M 19.375 147.070312 " clip-rule="nonzero"/></clipPath><clipPath id="5608dcc997"><path d="M 19.375 147.070312 L 227.894531 19.394531 L 355.570312 227.910156 L 147.050781 355.585938 Z M 19.375 147.070312 " clip-rule="nonzero"/></clipPath><clipPath id="d9fb2b5820"><path d="M 154 95 L 216 95 L 216 195 L 154 195 Z M 154 95 " clip-rule="nonzero"/></clipPath><clipPath id="b75b735fd8"><path d="M 19.375 147.070312 L 227.894531 19.394531 L 355.570312 227.910156 L 147.050781 355.585938 Z M 19.375 147.070312 " clip-rule="nonzero"/></clipPath><clipPath id="ac3e9ac45b"><path d="M 19.375 147.070312 L 227.894531 19.394531 L 355.570312 227.910156 L 147.050781 355.585938 Z M 19.375 147.070312 " clip-rule="nonzero"/></clipPath><clipPath id="57be314564"><path d="M 19.375 147.070312 L 227.894531 19.394531 L 355.570312 227.910156 L 147.050781 355.585938 Z M 19.375 147.070312 " clip-rule="nonzero"/></clipPath><clipPath id="2500519405"><path d="M 63 132 L 193 132 L 193 228 L 63 228 Z M 63 132 " clip-rule="nonzero"/></clipPath><clipPath id="100a2e851f"><path d="M 19.375 147.070312 L 227.894531 19.394531 L 355.570312 227.910156 L 147.050781 355.585938 Z M 19.375 147.070312 " clip-rule="nonzero"/></clipPath><clipPath id="70299cf58b"><path d="M 19.375 147.070312 L 227.894531 19.394531 L 355.570312 227.910156 L 147.050781 355.585938 Z M 19.375 147.070312 " clip-rule="nonzero"/></clipPath><clipPath id="9d09feeeeb"><path d="M 19.375 147.070312 L 227.894531 19.394531 L 355.570312 227.910156 L 147.050781 355.585938 Z M 19.375 147.070312 " clip-rule="nonzero"/></clipPath><clipPath id="0f94f857a0"><path d="M 84 150 L 192 150 L 192 194 L 84 194 Z M 84 150 " clip-rule="nonzero"/></clipPath><clipPath id="c55fbd37fb"><path d="M 19.375 147.070312 L 227.894531 19.394531 L 355.570312 227.910156 L 147.050781 355.585938 Z M 19.375 147.070312 " clip-rule="nonzero"/></clipPath><clipPath id="b3b19482df"><path d="M 19.375 147.070312 L 227.894531 19.394531 L 355.570312 227.910156 L 147.050781 355.585938 Z M 19.375 147.070312 " clip-rule="nonzero"/></clipPath><clipPath id="074b918549"><path d="M 19.375 147.070312 L 227.894531 19.394531 L 355.570312 227.910156 L 147.050781 355.585938 Z M 19.375 147.070312 " clip-rule="nonzero"/></clipPath><clipPath id="f7cfc87d95"><path d="M 82 167 L 192 167 L 192 239 L 82 239 Z M 82 167 " clip-rule="nonzero"/></clipPath><clipPath id="9c4c0e04b3"><path d="M 19.375 147.070312 L 227.894531 19.394531 L 355.570312 227.910156 L 147.050781 355.585938 Z M 19.375 147.070312 " clip-rule="nonzero"/></clipPath><clipPath id="de569bd3b9"><path d="M 19.375 147.070312 L 227.894531 19.394531 L 355.570312 227.910156 L 147.050781 355.585938 Z M 19.375 147.070312 " clip-rule="nonzero"/></clipPath><clipPath id="8821c13711"><path d="M 19.375 147.070312 L 227.894531 19.394531 L 355.570312 227.910156 L 147.050781 355.585938 Z M 19.375 147.070312 " clip-rule="nonzero"/></clipPath><clipPath id="143fbfa572"><path d="M 114 95 L 201 95 L 201 195 L 114 195 Z M 114 95 " clip-rule="nonzero"/></clipPath><clipPath id="7822beb2e1"><path d="M 19.375 147.070312 L 227.894531 19.394531 L 355.570312 227.910156 L 147.050781 355.585938 Z M 19.375 147.070312 " clip-rule="nonzero"/></clipPath><clipPath id="bd3d5a1034"><path d="M 19.375 147.070312 L 227.894531 19.394531 L 355.570312 227.910156 L 147.050781 355.585938 Z M 19.375 147.070312 " clip-rule="nonzero"/></clipPath><clipPath id="13171ef140"><path d="M 19.375 147.070312 L 227.894531 19.394531 L 355.570312 227.910156 L 147.050781 355.585938 Z M 19.375 147.070312 " clip-rule="nonzero"/></clipPath><clipPath id="fe72d83f78"><path d="M 187 98 L 270 98 L 270 202 L 187 202 Z M 187 98 " clip-rule="nonzero"/></clipPath><clipPath id="722aea3fdb"><path d="M 19.375 147.070312 L 227.894531 19.394531 L 355.570312 227.910156 L 147.050781 355.585938 Z M 19.375 147.070312 " clip-rule="nonzero"/></clipPath><clipPath id="1fd6e45953"><path d="M 19.375 147.070312 L 227.894531 19.394531 L 355.570312 227.910156 L 147.050781 355.585938 Z M 19.375 147.070312 " clip-rule="nonzero"/></clipPath><clipPath id="b6c9708ef9"><path d="M 19.375 147.070312 L 227.894531 19.394531 L 355.570312 227.910156 L 147.050781 355.585938 Z M 19.375 147.070312 " clip-rule="nonzero"/></clipPath><clipPath id="8f6be71593"><path d="M 182.039062 185.25 L 194.460938 185.25 L 194.460938 197.675781 L 182.039062 197.675781 Z M 182.039062 185.25 " clip-rule="nonzero"/></clipPath><clipPath id="ab3b0f7775"><path d="M 188.25 185.25 C 184.820312 185.25 182.039062 188.03125 182.039062 191.460938 C 182.039062 194.894531 184.820312 197.675781 188.25 197.675781 C 191.679688 197.675781 194.460938 194.894531 194.460938 191.460938 C 194.460938 188.03125 191.679688 185.25 188.25 185.25 " clip-rule="nonzero"/></clipPath></defs><g clip-path="url(#5d25807dd3)"><path fill="#61334b" d="M 187.582031 372.832031 C 85.46875 372.832031 2.332031 289.699219 2.332031 187.582031 C 2.332031 85.46875 85.46875 2.332031 187.582031 2.332031 C 289.699219 2.332031 372.832031 85.46875 372.832031 187.582031 C 372.832031 289.699219 289.699219 372.832031 187.582031 372.832031 Z M 187.582031 5.070312 C 86.929688 5.070312 5.070312 86.929688 5.070312 187.582031 C 5.070312 288.238281 86.929688 370.097656 187.582031 370.097656 C 288.238281 370.097656 370.097656 288.238281 370.097656 187.582031 C 370.097656 86.929688 288.238281 5.070312 187.582031 5.070312 Z M 187.582031 5.070312 " fill-opacity="1" fill-rule="nonzero"/></g><g clip-path="url(#2f09b8032b)"><g clip-path="url(#b87256aff2)"><g clip-path="url(#0c7bdd7143)"><g clip-path="url(#639f622812)"><path fill="#80ccf3" d="M 183.800781 183.527344 C 169.203125 181.378906 153.921875 184.046875 140.371094 192.34375 C 109.71875 211.113281 100.070312 251.234375 118.839844 281.886719 C 132.671875 304.472656 158.097656 315.566406 182.460938 312.59375 C 172 307.054688 162.953125 298.835938 156.050781 288.34375 C 149.386719 284.015625 143.445312 277.902344 138.890625 270.464844 C 121.945312 243.570312 130.675781 208.507812 157.503906 192.078125 C 165.21875 187.355469 173.847656 184.746094 182.617188 183.773438 C 181.992188 184.15625 182.203125 184.503906 181.507812 184.929688 C 182.203125 184.503906 182.828125 184.121094 183.800781 183.527344 Z M 183.800781 183.527344 " fill-opacity="1" fill-rule="evenodd"/></g></g></g></g><g clip-path="url(#63d55adf22)"><g clip-path="url(#ec0a57e504)"><g clip-path="url(#398729dcb6)"><g clip-path="url(#8bc0ee9ba5)"><path fill="#00a4dd" d="M 182.660156 183.84375 C 182.035156 184.226562 182.246094 184.574219 181.550781 185 C 147.542969 209.835938 135.847656 253.789062 155.113281 286.8125 L 155.710938 287.789062 C 168.519531 296.378906 184.859375 299.183594 200.035156 295.71875 C 189.847656 290.011719 180.9375 281.226562 174.425781 270.59375 C 157.539062 242.707031 161.597656 207.347656 182.660156 183.84375 Z M 155.351562 287.050781 C 155.351562 287.050781 155.566406 287.398438 155.734375 287.675781 C 155.734375 287.675781 155.734375 287.675781 155.949219 288.023438 Z M 155.351562 287.050781 " fill-opacity="1" fill-rule="evenodd"/></g></g></g></g><g clip-path="url(#093c704a8b)"><g clip-path="url(#c32be80aa5)"><g clip-path="url(#36b8a92d99)"><g clip-path="url(#cee0442e45)"><path fill="#0075b8" d="M 182.660156 183.84375 C 174.238281 184.605469 165.609375 187.210938 157.546875 192.148438 C 130.785156 208.535156 122.058594 243.597656 138.65625 270.707031 C 143.210938 278.144531 148.9375 283.90625 155.8125 288.582031 C 155.8125 288.582031 155.601562 288.234375 155.429688 287.957031 C 135.257812 255.011719 147.089844 210.5 181.484375 185.519531 C 181.855469 184.71875 182.203125 184.503906 182.660156 183.84375 Z M 182.660156 183.84375 " fill-opacity="1" fill-rule="evenodd"/></g></g></g></g><g clip-path="url(#f77b5c912b)"><g clip-path="url(#3892ce45c6)"><g clip-path="url(#071c49330f)"><g clip-path="url(#cf0b50996c)"><path fill="#ab85b4" d="M 178.507812 192.980469 C 172.320312 206.132812 170.492188 221.875 174.683594 237.464844 C 184 272.183594 219.730469 292.929688 253.890625 283.480469 C 279.464844 276.707031 297.222656 255.609375 301.179688 231.015625 C 292.746094 239.714844 282.390625 246.054688 270.316406 249.433594 C 264.101562 254.578125 256.796875 258.574219 248.070312 260.859375 C 218.566406 269.175781 187.441406 250.964844 179.324219 220.382812 C 177.066406 211.542969 176.761719 202.460938 178.78125 194.054688 C 179.164062 194.679688 179.378906 195.027344 179.589844 195.375 C 179.484375 194.578125 179.101562 193.953125 178.507812 192.980469 Z M 178.507812 192.980469 " fill-opacity="1" fill-rule="evenodd"/></g></g></g></g><g clip-path="url(#95a46f52ed)"><g clip-path="url(#14c6197387)"><g clip-path="url(#e640978c5e)"><g clip-path="url(#b65c358fec)"><path fill="#743b8d" d="M 178.824219 194.125 C 179.207031 194.75 179.417969 195.097656 179.632812 195.445312 C 181.425781 200.558594 183.78125 205.808594 186.546875 210.324219 L 189.3125 214.84375 C 207.515625 243.164062 239.570312 257.75 270.429688 249.460938 C 270.429688 249.460938 270.777344 249.25 271.054688 249.078125 C 283.070312 239.046875 290.191406 224.460938 291.011719 208.476562 C 282.40625 216.898438 271.839844 222.890625 259.550781 225.921875 C 228.167969 234.914062 195.25 220.953125 178.824219 194.125 Z M 271.15625 249.398438 C 270.53125 249.78125 269.554688 250.378906 269.074219 251.152344 C 269.769531 250.726562 270.25 249.953125 271.15625 249.398438 Z M 271.15625 249.398438 " fill-opacity="1" fill-rule="evenodd"/></g></g></g></g><g clip-path="url(#a0884a7087)"><g clip-path="url(#79e1d7ddd6)"><g clip-path="url(#ea811379d6)"><g clip-path="url(#3df9be9a44)"><path fill="#372c65" d="M 178.824219 194.125 C 177.320312 202.59375 177.457031 211.398438 179.367188 220.453125 C 187.273438 250.6875 218.675781 268.726562 248.90625 260.824219 C 257.402344 258.777344 264.660156 254.714844 271.15625 249.398438 C 271.15625 249.398438 270.808594 249.613281 270.53125 249.78125 C 233.160156 259.765625 194.113281 235.792969 179.734375 195.765625 C 179.417969 195.097656 179.207031 194.75 178.824219 194.125 Z M 178.824219 194.125 " fill-opacity="1" fill-rule="evenodd"/></g></g></g></g><g clip-path="url(#bb6288cbae)"><g clip-path="url(#d3767eda4a)"><g clip-path="url(#531396f9ad)"><g clip-path="url(#e844176681)"><path fill="#ef9bbe" d="M 186.332031 200.613281 C 197.019531 210.886719 211.527344 217.101562 227.277344 218.164062 C 263.121094 220.203125 293.492188 192.238281 295.535156 156.394531 C 297.011719 129.785156 282.410156 106.710938 260.363281 95.363281 C 265.863281 105.757812 268.726562 117.765625 268.277344 129.984375 C 271.128906 137.605469 273.03125 145.710938 272.605469 154.378906 C 270.726562 186.113281 244.0625 209.988281 212.890625 208.242188 C 203.660156 207.683594 194.941406 204.992188 187.480469 200.769531 C 187.828125 200.558594 188.320312 200.734375 189.011719 200.308594 C 188.179688 200.820312 187.382812 200.925781 186.332031 200.613281 Z M 186.332031 200.613281 " fill-opacity="1" fill-rule="evenodd"/></g></g></g></g><g clip-path="url(#4c222f3535)"><g clip-path="url(#0cac6985ee)"><g clip-path="url(#b08112d0ac)"><g clip-path="url(#7bb6fe229d)"><path fill="#c32b75" d="M 187.554688 201.203125 C 195.058594 205.496094 203.734375 208.117188 212.960938 208.675781 C 244.203125 210.378906 270.976562 186.054688 272.679688 154.8125 C 273.105469 146.144531 271.574219 137.714844 268.351562 130.417969 C 268.351562 130.417969 268.5625 130.765625 268.214844 130.980469 C 266.117188 169.535156 231.292969 199.746094 188.949219 200.828125 C 188.738281 200.953125 188.113281 201.335938 187.554688 201.203125 Z M 187.554688 201.203125 " fill-opacity="1" fill-rule="evenodd"/></g></g></g></g><g clip-path="url(#bc75fc5559)"><g clip-path="url(#c698411c66)"><g clip-path="url(#3bf8c399b5)"><g clip-path="url(#5608dcc997)"><path fill="#f2af89" d="M 195.582031 195.425781 C 208.542969 188.347656 219.300781 176.890625 224.785156 161.96875 C 238.042969 128.523438 221.585938 90.722656 188.011719 78.027344 C 163.390625 68.253906 136.25 74.648438 118.863281 91.984375 C 130.628906 90.128906 142.714844 91.140625 154.464844 95.03125 C 162.539062 94.484375 170.796875 95.640625 179.101562 99.058594 C 208.25 110.453125 222.675781 143.382812 211.425781 172.921875 C 208.289062 181.53125 202.941406 188.722656 196.3125 194.597656 C 196.449219 194.035156 196.558594 193.585938 196.132812 192.890625 C 195.957031 193.859375 195.644531 194.910156 195.582031 195.425781 Z M 195.582031 195.425781 " fill-opacity="1" fill-rule="evenodd"/></g></g></g></g><g clip-path="url(#d9fb2b5820)"><g clip-path="url(#b75b735fd8)"><g clip-path="url(#ac3e9ac45b)"><g clip-path="url(#57be314564)"><path fill="#cf2d1e" d="M 195.992188 194.695312 C 202.621094 188.820312 207.621094 181.84375 211.105469 173.019531 C 222.5 143.871094 208.140625 110.902344 178.78125 99.160156 C 170.6875 96.089844 162.261719 94.652344 154.144531 95.132812 C 154.144531 95.132812 154.355469 95.480469 154.875 95.546875 C 190.894531 109.421875 208.132812 152.09375 196.226562 192.738281 C 196.238281 193.6875 196.449219 194.035156 195.992188 194.695312 Z M 195.992188 194.695312 " fill-opacity="1" fill-rule="evenodd"/></g></g></g></g><g clip-path="url(#2500519405)"><g clip-path="url(#100a2e851f)"><g clip-path="url(#70299cf58b)"><g clip-path="url(#9d09feeeeb)"><path fill="#afcf95" d="M 192.40625 184.46875 C 189.257812 169.960938 181.519531 156.542969 169.085938 146.378906 C 141.152344 124.015625 100.417969 128.503906 77.707031 156.652344 C 61.207031 177.460938 59.269531 204.734375 70.738281 227.050781 C 72.265625 215.03125 76.929688 203.761719 84.769531 194.089844 C 86.652344 186.246094 90.429688 178.675781 95.554688 171.910156 C 115.183594 147.464844 150.902344 143.371094 175.34375 163 C 182.46875 168.863281 188.164062 175.980469 191.746094 184.015625 C 191.1875 183.878906 190.738281 183.769531 190.3125 183.078125 C 190.804688 183.253906 191.675781 184.054688 192.40625 184.46875 Z M 192.40625 184.46875 " fill-opacity="1" fill-rule="evenodd"/></g></g></g></g><g clip-path="url(#0f94f857a0)"><g clip-path="url(#c55fbd37fb)"><g clip-path="url(#b3b19482df)"><g clip-path="url(#074b918549)"><path fill="#196733" d="M 191.8125 183.496094 C 187.882812 175.675781 182.703125 168.621094 175.410156 162.480469 C 150.964844 142.851562 115.316406 146.90625 95.34375 171.5625 C 90.105469 178.304688 86.371094 185.941406 84.554688 193.742188 C 84.554688 193.742188 84.902344 193.53125 85.179688 193.359375 C 109.242188 163.050781 155.09375 158.960938 190.421875 182.628906 C 190.804688 183.253906 191.015625 183.601562 191.8125 183.496094 Z M 191.8125 183.496094 " fill-opacity="1" fill-rule="evenodd"/></g></g></g></g><g clip-path="url(#f7cfc87d95)"><g clip-path="url(#9c4c0e04b3)"><g clip-path="url(#de569bd3b9)"><g clip-path="url(#8821c13711)"><path fill="#3aa438" d="M 188.851562 182.25 C 189.859375 182.492188 190.632812 182.976562 191.363281 183.386719 C 190.804688 183.253906 190.355469 183.144531 189.929688 182.449219 C 154.816406 159.128906 109.589844 162.835938 85.144531 192.519531 L 84.796875 192.734375 C 84.796875 192.734375 84.796875 192.734375 84.449219 192.945312 C 84.449219 192.945312 84.449219 192.945312 84.101562 193.160156 C 80.464844 208.289062 83.195312 224.296875 91.839844 237.636719 L 92.222656 238.261719 C 93.414062 230.84375 96.289062 223.828125 99.609375 216.921875 C 101.613281 213.019531 104.25 209.207031 106.984375 205.714844 C 127.550781 179.839844 162.171875 171.921875 191.320312 183.320312 C 190.761719 183.183594 190.3125 183.078125 189.886719 182.382812 C 189.726562 183.054688 189.300781 182.359375 188.851562 182.25 Z M 188.851562 182.25 " fill-opacity="1" fill-rule="evenodd"/></g></g></g></g><g clip-path="url(#143fbfa572)"><g clip-path="url(#7822beb2e1)"><g clip-path="url(#bd3d5a1034)"><g clip-path="url(#13171ef140)"><path fill="#e64e23" d="M 196.238281 193.6875 C 196.238281 193.6875 196.371094 193.128906 196.199219 192.847656 C 196.371094 193.128906 196.023438 193.339844 196.238281 193.6875 Z M 162.832031 99.179688 C 162.269531 99.042969 162.101562 98.765625 161.609375 98.585938 C 161.609375 98.585938 161.050781 98.453125 160.878906 98.175781 C 159.445312 97.238281 157.707031 96.582031 155.925781 95.855469 C 155.925781 95.855469 155.363281 95.722656 155.195312 95.445312 C 155.542969 95.230469 156.03125 95.410156 156.03125 95.410156 C 156.378906 95.195312 156.871094 95.375 157.390625 95.4375 C 157.042969 95.652344 156.378906 95.195312 156.03125 95.410156 C 155.683594 95.621094 155.195312 95.445312 154.675781 95.378906 C 139.324219 96.371094 124.335938 103.730469 114.453125 115.996094 C 114.453125 115.996094 114.453125 115.996094 114.800781 115.78125 C 125.59375 114.523438 136.839844 115.570312 148.070312 119.398438 C 148.800781 119.808594 149.640625 119.773438 150.371094 120.1875 C 180.953125 132.519531 199.273438 163.0625 196.660156 194.382812 C 196.796875 193.824219 196.90625 193.375 196.691406 193.027344 C 196.691406 193.027344 196.828125 192.464844 196.933594 192.019531 C 196.933594 192.019531 196.800781 192.578125 196.96875 192.855469 C 199.3125 184.351562 200.816406 175.882812 200.785156 167.871094 C 200.871094 152.71875 197.203125 138.144531 190.019531 125.628906 L 188.0625 122.433594 C 181.265625 112.738281 172.777344 104.652344 162.832031 99.179688 Z M 162.832031 99.179688 " fill-opacity="1" fill-rule="evenodd"/></g></g></g></g><g clip-path="url(#fe72d83f78)"><g clip-path="url(#722aea3fdb)"><g clip-path="url(#1fd6e45953)"><g clip-path="url(#b6c9708ef9)"><path fill="#e6007e" d="M 188.738281 200.953125 C 188.390625 201.167969 187.902344 200.988281 187.554688 201.203125 C 187.902344 200.988281 188.390625 201.167969 188.738281 200.953125 Z M 236.140625 98.726562 C 236.140625 98.726562 236.3125 99.003906 236.140625 98.726562 C 236.3125 99.003906 236.140625 98.726562 236.140625 98.726562 C 240.949219 109.546875 243.878906 121.511719 243.082031 133.945312 C 242.394531 145.929688 239.15625 157.183594 233.164062 167.0625 L 232.816406 167.277344 C 232.679688 167.835938 232.402344 168.007812 231.878906 168.710938 C 231.53125 168.921875 231.464844 169.441406 230.941406 170.144531 C 230.941406 170.144531 230.59375 170.359375 230.527344 170.875 C 220.585938 185.851562 205.226562 196.976562 187.136719 201.457031 C 187.484375 201.246094 187.976562 201.421875 188.324219 201.210938 L 188.671875 200.996094 C 223.074219 199.902344 252.292969 180.199219 263.445312 152.058594 C 263.578125 151.5 263.6875 151.050781 264.035156 150.835938 C 266.246094 145.085938 267.542969 138.464844 268.042969 131.945312 C 268.042969 131.945312 268.179688 131.386719 268.007812 131.105469 C 268.21875 131.453125 268.390625 131.730469 268.605469 132.078125 C 268.988281 132.707031 268.988281 132.707031 269.414062 133.402344 C 269.199219 133.054688 269.027344 132.773438 268.605469 132.078125 C 268.390625 131.730469 268.21875 131.453125 268.007812 131.105469 C 268.007812 131.105469 268.007812 131.105469 267.792969 130.757812 C 262.628906 115.765625 251.0625 104.210938 236.140625 98.726562 Z M 236.140625 98.726562 " fill-opacity="1" fill-rule="evenodd"/></g></g></g></g><g fill="#262728" fill-opacity="1"><g transform="translate(53.430304, 163.157632)"><g><path d="M 9.203125 -19.828125 C 13.222656 -29.164062 9.648438 -36.402344 0.535156 -40.328125 L -14.78125 -46.925781 C -16.90625 -47.839844 -17.125 -49.789062 -16.378906 -52.449219 L -18.222656 -53.242188 L -23.085938 -41.953125 L -21.242188 -41.15625 C -19.824219 -43.527344 -18.253906 -44.707031 -16.128906 -43.792969 L -1.820312 -37.628906 C 6.957031 -33.851562 8.503906 -28.214844 6.289062 -23.070312 C 3.980469 -17.703125 -1.226562 -15.769531 -10.003906 -19.550781 L -23.980469 -25.570312 C -26.101562 -26.484375 -26.421875 -28.210938 -25.671875 -30.871094 L -27.515625 -31.664062 L -34.113281 -16.347656 L -32.269531 -15.554688 C -30.851562 -17.925781 -29.378906 -18.882812 -27.253906 -17.964844 L -12.496094 -11.609375 C -1.816406 -7.011719 5.519531 -11.273438 9.203125 -19.828125 Z M 9.203125 -19.828125 "/></g></g></g><g fill="#262728" fill-opacity="1"><g transform="translate(68.449749, 126.904714)"><g><path d="M -10.640625 -46.457031 L -9.089844 -45.179688 C -7.066406 -47.058594 -5.382812 -47.5625 -3.601562 -46.089844 L 11.507812 -33.605469 L -21.574219 -33.226562 L -27.972656 -25.488281 L -26.421875 -24.207031 C -24.398438 -26.085938 -22.714844 -26.589844 -20.933594 -25.117188 L -0.523438 -8.25 C 1.257812 -6.777344 1.078125 -5.03125 -0.386719 -2.6875 L 1.164062 -1.40625 L 8.800781 -10.648438 L 7.253906 -11.929688 C 5.226562 -10.050781 3.546875 -9.546875 1.761719 -11.019531 L -15.691406 -25.445312 L 21.367188 -25.851562 L 23.460938 -28.382812 L -1.3125 -48.859375 C -3.09375 -50.332031 -2.914062 -52.078125 -1.453125 -54.421875 L -3 -55.703125 Z M -10.640625 -46.457031 "/></g></g></g><g fill="#262728" fill-opacity="1"><g transform="translate(95.371436, 96.312087)"><g/></g></g><g fill="#262728" fill-opacity="1"><g transform="translate(101.649603, 89.29917)"><g><path d="M 8.625 -5.027344 L 25.136719 -14.648438 L 24.125 -16.386719 C 20.523438 -14.707031 18.769531 -14.816406 17.605469 -16.8125 L 4.609375 -39.109375 C 3.078125 -41.738281 3.328125 -42.519531 6.640625 -44.449219 C 10.324219 -46.59375 12.277344 -45.902344 16.253906 -42.582031 L 18.042969 -43.625 L 12.269531 -51.109375 L 9.363281 -49.207031 L -13.667969 -35.78125 L -16.757812 -34.195312 L -13.089844 -25.480469 L -11.300781 -26.523438 C -12.230469 -31.621094 -11.867188 -33.660156 -8.1875 -35.808594 C -4.875 -37.738281 -4.074219 -37.570312 -2.539062 -34.941406 L 10.453125 -12.644531 C 11.617188 -10.644531 10.847656 -9.070312 7.613281 -6.761719 Z M 8.625 -5.027344 "/></g></g></g><g fill="#262728" fill-opacity="1"><g transform="translate(131.763475, 70.788027)"><g><path d="M 20.832031 -4.785156 C 31.492188 -7.554688 38.664062 -17.46875 35.558594 -29.425781 C 32.558594 -40.972656 21.707031 -45.699219 11.808594 -43.128906 C 1.148438 -40.359375 -6.023438 -30.445312 -2.949219 -18.601562 C 0.0820312 -6.9375 10.933594 -2.210938 20.832031 -4.785156 Z M 21.9375 -8.027344 C 15.339844 -6.3125 7.972656 -12.886719 5.109375 -23.902344 C 2.519531 -33.859375 6.226562 -38.722656 10.703125 -39.886719 C 17.300781 -41.597656 24.667969 -35.023438 27.5 -24.125 C 30.117188 -14.050781 26.414062 -9.191406 21.9375 -8.027344 Z M 21.9375 -8.027344 "/></g></g></g><g fill="#262728" fill-opacity="1"><g transform="translate(169.938686, 60.260465)"><g><path d="M 38.183594 0.00390625 C 35.933594 -0.0703125 34.597656 1.589844 34.53125 3.660156 C 34.425781 6.761719 34.226562 10.894531 28.488281 5.769531 L 23.527344 1.277344 C 33.59375 0.644531 42.0625 -6.625 42.449219 -18.121094 C 42.847656 -30.042969 33.789062 -37.65625 23.566406 -38 C 12.558594 -38.371094 2.867188 -30.902344 2.457031 -18.675781 C 2.238281 -12.226562 4.746094 -7.085938 8.648438 -3.605469 C 5.757812 -2.851562 3.449219 -1.101562 3.355469 1.636719 C 3.28125 3.824219 4.6875 5.457031 6.816406 5.527344 C 8.703125 5.589844 10.386719 4.429688 10.457031 2.300781 C 10.535156 0.0507812 12.253906 -2.144531 15.5625 0.890625 L 22.652344 7.339844 C 25.429688 9.867188 28.679688 10.953125 31.84375 11.058594 C 37.378906 11.246094 41.5625 8.21875 41.699219 4.203125 C 41.773438 1.953125 40.558594 0.0859375 38.183594 0.00390625 Z M 21.585938 -35.207031 C 28.398438 -34.976562 33.597656 -26.578125 33.21875 -15.324219 C 32.871094 -4.921875 27.9375 -1.3125 23.3125 -1.46875 C 16.5 -1.699219 11.300781 -10.09375 11.683594 -21.46875 C 12.03125 -31.75 16.960938 -35.359375 21.585938 -35.207031 Z M 21.585938 -35.207031 "/></g></g></g><g fill="#262728" fill-opacity="1"><g transform="translate(209.550818, 61.041531)"><g><path d="M 20.550781 7.453125 C 30.199219 10.652344 37.101562 6.464844 40.222656 -2.953125 L 45.472656 -18.78125 C 46.199219 -20.976562 48.125 -21.363281 50.839844 -20.851562 L 51.46875 -22.757812 L 39.800781 -26.625 L 39.167969 -24.71875 C 41.652344 -23.511719 42.964844 -22.050781 42.234375 -19.855469 L 37.332031 -5.0625 C 34.324219 4.007812 28.84375 6.035156 23.527344 4.273438 C 17.980469 2.433594 15.605469 -2.585938 18.613281 -11.65625 L 23.402344 -26.097656 C 24.128906 -28.292969 25.824219 -28.757812 28.539062 -28.242188 L 29.167969 -30.148438 L 13.339844 -35.398438 L 12.707031 -33.492188 C 15.191406 -32.285156 16.273438 -30.898438 15.542969 -28.703125 L 10.488281 -13.453125 C 6.828125 -2.417969 11.710938 4.523438 20.550781 7.453125 Z M 20.550781 7.453125 "/></g></g></g><g fill="#262728" fill-opacity="1"><g transform="translate(247.114095, 73.470471)"><g><path d="M 1.523438 1.007812 L 26.921875 17.769531 C 27.378906 18.074219 27.851562 18.019531 28.207031 17.597656 C 30.253906 15.15625 31.953125 13.578125 33.6875 12.609375 L 32.515625 11.835938 L 30.089844 12.859375 C 28.070312 13.714844 26.078125 13.859375 22.640625 11.664062 L 16.96875 7.992188 C 14.378906 6.28125 13.949219 4.832031 15.191406 2.953125 L 19.953125 -4.261719 C 21.226562 -6.191406 22.746094 -6.28125 24.929688 -4.839844 L 28.230469 -2.660156 C 31.9375 -0.214844 31.878906 1.421875 30.675781 4.128906 L 31.640625 4.765625 L 37.910156 -4.730469 L 36.945312 -5.367188 C 34.863281 -3.097656 33.449219 -2.5 29.738281 -4.949219 L 26.4375 -7.128906 C 24.253906 -8.570312 23.738281 -10 25.015625 -11.933594 L 29.472656 -18.6875 C 30.746094 -20.617188 32.265625 -20.710938 34.449219 -19.269531 L 39.683594 -15.8125 C 42.882812 -13.703125 43.585938 -11.121094 43.101562 -7.070312 L 44.269531 -6.296875 C 45.683594 -10.101562 46.539062 -11.726562 47.324219 -13.25 C 47.542969 -13.691406 47.441406 -13.976562 46.984375 -14.277344 L 22.347656 -30.539062 L 21.238281 -28.863281 C 23.324219 -27.050781 24.007812 -25.433594 22.734375 -23.503906 L 8.148438 -1.40625 C 6.875 0.527344 5.117188 0.535156 2.628906 -0.671875 Z M 1.523438 1.007812 "/></g></g></g><g fill="#262728" fill-opacity="1"><g transform="translate(275.531835, 93.295843)"><g/></g></g><g fill="#262728" fill-opacity="1"><g transform="translate(283.320232, 98.316053)"><g><path d="M 1.097656 1.457031 C 2.914062 3.367188 4.527344 5.203125 6.0625 7.246094 C 8.039062 9.871094 10.566406 13.832031 12.066406 15.828125 C 16.570312 21.808594 26.691406 29.886719 39.382812 20.332031 C 49.980469 12.347656 49.160156 2.453125 41.398438 -7.855469 L 31.296875 -21.273438 L 29.691406 -20.066406 C 31.046875 -17.660156 31.148438 -15.90625 29.300781 -14.515625 L 8.148438 1.410156 C 6.296875 2.800781 4.640625 2.21875 2.703125 0.25 Z M 13.316406 13.4375 C 12.035156 11.738281 11.035156 9.597656 13.125 8.023438 L 34.277344 -7.902344 C 36.125 -9.292969 37.585938 -8.871094 39.160156 -6.777344 L 39.671875 -6.097656 C 44.214844 -0.0703125 42.132812 6.984375 33.964844 13.132812 C 26.570312 18.699219 18.515625 20.34375 13.316406 13.4375 Z M 13.316406 13.4375 "/></g></g></g><g fill="#262728" fill-opacity="1"><g transform="translate(306.698646, 129.248402)"><g><path d="M 0.683594 1.691406 L 12.109375 29.902344 C 12.3125 30.410156 12.734375 30.632812 13.261719 30.484375 C 16.335938 29.632812 18.628906 29.296875 20.605469 29.480469 L 20.082031 28.183594 L 17.5 27.652344 C 15.351562 27.207031 13.628906 26.199219 12.042969 22.441406 L 9.449219 16.203125 C 8.285156 13.324219 8.753906 11.886719 10.839844 11.042969 L 18.851562 7.796875 C 20.996094 6.929688 22.300781 7.714844 23.28125 10.140625 L 24.765625 13.808594 C 26.433594 17.925781 25.457031 19.242188 22.929688 20.789062 L 23.363281 21.863281 L 33.914062 17.589844 L 33.480469 16.519531 C 30.476562 17.207031 28.972656 16.898438 27.304688 12.78125 L 25.820312 9.113281 C 24.835938 6.6875 25.226562 5.214844 27.371094 4.347656 L 34.875 1.308594 C 37.019531 0.441406 38.320312 1.226562 39.304688 3.652344 L 41.65625 9.464844 C 43.097656 13.019531 42.214844 15.542969 39.515625 18.605469 L 40.039062 19.902344 C 43.363281 17.570312 44.988281 16.71875 46.5 15.910156 C 46.925781 15.667969 47.003906 15.375 46.800781 14.867188 L 35.71875 -12.496094 L 33.859375 -11.742188 C 34.546875 -9.066406 34.191406 -7.34375 32.050781 -6.476562 L 7.507812 3.460938 C 5.363281 4.328125 3.914062 3.339844 2.546875 0.9375 Z M 0.683594 1.691406 "/></g></g></g><g fill="#262728" fill-opacity="1"><g transform="translate(77.575912, 322.599574)"><g><path d="M 62.054688 -6.902344 L 63.019531 -8.664062 L 52.0625 -14.648438 L 29.816406 1.4375 L 30.6875 -26.328125 L 19.730469 -32.3125 L 18.769531 -30.546875 C 20.996094 -28.914062 21.8125 -27.359375 20.703125 -25.328125 L 8.003906 -2.078125 C 6.894531 -0.0507812 5.148438 0.105469 2.566406 -0.886719 L 1.601562 0.875 L 12.183594 6.65625 L 13.148438 4.890625 C 10.917969 3.257812 10.050781 1.671875 11.160156 -0.359375 L 23.039062 -22.109375 L 22.054688 8.023438 L 24.191406 9.191406 L 48.648438 -8.398438 L 36.648438 13.566406 C 35.539062 15.597656 33.792969 15.753906 31.210938 14.757812 L 30.246094 16.523438 L 44.890625 24.523438 L 45.855469 22.757812 C 43.625 21.125 42.808594 19.566406 43.917969 17.539062 L 56.617188 -5.710938 C 57.726562 -7.742188 59.476562 -7.894531 62.054688 -6.902344 Z M 62.054688 -6.902344 "/></g></g></g><g fill="#262728" fill-opacity="1"><g transform="translate(133.056192, 350.437864)"><g><path d="M 38.125 -2.300781 L 30.492188 -33.292969 L 25.921875 -33.695312 C 25.714844 -32.558594 25.03125 -30.515625 23.339844 -28.039062 L 8.570312 -6.230469 C 6.621094 -3.367188 5.035156 -1.800781 1.558594 -1.757812 L 1.199219 0.21875 L 14.496094 2.65625 L 14.855469 0.679688 C 11.121094 -0.5625 9.992188 -2.503906 11.777344 -5.148438 L 12.722656 -6.585938 C 13.761719 -7.878906 14.847656 -8.050781 16.464844 -7.753906 L 26.347656 -5.945312 C 27.84375 -5.671875 28.796875 -5.125 29.347656 -3.722656 L 29.921875 -1.453125 C 30.597656 1.273438 30.289062 2.949219 26.597656 2.828125 L 26.234375 4.804688 L 42.226562 7.734375 L 42.578125 5.820312 C 39.644531 4.601562 39.335938 2.5625 38.125 -2.300781 Z M 26.722656 -8.664062 L 16.957031 -10.449219 C 16.359375 -10.5625 15.828125 -11.03125 16.28125 -11.8125 L 23.59375 -22.667969 C 24.199219 -23.609375 24.496094 -23.554688 24.730469 -22.460938 L 27.8125 -9.886719 C 28.054688 -8.851562 27.378906 -8.542969 26.722656 -8.664062 Z M 12.464844 -6.199219 L 12.476562 -6.257812 Z M 12.464844 -6.199219 "/></g></g></g><g fill="#262728" fill-opacity="1"><g transform="translate(184.901202, 358.572612)"><g><path d="M 21.867188 -1.648438 C 29.136719 -2.398438 32.273438 -6.398438 37.070312 -3.832031 L 35.8125 -16.007812 C 35.523438 -18.792969 36.132812 -19.40625 39.238281 -20.15625 L 39.089844 -21.609375 L 22.679688 -19.851562 L 22.824219 -18.460938 C 27.222656 -18.546875 28.195312 -18.035156 28.484375 -15.25 L 29.191406 -8.402344 C 29.421875 -6.164062 27.984375 -5.28125 25.742188 -5.046875 C 18.046875 -4.253906 9.570312 -11.640625 8.382812 -23.148438 C 7.46875 -31.992188 11.449219 -37.914062 17.503906 -38.539062 C 23.136719 -39.121094 25.460938 -35.015625 25.835938 -31.382812 C 26.0625 -29.203125 27.902344 -27.371094 30.808594 -27.671875 C 33.960938 -27.996094 35.183594 -30.390625 34.9375 -32.75 C 34.46875 -37.292969 28.78125 -41.972656 19.089844 -40.96875 C 8.003906 -39.824219 -1.425781 -31.5625 -0.125 -18.964844 C 1.136719 -6.789062 11.570312 -0.582031 21.867188 -1.648438 Z M 21.867188 -1.648438 "/></g></g></g><g fill="#262728" fill-opacity="1"><g transform="translate(232.938319, 351.783974)"><g><path d="M 1.738281 -0.5625 L 17.617188 -5.683594 L 17 -7.597656 C 14.28125 -7.101562 12.589844 -7.582031 11.878906 -9.78125 L 3.75 -34.992188 C 3.039062 -37.195312 4.128906 -38.570312 6.625 -39.761719 L 6.007812 -41.671875 L -9.871094 -36.550781 L -9.253906 -34.636719 C -6.535156 -35.132812 -4.84375 -34.652344 -4.132812 -32.449219 L 4 -7.242188 C 4.710938 -5.039062 3.617188 -3.664062 1.121094 -2.472656 Z M 1.738281 -0.5625 "/></g></g></g><g fill="#262728" fill-opacity="1"><g transform="translate(259.005374, 343.948691)"><g><path d="M 27.4375 -26.570312 L 1.464844 -45.121094 L -2.265625 -42.453125 C -1.679688 -41.453125 -0.871094 -39.457031 -0.542969 -36.476562 L 2.449219 -10.308594 C 2.832031 -6.867188 2.648438 -4.644531 0.0390625 -2.347656 L 1.050781 -0.613281 L 12.730469 -7.421875 L 11.71875 -9.15625 C 8.074219 -7.667969 5.953125 -8.40625 5.585938 -11.574219 L 5.367188 -13.28125 C 5.316406 -14.941406 6.027344 -15.777344 7.445312 -16.605469 L 16.128906 -21.667969 C 17.441406 -22.433594 18.519531 -22.640625 19.847656 -21.933594 L 21.765625 -20.582031 C 24.050781 -18.957031 24.910156 -17.484375 22.03125 -15.167969 L 23.042969 -13.433594 L 37.089844 -21.621094 L 36.105469 -23.304688 C 33.085938 -22.320312 31.527344 -23.667969 27.4375 -26.570312 Z M 14.640625 -23.972656 L 6.066406 -18.972656 C 5.539062 -18.667969 4.832031 -18.675781 4.664062 -19.566406 L 3.148438 -32.566406 C 2.992188 -33.675781 3.257812 -33.828125 4.144531 -33.148438 L 14.671875 -25.613281 C 15.53125 -24.984375 15.21875 -24.308594 14.640625 -23.972656 Z M 5.425781 -12.820312 L 5.394531 -12.871094 Z M 5.425781 -12.820312 "/></g></g></g><g clip-path="url(#8f6be71593)"><g clip-path="url(#ab3b0f7775)"><path fill="#afd516" d="M 182.039062 185.25 L 194.460938 185.25 L 194.460938 197.675781 L 182.039062 197.675781 Z M 182.039062 185.25 " fill-opacity="1" fill-rule="nonzero"/></g></g></svg>