<svg xmlns="http://www.w3.org/2000/svg" xmlns:xlink="http://www.w3.org/1999/xlink" zoomAndPan="magnify" viewBox="0 0 1125 374.999991" preserveAspectRatio="xMidYMid meet" version="1.0"><defs><g/><clipPath id="78a0f14276"><path d="M 89 180 L 160 180 L 160 285 L 89 285 Z M 89 180 " clip-rule="nonzero"/></clipPath><clipPath id="4b63f4f4cc"><path d="M 37.5 127.492188 L 221.601562 63.210938 L 285.878906 247.3125 L 101.78125 311.589844 Z M 37.5 127.492188 " clip-rule="nonzero"/></clipPath><clipPath id="c6e5355aef"><path d="M 37.5 127.492188 L 221.601562 63.210938 L 285.878906 247.3125 L 101.78125 311.589844 Z M 37.5 127.492188 " clip-rule="nonzero"/></clipPath><clipPath id="9598ee61e0"><path d="M 37.5 127.492188 L 221.601562 63.210938 L 285.878906 247.3125 L 101.78125 311.589844 Z M 37.5 127.492188 " clip-rule="nonzero"/></clipPath><clipPath id="7098fb9921"><path d="M 117 183 L 159 183 L 159 274 L 117 274 Z M 117 183 " clip-rule="nonzero"/></clipPath><clipPath id="5eab3b8221"><path d="M 37.5 127.492188 L 221.601562 63.210938 L 285.878906 247.3125 L 101.78125 311.589844 Z M 37.5 127.492188 " clip-rule="nonzero"/></clipPath><clipPath id="aab432ff3a"><path d="M 37.5 127.492188 L 221.601562 63.210938 L 285.878906 247.3125 L 101.78125 311.589844 Z M 37.5 127.492188 " clip-rule="nonzero"/></clipPath><clipPath id="9d371979a1"><path d="M 37.5 127.492188 L 221.601562 63.210938 L 285.878906 247.3125 L 101.78125 311.589844 Z M 37.5 127.492188 " clip-rule="nonzero"/></clipPath><clipPath id="1c123b2157"><path d="M 107 183 L 159 183 L 159 261 L 107 261 Z M 107 183 " clip-rule="nonzero"/></clipPath><clipPath id="09685eb02b"><path d="M 37.5 127.492188 L 221.601562 63.210938 L 285.878906 247.3125 L 101.78125 311.589844 Z M 37.5 127.492188 " clip-rule="nonzero"/></clipPath><clipPath id="757df01d82"><path d="M 37.5 127.492188 L 221.601562 63.210938 L 285.878906 247.3125 L 101.78125 311.589844 Z M 37.5 127.492188 " clip-rule="nonzero"/></clipPath><clipPath id="17e7ae9273"><path d="M 37.5 127.492188 L 221.601562 63.210938 L 285.878906 247.3125 L 101.78125 311.589844 Z M 37.5 127.492188 " clip-rule="nonzero"/></clipPath><clipPath id="17cd6e634a"><path d="M 143 190 L 243 190 L 243 274 L 143 274 Z M 143 190 " clip-rule="nonzero"/></clipPath><clipPath id="0a46216557"><path d="M 37.5 127.492188 L 221.601562 63.210938 L 285.878906 247.3125 L 101.78125 311.589844 Z M 37.5 127.492188 " clip-rule="nonzero"/></clipPath><clipPath id="00a5c35968"><path d="M 37.5 127.492188 L 221.601562 63.210938 L 285.878906 247.3125 L 101.78125 311.589844 Z M 37.5 127.492188 " clip-rule="nonzero"/></clipPath><clipPath id="d84ddf5c5c"><path d="M 37.5 127.492188 L 221.601562 63.210938 L 285.878906 247.3125 L 101.78125 311.589844 Z M 37.5 127.492188 " clip-rule="nonzero"/></clipPath><clipPath id="9bfb209e62"><path d="M 153 191 L 239 191 L 239 251 L 153 251 Z M 153 191 " clip-rule="nonzero"/></clipPath><clipPath id="9e1b7bfed7"><path d="M 37.5 127.492188 L 221.601562 63.210938 L 285.878906 247.3125 L 101.78125 311.589844 Z M 37.5 127.492188 " clip-rule="nonzero"/></clipPath><clipPath id="414399d0b4"><path d="M 37.5 127.492188 L 221.601562 63.210938 L 285.878906 247.3125 L 101.78125 311.589844 Z M 37.5 127.492188 " clip-rule="nonzero"/></clipPath><clipPath id="45c72178f3"><path d="M 37.5 127.492188 L 221.601562 63.210938 L 285.878906 247.3125 L 101.78125 311.589844 Z M 37.5 127.492188 " clip-rule="nonzero"/></clipPath><clipPath id="b91c385b3b"><path d="M 149 191 L 217 191 L 217 255 L 149 255 Z M 149 191 " clip-rule="nonzero"/></clipPath><clipPath id="b638d160cb"><path d="M 37.5 127.492188 L 221.601562 63.210938 L 285.878906 247.3125 L 101.78125 311.589844 Z M 37.5 127.492188 " clip-rule="nonzero"/></clipPath><clipPath id="e4699ffa5e"><path d="M 37.5 127.492188 L 221.601562 63.210938 L 285.878906 247.3125 L 101.78125 311.589844 Z M 37.5 127.492188 " clip-rule="nonzero"/></clipPath><clipPath id="8832aea8a2"><path d="M 37.5 127.492188 L 221.601562 63.210938 L 285.878906 247.3125 L 101.78125 311.589844 Z M 37.5 127.492188 " clip-rule="nonzero"/></clipPath><clipPath id="91e503278a"><path d="M 158 127 L 254 127 L 254 220 L 158 220 Z M 158 127 " clip-rule="nonzero"/></clipPath><clipPath id="6026732296"><path d="M 37.5 127.492188 L 221.601562 63.210938 L 285.878906 247.3125 L 101.78125 311.589844 Z M 37.5 127.492188 " clip-rule="nonzero"/></clipPath><clipPath id="2caabd67e4"><path d="M 37.5 127.492188 L 221.601562 63.210938 L 285.878906 247.3125 L 101.78125 311.589844 Z M 37.5 127.492188 " clip-rule="nonzero"/></clipPath><clipPath id="d486566ad3"><path d="M 37.5 127.492188 L 221.601562 63.210938 L 285.878906 247.3125 L 101.78125 311.589844 Z M 37.5 127.492188 " clip-rule="nonzero"/></clipPath><clipPath id="67b7d93640"><path d="M 159 156 L 236 156 L 236 210 L 159 210 Z M 159 156 " clip-rule="nonzero"/></clipPath><clipPath id="5a35eca687"><path d="M 37.5 127.492188 L 221.601562 63.210938 L 285.878906 247.3125 L 101.78125 311.589844 Z M 37.5 127.492188 " clip-rule="nonzero"/></clipPath><clipPath id="7459afc170"><path d="M 37.5 127.492188 L 221.601562 63.210938 L 285.878906 247.3125 L 101.78125 311.589844 Z M 37.5 127.492188 " clip-rule="nonzero"/></clipPath><clipPath id="8630817b61"><path d="M 37.5 127.492188 L 221.601562 63.210938 L 285.878906 247.3125 L 101.78125 311.589844 Z M 37.5 127.492188 " clip-rule="nonzero"/></clipPath><clipPath id="e4d502308a"><path d="M 124 93 L 204 93 L 204 195 L 124 195 Z M 124 93 " clip-rule="nonzero"/></clipPath><clipPath id="3b8d67bd73"><path d="M 37.5 127.492188 L 221.601562 63.210938 L 285.878906 247.3125 L 101.78125 311.589844 Z M 37.5 127.492188 " clip-rule="nonzero"/></clipPath><clipPath id="b3796735e6"><path d="M 37.5 127.492188 L 221.601562 63.210938 L 285.878906 247.3125 L 101.78125 311.589844 Z M 37.5 127.492188 " clip-rule="nonzero"/></clipPath><clipPath id="bcab29c8a9"><path d="M 37.5 127.492188 L 221.601562 63.210938 L 285.878906 247.3125 L 101.78125 311.589844 Z M 37.5 127.492188 " clip-rule="nonzero"/></clipPath><clipPath id="4c75ab3586"><path d="M 151 109 L 191 109 L 191 195 L 151 195 Z M 151 109 " clip-rule="nonzero"/></clipPath><clipPath id="637e2d166f"><path d="M 37.5 127.492188 L 221.601562 63.210938 L 285.878906 247.3125 L 101.78125 311.589844 Z M 37.5 127.492188 " clip-rule="nonzero"/></clipPath><clipPath id="11f3d0e58f"><path d="M 37.5 127.492188 L 221.601562 63.210938 L 285.878906 247.3125 L 101.78125 311.589844 Z M 37.5 127.492188 " clip-rule="nonzero"/></clipPath><clipPath id="e230147722"><path d="M 37.5 127.492188 L 221.601562 63.210938 L 285.878906 247.3125 L 101.78125 311.589844 Z M 37.5 127.492188 " clip-rule="nonzero"/></clipPath><clipPath id="743322a636"><path d="M 62 133 L 167 133 L 167 199 L 62 199 Z M 62 133 " clip-rule="nonzero"/></clipPath><clipPath id="1a8952fde0"><path d="M 37.5 127.492188 L 221.601562 63.210938 L 285.878906 247.3125 L 101.78125 311.589844 Z M 37.5 127.492188 " clip-rule="nonzero"/></clipPath><clipPath id="911bf16c7b"><path d="M 37.5 127.492188 L 221.601562 63.210938 L 285.878906 247.3125 L 101.78125 311.589844 Z M 37.5 127.492188 " clip-rule="nonzero"/></clipPath><clipPath id="635d9fa210"><path d="M 37.5 127.492188 L 221.601562 63.210938 L 285.878906 247.3125 L 101.78125 311.589844 Z M 37.5 127.492188 " clip-rule="nonzero"/></clipPath><clipPath id="7a8a9b5308"><path d="M 80 149 L 166 149 L 166 186 L 80 186 Z M 80 149 " clip-rule="nonzero"/></clipPath><clipPath id="fe5e54d567"><path d="M 37.5 127.492188 L 221.601562 63.210938 L 285.878906 247.3125 L 101.78125 311.589844 Z M 37.5 127.492188 " clip-rule="nonzero"/></clipPath><clipPath id="6d2829de06"><path d="M 37.5 127.492188 L 221.601562 63.210938 L 285.878906 247.3125 L 101.78125 311.589844 Z M 37.5 127.492188 " clip-rule="nonzero"/></clipPath><clipPath id="64eb234ae3"><path d="M 37.5 127.492188 L 221.601562 63.210938 L 285.878906 247.3125 L 101.78125 311.589844 Z M 37.5 127.492188 " clip-rule="nonzero"/></clipPath><clipPath id="1f5277f517"><path d="M 75 162 L 166 162 L 166 211 L 75 211 Z M 75 162 " clip-rule="nonzero"/></clipPath><clipPath id="787ba108d9"><path d="M 37.5 127.492188 L 221.601562 63.210938 L 285.878906 247.3125 L 101.78125 311.589844 Z M 37.5 127.492188 " clip-rule="nonzero"/></clipPath><clipPath id="24bc4473f1"><path d="M 37.5 127.492188 L 221.601562 63.210938 L 285.878906 247.3125 L 101.78125 311.589844 Z M 37.5 127.492188 " clip-rule="nonzero"/></clipPath><clipPath id="119a66d5cd"><path d="M 37.5 127.492188 L 221.601562 63.210938 L 285.878906 247.3125 L 101.78125 311.589844 Z M 37.5 127.492188 " clip-rule="nonzero"/></clipPath><clipPath id="f7d01fddae"><path d="M 116 109 L 178 109 L 178 195 L 116 195 Z M 116 109 " clip-rule="nonzero"/></clipPath><clipPath id="56b9f140f3"><path d="M 37.5 127.492188 L 221.601562 63.210938 L 285.878906 247.3125 L 101.78125 311.589844 Z M 37.5 127.492188 " clip-rule="nonzero"/></clipPath><clipPath id="c678ee5133"><path d="M 37.5 127.492188 L 221.601562 63.210938 L 285.878906 247.3125 L 101.78125 311.589844 Z M 37.5 127.492188 " clip-rule="nonzero"/></clipPath><clipPath id="331c64d9e5"><path d="M 37.5 127.492188 L 221.601562 63.210938 L 285.878906 247.3125 L 101.78125 311.589844 Z M 37.5 127.492188 " clip-rule="nonzero"/></clipPath><clipPath id="927a45e5bc"><path d="M 159 126 L 235 126 L 235 200 L 159 200 Z M 159 126 " clip-rule="nonzero"/></clipPath><clipPath id="eb07f1ffee"><path d="M 37.5 127.492188 L 221.601562 63.210938 L 285.878906 247.3125 L 101.78125 311.589844 Z M 37.5 127.492188 " clip-rule="nonzero"/></clipPath><clipPath id="dbe8caf7aa"><path d="M 37.5 127.492188 L 221.601562 63.210938 L 285.878906 247.3125 L 101.78125 311.589844 Z M 37.5 127.492188 " clip-rule="nonzero"/></clipPath><clipPath id="667b4fca9f"><path d="M 37.5 127.492188 L 221.601562 63.210938 L 285.878906 247.3125 L 101.78125 311.589844 Z M 37.5 127.492188 " clip-rule="nonzero"/></clipPath><clipPath id="499ea529b2"><path d="M 158.21875 186.75 L 165.566406 186.75 L 165.566406 194.09375 L 158.21875 194.09375 Z M 158.21875 186.75 " clip-rule="nonzero"/></clipPath><clipPath id="6d0b363bf5"><path d="M 161.894531 186.75 C 159.863281 186.75 158.21875 188.394531 158.21875 190.421875 C 158.21875 192.449219 159.863281 194.09375 161.894531 194.09375 C 163.921875 194.09375 165.566406 192.449219 165.566406 190.421875 C 165.566406 188.394531 163.921875 186.75 161.894531 186.75 " clip-rule="nonzero"/></clipPath></defs><g clip-path="url(#78a0f14276)"><g clip-path="url(#4b63f4f4cc)"><g clip-path="url(#c6e5355aef)"><g clip-path="url(#9598ee61e0)"><path fill="#80ccf3" d="M 159.5 183.691406 C 148.484375 179.550781 136.121094 179.046875 124.15625 183.226562 C 97.09375 192.675781 82.792969 222.316406 92.242188 249.378906 C 99.207031 269.320312 117.152344 282.265625 136.644531 284.066406 C 129.425781 277.980469 123.761719 270.042969 120.15625 260.699219 C 115.691406 256.199219 112.097656 250.433594 109.804688 243.867188 C 101.140625 220.039062 113.867188 194.183594 137.554688 185.914062 C 144.367188 183.535156 151.535156 182.960938 158.535156 183.683594 C 157.980469 183.878906 158.089844 184.183594 157.476562 184.398438 C 158.089844 184.183594 158.640625 183.992188 159.5 183.691406 Z M 159.5 183.691406 " fill-opacity="1" fill-rule="evenodd"/></g></g></g></g><g clip-path="url(#7098fb9921)"><g clip-path="url(#5eab3b8221)"><g clip-path="url(#aab432ff3a)"><g clip-path="url(#9d371979a1)"><path fill="#00a4dd" d="M 158.554688 183.746094 C 158.003906 183.9375 158.109375 184.246094 157.496094 184.460938 C 126.792969 198.070312 110.25 230.355469 119.683594 259.351562 L 119.984375 260.207031 C 128.519531 269.070312 140.777344 274.015625 153.191406 273.882812 C 146.21875 267.710938 140.753906 259.359375 137.476562 249.96875 C 129.03125 225.378906 138.167969 198.507812 158.554688 183.746094 Z M 119.832031 259.574219 C 119.832031 259.574219 119.9375 259.878906 120.023438 260.125 C 120.023438 260.125 120.023438 260.125 120.132812 260.433594 Z M 119.832031 259.574219 " fill-opacity="1" fill-rule="evenodd"/></g></g></g></g><g clip-path="url(#1c123b2157)"><g clip-path="url(#09685eb02b)"><g clip-path="url(#757df01d82)"><g clip-path="url(#17e7ae9273)"><path fill="#0075b8" d="M 158.554688 183.746094 C 151.863281 182.914062 144.695312 183.488281 137.578125 185.976562 C 113.953125 194.222656 101.222656 220.082031 109.578125 244.011719 C 111.871094 250.578125 115.363281 256.039062 119.933594 260.847656 C 119.933594 260.847656 119.824219 260.539062 119.738281 260.292969 C 109.582031 231.207031 126.324219 198.511719 157.359375 184.851562 C 157.78125 184.292969 158.089844 184.183594 158.554688 183.746094 Z M 158.554688 183.746094 " fill-opacity="1" fill-rule="evenodd"/></g></g></g></g><g clip-path="url(#17cd6e634a)"><g clip-path="url(#0a46216557)"><g clip-path="url(#00a5c35968)"><g clip-path="url(#d84ddf5c5c)"><path fill="#ab85b4" d="M 153.773438 190.164062 C 146.730469 199.371094 142.644531 211.332031 143.277344 224.191406 C 144.671875 252.828125 169.015625 275.035156 197.238281 273.441406 C 218.316406 272.484375 235.722656 259.042969 242.964844 240.539062 C 234.921875 245.898438 225.777344 249.089844 215.792969 249.683594 C 210.082031 252.640625 203.714844 254.519531 196.523438 254.828125 C 172.125 256.324219 150.941406 236.871094 149.78125 211.664062 C 149.515625 204.390625 150.8125 197.257812 153.808594 191.050781 C 154 191.601562 154.105469 191.90625 154.214844 192.214844 C 154.265625 191.578125 154.074219 191.023438 153.773438 190.164062 Z M 153.773438 190.164062 " fill-opacity="1" fill-rule="evenodd"/></g></g></g></g><g clip-path="url(#9bfb209e62)"><g clip-path="url(#9e1b7bfed7)"><g clip-path="url(#414399d0b4)"><g clip-path="url(#45c72178f3)"><path fill="#743b8d" d="M 153.828125 191.109375 C 154.019531 191.664062 154.128906 191.96875 154.234375 192.277344 C 154.769531 196.566406 155.71875 201.054688 157.109375 205.042969 L 158.503906 209.03125 C 167.902344 234.183594 190.425781 250.96875 215.878906 249.722656 C 215.878906 249.722656 216.183594 249.617188 216.429688 249.53125 C 227.488281 243.742188 235.507812 233.574219 238.847656 221.253906 C 230.71875 226.367188 221.464844 229.25 211.378906 229.539062 C 185.398438 231.242188 162.097656 214.796875 153.828125 191.109375 Z M 216.453125 249.796875 C 215.902344 249.988281 215.042969 250.289062 214.535156 250.8125 C 215.148438 250.597656 215.65625 250.074219 216.453125 249.796875 Z M 216.453125 249.796875 " fill-opacity="1" fill-rule="evenodd"/></g></g></g></g><g clip-path="url(#b91c385b3b)"><g clip-path="url(#b638d160cb)"><g clip-path="url(#e4699ffa5e)"><g clip-path="url(#8832aea8a2)"><path fill="#372c65" d="M 153.828125 191.109375 C 151.226562 197.457031 149.84375 204.34375 149.804688 211.722656 C 150.855469 236.625 172.28125 255.992188 197.183594 254.941406 C 204.148438 254.78125 210.496094 252.839844 216.453125 249.796875 C 216.453125 249.796875 216.148438 249.902344 215.902344 249.988281 C 185.085938 251.453125 158.703125 226.171875 154.261719 192.542969 C 154.128906 191.96875 154.019531 191.664062 153.828125 191.109375 Z M 153.828125 191.109375 " fill-opacity="1" fill-rule="evenodd"/></g></g></g></g><g clip-path="url(#91e503278a)"><g clip-path="url(#6026732296)"><g clip-path="url(#2caabd67e4)"><g clip-path="url(#d486566ad3)"><path fill="#ef9bbe" d="M 158.585938 197.4375 C 165.179688 207.25 175.4375 214.546875 187.53125 218.035156 C 215.125 225.683594 243.523438 209.019531 251.171875 181.425781 C 256.824219 160.933594 249.339844 140.480469 234.070312 127.914062 C 236.605469 136.941406 236.804688 146.785156 234.390625 156.234375 C 235.324219 162.65625 235.4375 169.292969 233.640625 175.980469 C 226.8125 200.394531 201.996094 214.5 177.996094 207.871094 C 170.894531 205.875 164.554688 202.304688 159.453125 197.753906 C 159.757812 197.644531 160.113281 197.867188 160.726562 197.652344 C 159.988281 197.910156 159.351562 197.855469 158.585938 197.4375 Z M 158.585938 197.4375 " fill-opacity="1" fill-rule="evenodd"/></g></g></g></g><g clip-path="url(#67b7d93640)"><g clip-path="url(#5a35eca687)"><g clip-path="url(#7459afc170)"><g clip-path="url(#8630817b61)"><path fill="#c32b75" d="M 159.4375 198.101562 C 164.558594 202.71875 170.878906 206.226562 177.980469 208.222656 C 202.042969 214.828125 227.019531 200.394531 233.625 176.328125 C 235.421875 169.644531 235.65625 162.816406 234.375 156.585938 C 234.375 156.585938 234.480469 156.890625 234.175781 157 C 226.023438 186.695312 193.773438 204.359375 160.585938 198.046875 C 160.402344 198.109375 159.851562 198.300781 159.4375 198.101562 Z M 159.4375 198.101562 " fill-opacity="1" fill-rule="evenodd"/></g></g></g></g><g clip-path="url(#e4d502308a)"><g clip-path="url(#3b8d67bd73)"><g clip-path="url(#b3796735e6)"><g clip-path="url(#bcab29c8a9)"><path fill="#f2af89" d="M 166.667969 194.957031 C 177.96875 191.632812 188.292969 184.515625 195.085938 173.8125 C 211.074219 149.988281 204.632812 117.742188 180.609375 102.171875 C 163.070312 90.394531 140.832031 90.792969 124.351562 101.367188 C 133.835938 101.910156 143.085938 104.738281 151.585938 109.757812 C 157.972656 110.695312 164.214844 112.992188 170.109375 117.058594 C 190.902344 130.867188 196.582031 158.96875 182.820312 180.09375 C 178.921875 186.273438 173.539062 190.976562 167.382812 194.433594 C 167.582031 194.019531 167.742188 193.6875 167.527344 193.074219 C 167.230469 193.796875 166.808594 194.566406 166.667969 194.957031 Z M 166.667969 194.957031 " fill-opacity="1" fill-rule="evenodd"/></g></g></g></g><g clip-path="url(#4c75ab3586)"><g clip-path="url(#637e2d166f)"><g clip-path="url(#11f3d0e58f)"><g clip-path="url(#e230147722)"><path fill="#cf2d1e" d="M 167.113281 194.457031 C 173.273438 191 178.347656 186.40625 182.554688 180.117188 C 196.363281 159.324219 190.742188 131.199219 169.84375 117.085938 C 164.054688 113.320312 157.726562 110.78125 151.320312 109.78125 C 151.320312 109.78125 151.425781 110.089844 151.820312 110.226562 C 177.550781 127.128906 183.777344 163.304688 167.628906 192.96875 C 167.472656 193.710938 167.582031 194.019531 167.113281 194.457031 Z M 167.113281 194.457031 " fill-opacity="1" fill-rule="evenodd"/></g></g></g></g><g clip-path="url(#743322a636)"><g clip-path="url(#1a8952fde0)"><g clip-path="url(#911bf16c7b)"><g clip-path="url(#635d9fa210)"><path fill="#afcf95" d="M 166.046875 185.878906 C 166.042969 174.039062 162.28125 162.273438 154.304688 152.25 C 136.3125 130.097656 103.804688 126.714844 81.347656 144.816406 C 64.96875 158.246094 58.851562 179.175781 64.019531 198.507812 C 67.238281 189.398438 72.777344 181.40625 80.523438 175.191406 C 83.320312 169.394531 87.542969 164.132812 92.679688 159.722656 C 112.109375 143.988281 140.640625 146.832031 156.375 166.261719 C 160.9375 172.035156 164.175781 178.546875 165.609375 185.414062 C 165.195312 185.214844 164.863281 185.054688 164.648438 184.441406 C 165.003906 184.660156 165.546875 185.433594 166.046875 185.878906 Z M 166.046875 185.878906 " fill-opacity="1" fill-rule="evenodd"/></g></g></g></g><g clip-path="url(#7a8a9b5308)"><g clip-path="url(#fe5e54d567)"><g clip-path="url(#6d2829de06)"><g clip-path="url(#64eb234ae3)"><path fill="#196733" d="M 165.746094 185.019531 C 164.007812 178.261719 161.164062 171.886719 156.511719 165.871094 C 140.78125 146.441406 112.308594 143.574219 92.574219 159.417969 C 87.351562 163.785156 83.152344 169.109375 80.417969 174.882812 C 80.417969 174.882812 80.722656 174.777344 80.96875 174.691406 C 104.847656 155.132812 141.277344 159.691406 164.808594 184.109375 C 165.003906 184.660156 165.109375 184.96875 165.746094 185.019531 Z M 165.746094 185.019531 " fill-opacity="1" fill-rule="evenodd"/></g></g></g></g><g clip-path="url(#1f5277f517)"><g clip-path="url(#787ba108d9)"><g clip-path="url(#24bc4473f1)"><g clip-path="url(#119a66d5cd)"><path fill="#3aa438" d="M 163.652344 183.550781 C 164.394531 183.910156 164.917969 184.417969 165.417969 184.863281 C 165.003906 184.660156 164.671875 184.5 164.457031 183.886719 C 141.03125 159.777344 105.152344 155.023438 81.082031 174.03125 L 80.777344 174.136719 C 80.777344 174.136719 80.777344 174.136719 80.46875 174.246094 C 80.46875 174.246094 80.46875 174.246094 80.160156 174.351562 C 74.769531 185.527344 74.191406 198.46875 78.679688 210.328125 L 78.871094 210.878906 C 81.054688 205.296875 84.476562 200.316406 88.230469 195.492188 C 90.453125 192.789062 93.152344 190.265625 95.875 188.003906 C 116.277344 171.3125 144.601562 170.992188 165.394531 184.800781 C 164.980469 184.601562 164.648438 184.441406 164.4375 183.828125 C 164.195312 184.324219 163.980469 183.710938 163.652344 183.550781 Z M 163.652344 183.550781 " fill-opacity="1" fill-rule="evenodd"/></g></g></g></g><g clip-path="url(#f7d01fddae)"><g clip-path="url(#56b9f140f3)"><g clip-path="url(#c678ee5133)"><g clip-path="url(#331c64d9e5)"><path fill="#e64e23" d="M 167.472656 193.710938 C 167.472656 193.710938 167.675781 193.300781 167.589844 193.054688 C 167.675781 193.300781 167.367188 193.40625 167.472656 193.710938 Z M 157.40625 114.402344 C 156.996094 114.203125 156.910156 113.957031 156.554688 113.738281 C 156.554688 113.738281 156.140625 113.539062 156.054688 113.292969 C 155.097656 112.320312 153.851562 111.515625 152.585938 110.648438 C 152.585938 110.648438 152.171875 110.449219 152.085938 110.203125 C 152.394531 110.09375 152.746094 110.316406 152.746094 110.316406 C 153.050781 110.210938 153.40625 110.429688 153.796875 110.570312 C 153.492188 110.675781 153.050781 110.210938 152.746094 110.316406 C 152.4375 110.425781 152.085938 110.203125 151.695312 110.0625 C 139.558594 108.242188 126.632812 111.449219 116.859375 119.335938 C 116.859375 119.335938 116.859375 119.335938 117.164062 119.230469 C 125.789062 120.074219 134.378906 122.789062 142.488281 127.667969 C 142.988281 128.113281 143.644531 128.226562 144.144531 128.671875 C 165.898438 143.453125 175.015625 170.355469 167.6875 194.328125 C 167.886719 193.914062 168.046875 193.582031 167.941406 193.273438 C 167.941406 193.273438 168.140625 192.859375 168.300781 192.53125 C 168.300781 192.53125 168.101562 192.941406 168.1875 193.1875 C 171.449219 186.953125 174.050781 180.605469 175.382812 174.359375 C 178.011719 162.5625 177.613281 150.585938 174.128906 139.617188 L 173.144531 136.792969 C 169.484375 128.085938 164.234375 120.351562 157.40625 114.402344 Z M 157.40625 114.402344 " fill-opacity="1" fill-rule="evenodd"/></g></g></g></g><g clip-path="url(#927a45e5bc)"><g clip-path="url(#eb07f1ffee)"><g clip-path="url(#dbe8caf7aa)"><g clip-path="url(#667b4fca9f)"><path fill="#e6007e" d="M 160.402344 198.109375 C 160.097656 198.214844 159.742188 197.996094 159.4375 198.101562 C 159.742188 197.996094 160.097656 198.214844 160.402344 198.109375 Z M 214.625 126.441406 C 214.625 126.441406 214.710938 126.6875 214.625 126.441406 C 214.710938 126.6875 214.625 126.441406 214.625 126.441406 C 216.542969 135.683594 216.804688 145.507812 214.082031 155.0625 C 211.523438 164.289062 207.09375 172.511719 200.753906 179.199219 L 200.449219 179.308594 C 200.25 179.722656 200.003906 179.808594 199.476562 180.265625 C 199.167969 180.375 199.03125 180.765625 198.503906 181.226562 C 198.503906 181.226562 198.195312 181.332031 198.058594 181.726562 C 187.777344 191.71875 173.925781 197.792969 159.070312 198.230469 C 159.375 198.125 159.726562 198.34375 160.035156 198.238281 L 160.34375 198.128906 C 187.339844 203.09375 213.445312 192.671875 226.894531 172.621094 C 227.09375 172.207031 227.253906 171.878906 227.558594 171.769531 C 230.253906 167.660156 232.386719 162.71875 233.875 157.722656 C 233.875 157.722656 234.078125 157.308594 233.992188 157.0625 C 234.097656 157.371094 234.183594 157.617188 234.289062 157.921875 C 234.484375 158.472656 234.484375 158.472656 234.699219 159.089844 C 234.589844 158.78125 234.503906 158.535156 234.289062 157.921875 C 234.183594 157.617188 234.097656 157.371094 233.992188 157.0625 C 233.992188 157.0625 233.992188 157.0625 233.882812 156.757812 C 232.390625 144.195312 225.328125 133.238281 214.625 126.441406 Z M 214.625 126.441406 " fill-opacity="1" fill-rule="evenodd"/></g></g></g></g><g clip-path="url(#499ea529b2)"><g clip-path="url(#6d0b363bf5)"><path fill="#afd516" d="M 158.21875 186.75 L 165.566406 186.75 L 165.566406 194.09375 L 158.21875 194.09375 Z M 158.21875 186.75 " fill-opacity="1" fill-rule="nonzero"/></g></g><g fill="#FFFFFF" fill-opacity="1"><g transform="translate(278.669537, 267.70034)"><g><path d="M 27.976562 -127.289062 C 28.074219 -127.289062 28.074219 -127.339844 27.976562 -127.339844 C 27.882812 -127.339844 27.882812 -127.289062 27.976562 -127.289062 Z M 106.5625 -11.921875 C 107.046875 -14.9375 100.089844 -13.820312 98.921875 -12.847656 C 97.558594 -11.679688 97.023438 -10.949219 95.417969 -12.019531 C 93.667969 -13.1875 92.597656 -15.425781 91.914062 -17.320312 C 90.015625 -22.382812 89.433594 -28.125 88.847656 -33.429688 C 87.535156 -44.910156 87.683594 -56.492188 88.167969 -68.023438 C 89.191406 -91.28125 91.671875 -114.394531 93.667969 -137.605469 C 93.957031 -140.71875 85.101562 -140.71875 84.664062 -137.410156 C 82.621094 -122.863281 81.503906 -108.167969 80.480469 -93.570312 C 79.457031 -79.554688 78.4375 -65.492188 78.535156 -51.429688 C 78.195312 -50.410156 77.851562 -49.339844 77.464844 -48.316406 C 75.324219 -42.671875 63.0625 -9.488281 46.613281 -8.464844 C 41.066406 -8.125 36.785156 -11.824219 34.984375 -16.25 C 32.796875 -21.652344 33.136719 -27.6875 33.621094 -33.378906 C 34.597656 -45.980469 36.929688 -58.4375 39.363281 -70.847656 C 41.75 -83.011719 44.179688 -95.175781 45.496094 -107.535156 C 46.46875 -116.585938 48.511719 -128.992188 42.769531 -136.972656 C 37.464844 -144.367188 25.691406 -145.195312 18.441406 -140.136719 C 10.609375 -134.589844 5.59375 -123.835938 3.648438 -114.734375 C 2.238281 -107.875 0.292969 -92.695312 9.148438 -90.015625 C 18.199219 -87.292969 28.027344 -103.105469 30.605469 -111.71875 C 31.09375 -113.375 27.199219 -113.46875 26.617188 -112.207031 C 24.28125 -107.097656 21.703125 -102.132812 18.050781 -97.753906 C 16.785156 -96.195312 15.425781 -94.542969 13.820312 -93.324219 C 8.808594 -89.578125 5.449219 -94.105469 4.816406 -98.628906 C 3.261719 -109.1875 7.6875 -119.648438 13.722656 -128.117188 C 26.082031 -145.535156 34.546875 -135.753906 35.957031 -131.621094 C 37.320312 -127.824219 37.320312 -123.640625 37.222656 -119.648438 C 37.027344 -113.375 36.394531 -107.097656 35.519531 -100.820312 C 32.359375 -78.195312 26.082031 -56.003906 24.28125 -33.183594 C 23.597656 -24.085938 23.792969 -13.820312 31.480469 -7.492188 C 34.839844 -4.71875 38.78125 -3.210938 42.769531 -3.210938 C 62.964844 -3.210938 74.105469 -26.03125 79.019531 -39.265625 C 79.214844 -36.25 79.507812 -33.234375 79.945312 -30.265625 C 80.675781 -24.765625 81.308594 -18.296875 84.128906 -13.332031 C 86.515625 -9.148438 90.601562 -6.957031 95.371094 -6.570312 C 99.3125 -6.226562 105.832031 -7.203125 106.5625 -11.921875 Z M 106.5625 -11.921875 "/></g></g></g><g fill="#FFFFFF" fill-opacity="1"><g transform="translate(378.464444, 267.70034)"><g><path d="M 36.882812 -19.65625 C 24.574219 -24.914062 33.964844 -65.445312 36.152344 -83.59375 C 36.542969 -86.902344 36.835938 -93.179688 35.226562 -97.363281 C 34.597656 -98.921875 29.777344 -102.035156 27.636719 -101.648438 C 24.085938 -100.964844 21.796875 -97.121094 20.242188 -93.617188 C 17.515625 -87.390625 14.890625 -81.113281 12.847656 -74.640625 C 10.609375 -67.539062 9.097656 -60.238281 7.394531 -52.941406 C 7.347656 -54.109375 7.25 -55.277344 7.203125 -56.441406 C 6.761719 -64.472656 6.761719 -71.964844 7.296875 -80.675781 C 7.492188 -84.03125 1.117188 -82.671875 0.4375 -80.773438 C -0.972656 -76.78125 -2.335938 -66.273438 -2.285156 -56.734375 C -2.191406 -49.097656 -1.945312 -40.289062 1.898438 -33.429688 C 2.917969 -31.578125 7.640625 -31.824219 8.125 -34.011719 C 10.703125 -45.25 13.574219 -56.589844 16.59375 -67.683594 C 18.101562 -73.085938 19.707031 -78.484375 21.894531 -83.644531 C 22.917969 -86.027344 23.941406 -88.363281 25.351562 -90.601562 C 25.644531 -91.085938 26.128906 -91.914062 26.664062 -92.839844 C 26.664062 -92.644531 26.664062 -92.449219 26.714844 -92.253906 C 26.859375 -89.824219 26.859375 -87.339844 26.859375 -84.859375 C 20.191406 -43.257812 20.484375 -26.226562 25.398438 -18.976562 C 27.6875 -16.300781 31.191406 -15.230469 34.644531 -15.667969 C 36.640625 -15.910156 39.316406 -16.640625 38.976562 -19.074219 C 38.828125 -19.949219 37.417969 -19.804688 36.882812 -19.65625 Z M 36.882812 -19.65625 "/></g></g></g><g fill="#FFFFFF" fill-opacity="1"><g transform="translate(420.309212, 267.70034)"><g/></g></g><g fill="#FFFFFF" fill-opacity="1"><g transform="translate(444.783536, 267.70034)"><g><path d="M 97.898438 -126.21875 C 95.417969 -124.273438 93.472656 -125.390625 90.601562 -125.636719 C 89.628906 -125.730469 86.320312 -125.636719 86.417969 -123.882812 C 86.660156 -119.746094 94.203125 -119.941406 97.023438 -120.28125 C 101.0625 -120.816406 105.296875 -122.519531 107.777344 -125.976562 C 114.394531 -135.125 103.203125 -144.320312 95.027344 -146.265625 C 83.398438 -149.039062 72.355469 -145 61.746094 -140.476562 C 50.117188 -135.464844 38.148438 -130.742188 25.644531 -128.410156 C 19.804688 -127.289062 11.628906 -126.753906 8.953125 -133.519531 C 8.222656 -135.367188 8.273438 -140.71875 11.582031 -139.988281 C 13.964844 -139.40625 14.644531 -135.5625 13.769531 -133.710938 C 13.039062 -132.15625 16.59375 -132.398438 17.226562 -132.738281 C 20.339844 -134.492188 20.921875 -137.75 18.539062 -140.523438 C 15.910156 -143.542969 11.335938 -144.125 7.640625 -142.910156 C 4.039062 -141.742188 0.144531 -137.75 0.339844 -133.710938 C 0.582031 -128.945312 5.304688 -125.878906 9.292969 -124.417969 C 20.726562 -120.136719 34.742188 -124.808594 45.789062 -128.410156 C 48.414062 -129.234375 51.042969 -130.207031 53.621094 -131.183594 C 53.71875 -105.296875 53.914062 -79.457031 53.425781 -53.574219 C 53.28125 -46.859375 53.132812 -40.191406 52.941406 -33.476562 C 52.746094 -27.296875 52.792969 -20.726562 50.070312 -15.035156 C 48.414062 -11.484375 44.035156 -5.449219 39.460938 -8.078125 C 35.859375 -10.121094 35.132812 -16.738281 38.976562 -18.976562 C 40.628906 -19.949219 40.53125 -21.457031 38.878906 -22.382812 C 37.125 -23.40625 34.0625 -23.308594 32.308594 -22.285156 C 24.667969 -17.808594 26.226562 -7.589844 33.867188 -4.085938 C 42.625 -0.0976562 53.132812 -3.941406 58 -11.921875 C 60.871094 -16.640625 61.699219 -22.335938 61.992188 -27.734375 C 62.378906 -34.351562 62.429688 -40.96875 62.574219 -47.585938 C 62.867188 -61.210938 63.0625 -74.882812 63.109375 -88.558594 C 63.15625 -103.738281 63.15625 -118.96875 62.671875 -134.148438 C 62.671875 -134.34375 62.621094 -134.539062 62.574219 -134.734375 C 63.351562 -135.027344 64.132812 -135.367188 64.910156 -135.707031 C 70.75 -138.1875 76.734375 -141.15625 83.058594 -142.082031 C 89.628906 -143.054688 97.558594 -141.207031 99.894531 -134.101562 C 100.820312 -131.28125 100.285156 -128.164062 97.898438 -126.21875 Z M 97.898438 -126.21875 "/></g></g></g><g fill="#FFFFFF" fill-opacity="1"><g transform="translate(522.780239, 267.70034)"><g><path d="M 35.132812 -66.175781 C 35.226562 -60.96875 30.558594 -57.855469 25.496094 -56.25 C 25.546875 -56.6875 25.59375 -57.125 25.59375 -57.515625 C 26.664062 -69.53125 24.425781 -77.707031 18.050781 -83.300781 C 14.0625 -86.804688 7.832031 -87.148438 3.210938 -81.890625 C -1.558594 -76.441406 -3.941406 -68.316406 -2.140625 -61.601562 C -2.335938 -61.066406 -2.480469 -60.382812 -2.480469 -59.605469 C -2.628906 -53.425781 -1.75 -29.242188 12.359375 -30.167969 C 19.464844 -30.605469 23.453125 -42.089844 25.058594 -52.84375 C 32.015625 -55.566406 36.105469 -59.410156 36.929688 -65.640625 C 37.417969 -66.90625 35.617188 -67.148438 35.132812 -66.175781 Z M 5.058594 -74.445312 C 7.394531 -81.890625 12.066406 -86.464844 15.863281 -78.777344 C 18.636719 -73.230469 18.488281 -65.589844 18.296875 -59.507812 C 18.296875 -58.339844 18.199219 -56.734375 18.003906 -54.933594 C 12.699219 -54.742188 7.929688 -56.054688 5.789062 -58.390625 C 5.691406 -58.488281 5.644531 -58.585938 5.546875 -58.679688 C 5.546875 -59.558594 5.546875 -60.238281 5.546875 -60.628906 C 5.5 -61.699219 4.816406 -62.621094 3.796875 -63.253906 C 3.261719 -67.441406 4.429688 -72.355469 5.058594 -74.445312 Z M 12.019531 -35.667969 C 8.175781 -35.421875 6.617188 -44.523438 5.984375 -51.871094 C 9.246094 -50.410156 13.332031 -50.167969 17.566406 -50.800781 C 16.691406 -43.742188 14.9375 -35.859375 12.019531 -35.667969 Z M 12.019531 -35.667969 "/></g></g></g><g fill="#FFFFFF" fill-opacity="1"><g transform="translate(557.472471, 267.70034)"><g><path d="M 47.488281 -66.273438 C 47.539062 -67.003906 45.496094 -66.953125 45.445312 -66.222656 C 44.570312 -53.28125 35.519531 -36.203125 27.492188 -29.242188 C 28.171875 -46.859375 29.488281 -64.519531 30.800781 -82.085938 C 30.996094 -85.25 21.894531 -85.347656 21.652344 -81.941406 C 21.652344 -81.746094 21.652344 -81.597656 21.605469 -81.40625 C 18.539062 -85.445312 13.527344 -87.683594 8.515625 -85.003906 C 4.136719 -82.621094 1.703125 -77.121094 0.046875 -72.742188 C -2.140625 -66.855469 -3.066406 -60.578125 -2.675781 -54.300781 C -2.382812 -49.679688 -1.847656 -42.382812 1.800781 -38.925781 C 5.058594 -35.910156 10.414062 -35.519531 14.160156 -37.90625 C 16.542969 -39.414062 18.050781 -41.992188 19.121094 -44.8125 C 18.246094 -29.195312 17.664062 -13.527344 17.90625 2.09375 C 18.050781 11.289062 19.367188 26.90625 32.40625 23.941406 C 40.191406 22.1875 43.015625 4.234375 41.214844 -5.546875 C 39.511719 -14.890625 35.910156 -23.746094 27.589844 -25.789062 C 35.667969 -30.898438 45.445312 -45.496094 47.488281 -66.273438 Z M 20.875 -71.527344 C 18.050781 -63.789062 17.371094 -55.421875 14.453125 -47.636719 C 13.820312 -45.882812 13.1875 -44.035156 12.214844 -42.429688 C 11.871094 -41.847656 10.753906 -40.09375 9.78125 -40.386719 C 9.488281 -40.484375 8.855469 -41.847656 8.710938 -42.136719 C 6.8125 -45.640625 5.984375 -49.875 5.5 -53.816406 C 4.523438 -61.40625 5.109375 -69.824219 7.738281 -77.074219 C 8.371094 -78.777344 9.148438 -80.527344 10.414062 -81.890625 C 12.601562 -84.128906 15.230469 -83.058594 16.980469 -80.773438 C 18.78125 -78.386719 19.707031 -75.515625 20.972656 -72.792969 C 20.972656 -72.355469 20.921875 -71.964844 20.875 -71.527344 Z M 36.542969 -10.460938 C 40.921875 16.933594 31.480469 19.851562 30.070312 18.585938 C 29.875 18.296875 29.679688 17.953125 29.488281 17.664062 C 26.371094 12.066406 27.003906 4.28125 26.957031 -1.898438 C 26.90625 -9.097656 27.054688 -16.25 27.25 -23.40625 C 32.40625 -21.605469 35.761719 -15.570312 36.542969 -10.460938 Z M 36.542969 -10.460938 "/></g></g></g><g fill="#FFFFFF" fill-opacity="1"><g transform="translate(602.674552, 267.70034)"><g><path d="M 42.1875 -62.085938 C 41.3125 -53.960938 38.976562 -45.835938 36.445312 -38.050781 C 35.277344 -34.5 34.011719 -31.53125 31.96875 -28.417969 C 31.96875 -28.464844 31.96875 -28.464844 31.917969 -28.511719 C 31.53125 -29.097656 31.191406 -29.730469 30.945312 -30.363281 C 30.265625 -31.917969 30.023438 -33.671875 29.730469 -35.375 C 27.101562 -50.554688 30.703125 -67.292969 29.972656 -82.574219 C 29.777344 -85.832031 20.824219 -84.128906 21.117188 -81.0625 C 21.167969 -80.625 21.167969 -80.238281 21.167969 -79.800781 C 21.070312 -71.089844 14.597656 -41.019531 11.53125 -39.898438 C 8.175781 -38.683594 6.957031 -45.980469 6.957031 -45.980469 C 6.082031 -49.582031 5.691406 -53.328125 5.5 -57.027344 C 5.207031 -61.164062 5.304688 -78.097656 5.207031 -82.28125 C 5.15625 -85.832031 -0.390625 -84.421875 -1.75 -82.71875 C -3.699219 -80.382812 -3.601562 -72.988281 -3.648438 -67.148438 C -3.746094 -61.992188 -3.648438 -56.734375 -3.066406 -51.625 C -2.191406 -43.9375 0.972656 -32.164062 10.558594 -35.277344 C 16.105469 -37.078125 17.128906 -45.933594 20.046875 -55.082031 C 19.949219 -53.523438 19.851562 -51.917969 19.804688 -50.3125 C 19.65625 -45.25 19.804688 -40.191406 20.726562 -35.179688 C 21.359375 -31.675781 22.042969 -27.441406 25.351562 -25.398438 C 31.824219 -21.507812 36.203125 -26.859375 38.148438 -32.84375 C 41.359375 -42.574219 44.328125 -51.964844 43.839844 -62.136719 C 43.839844 -62.378906 42.234375 -62.332031 42.1875 -62.085938 Z M 42.1875 -62.085938 "/></g></g></g><g fill="#FFFFFF" fill-opacity="1"><g transform="translate(644.811261, 267.70034)"><g><path d="M 19.753906 -60.289062 C 24.035156 -67.488281 31.238281 -90.359375 16.25 -90.308594 C 2.96875 -90.261719 -2.382812 -71.722656 -2.96875 -61.261719 C -3.355469 -54.789062 -3.355469 -47.148438 -0.582031 -41.164062 C 2.285156 -35.035156 8.417969 -32.113281 14.988281 -32.601562 C 21.945312 -33.085938 27.882812 -39.511719 31.824219 -47.832031 C 34.9375 -54.300781 37.757812 -62.039062 38.976562 -67.246094 C 39.414062 -69.144531 36.929688 -69.289062 36.589844 -67.292969 C 35.667969 -62.183594 31.335938 -52.453125 30.023438 -50.265625 C 26.957031 -45.25 22.238281 -37.757812 15.960938 -38 C 8.757812 -38.292969 6.519531 -45.300781 6.035156 -52.40625 C 6.421875 -52.355469 6.8125 -52.257812 7.203125 -52.257812 C 12.894531 -51.773438 17.03125 -55.714844 19.753906 -60.289062 Z M 5.9375 -56.054688 C 5.9375 -59.996094 6.324219 -63.597656 6.519531 -65.6875 C 7.882812 -79.554688 14.453125 -88.070312 17.371094 -86.367188 C 19.707031 -85.054688 19.753906 -80.480469 19.707031 -78.242188 C 19.609375 -72.402344 17.808594 -66.5625 14.9375 -61.453125 C 13.429688 -58.828125 10.460938 -53.71875 6.570312 -55.664062 C 6.324219 -55.761719 6.132812 -55.90625 5.9375 -56.054688 Z M 5.9375 -56.054688 "/></g></g></g><g fill="#FFFFFF" fill-opacity="1"><g transform="translate(681.790359, 267.70034)"><g/></g></g><g fill="#FFFFFF" fill-opacity="1"><g transform="translate(706.264683, 267.70034)"><g><path d="M 43.109375 -62.867188 C 41.75 -56.199219 39.703125 -49.921875 36.929688 -43.742188 C 36.25 -42.234375 35.667969 -40.582031 34.691406 -39.167969 C 34.207031 -38.441406 33.621094 -37.710938 32.988281 -37.125 C 32.746094 -37.371094 32.550781 -37.613281 32.359375 -37.855469 C 31.433594 -39.363281 30.996094 -41.066406 30.65625 -42.769531 C 28.320312 -54.109375 28.074219 -66.273438 28.464844 -77.902344 C 35.570312 -88.3125 39.949219 -101.5 42.234375 -113.519531 C 42.964844 -117.558594 44.085938 -130.890625 40.679688 -134.878906 C 36.738281 -139.503906 30.023438 -136.386719 27.589844 -130.453125 C 24.765625 -123.445312 23.5 -115.269531 22.1875 -107.875 C 20.921875 -100.820312 20.046875 -93.714844 19.558594 -86.5625 C 18.148438 -87.242188 16.300781 -87.585938 15.082031 -87.585938 C 9.585938 -87.632812 6.375 -83.742188 4.039062 -79.265625 C -1.410156 -68.558594 -4.183594 -53.476562 -1.117188 -41.699219 C 0.144531 -36.882812 2.917969 -32.164062 8.371094 -32.015625 C 14.742188 -31.871094 16.496094 -37.125 18.148438 -42.234375 C 18.878906 -44.472656 19.558594 -46.761719 20.191406 -49.046875 C 20.582031 -44.085938 21.457031 -39.074219 24.085938 -35.472656 C 27.589844 -30.65625 35.714844 -30.214844 37.710938 -36.492188 C 40.433594 -45.105469 42.625 -53.914062 43.839844 -62.867188 C 43.890625 -63.109375 43.160156 -63.109375 43.109375 -62.867188 Z M 33.429688 -118.042969 C 34.109375 -121.160156 34.886719 -124.222656 35.761719 -127.289062 C 36.105469 -128.503906 36.445312 -129.769531 37.078125 -130.839844 C 37.808594 -132.058594 38.539062 -130.304688 38.539062 -130.304688 C 40.433594 -123.6875 39.898438 -117.605469 38.539062 -110.84375 C 37.078125 -103.980469 34.984375 -97.171875 32.210938 -90.699219 C 31.140625 -88.21875 29.925781 -85.882812 28.660156 -83.546875 C 29.292969 -95.175781 30.847656 -106.707031 33.429688 -118.042969 Z M 19.121094 -68.65625 C 18.734375 -64.8125 18.148438 -61.015625 17.371094 -57.222656 C 16.347656 -52.308594 14.890625 -47.539062 13.136719 -42.867188 C 12.40625 -41.066406 12.019531 -39.21875 10.316406 -37.5625 C 9.246094 -36.542969 8.515625 -36.492188 7.589844 -37.855469 C 7.007812 -38.683594 6.617188 -39.800781 6.375 -40.777344 C 4.574219 -47.976562 5.5 -58 7.203125 -65.929688 C 8.125 -70.164062 9.246094 -74.398438 11.238281 -78.289062 C 11.921875 -79.605469 13.769531 -81.988281 15.328125 -82.476562 C 16.691406 -82.863281 18.734375 -81.355469 19.171875 -78.921875 C 19.074219 -75.515625 19.074219 -72.109375 19.121094 -68.65625 Z M 19.121094 -68.65625 "/></g></g></g><g fill="#FFFFFF" fill-opacity="1"><g transform="translate(749.277212, 267.70034)"><g><path d="M 19.753906 -60.289062 C 24.035156 -67.488281 31.238281 -90.359375 16.25 -90.308594 C 2.96875 -90.261719 -2.382812 -71.722656 -2.96875 -61.261719 C -3.355469 -54.789062 -3.355469 -47.148438 -0.582031 -41.164062 C 2.285156 -35.035156 8.417969 -32.113281 14.988281 -32.601562 C 21.945312 -33.085938 27.882812 -39.511719 31.824219 -47.832031 C 34.9375 -54.300781 37.757812 -62.039062 38.976562 -67.246094 C 39.414062 -69.144531 36.929688 -69.289062 36.589844 -67.292969 C 35.667969 -62.183594 31.335938 -52.453125 30.023438 -50.265625 C 26.957031 -45.25 22.238281 -37.757812 15.960938 -38 C 8.757812 -38.292969 6.519531 -45.300781 6.035156 -52.40625 C 6.421875 -52.355469 6.8125 -52.257812 7.203125 -52.257812 C 12.894531 -51.773438 17.03125 -55.714844 19.753906 -60.289062 Z M 5.9375 -56.054688 C 5.9375 -59.996094 6.324219 -63.597656 6.519531 -65.6875 C 7.882812 -79.554688 14.453125 -88.070312 17.371094 -86.367188 C 19.707031 -85.054688 19.753906 -80.480469 19.707031 -78.242188 C 19.609375 -72.402344 17.808594 -66.5625 14.9375 -61.453125 C 13.429688 -58.828125 10.460938 -53.71875 6.570312 -55.664062 C 6.324219 -55.761719 6.132812 -55.90625 5.9375 -56.054688 Z M 5.9375 -56.054688 "/></g></g></g><g fill="#FFFFFF" fill-opacity="1"><g transform="translate(786.25631, 267.70034)"><g/></g></g><g fill="#FFFFFF" fill-opacity="1"><g transform="translate(810.730634, 267.70034)"><g><path d="M 75.859375 -59.65625 C 76.003906 -45.496094 76.148438 -30.558594 79.214844 -16.640625 C 80.433594 -11.191406 82.085938 -4.867188 86.5625 -1.117188 C 90.84375 2.433594 96.925781 2.726562 101.839844 0.488281 C 103.351562 -0.195312 103.203125 -1.460938 102.132812 -2.335938 C 100.820312 -3.40625 98.289062 -3.261719 96.78125 -2.773438 C 94.542969 -2.042969 92.109375 -6.667969 91.378906 -8.125 C 90.066406 -10.851562 89.191406 -13.820312 88.507812 -16.835938 C 87.242188 -22.429688 86.804688 -28.171875 86.320312 -33.914062 C 85.25 -46.859375 84.957031 -59.847656 85.199219 -72.839844 C 85.636719 -98.628906 88.023438 -124.320312 90.457031 -150.011719 C 90.796875 -153.46875 82.523438 -152.542969 81.308594 -150.449219 C 74.398438 -138.625 71.722656 -124.320312 67.976562 -111.230469 C 66.027344 -104.273438 64.035156 -97.363281 62.039062 -90.40625 C 61.308594 -87.875 60.628906 -85.25 59.753906 -82.671875 C 57.609375 -100.867188 61.84375 -119.648438 57.804688 -137.75 C 57.125 -140.960938 49.046875 -140.960938 48.65625 -137.554688 C 48.171875 -133.613281 47.832031 -123.785156 46.371094 -114.6875 C 45.15625 -106.949219 27.152344 -11.726562 13.722656 -15.082031 C 3.699219 -17.613281 7.589844 -52.648438 15.375 -68.851562 C 16.398438 -70.894531 20.046875 -78.921875 22.722656 -77.21875 C 25.203125 -75.613281 24.476562 -69.679688 24.28125 -67.34375 C 23.597656 -58.777344 20.921875 -51.042969 16.691406 -43.015625 C 15.472656 -40.628906 20.726562 -40.433594 22.625 -42.769531 C 26.324219 -49.046875 36.835938 -83.984375 19.074219 -80.722656 C 0.4375 -77.269531 -5.789062 -25.984375 6.277344 -14.9375 C 11.238281 -10.363281 20.339844 -12.066406 24.035156 -16.738281 C 29.4375 -23.5 32.164062 -32.261719 34.691406 -40.433594 C 37.757812 -50.3125 40.582031 -60.335938 43.015625 -70.359375 C 45.640625 -81.015625 47.929688 -91.769531 49.972656 -102.523438 C 50.554688 -105.539062 51.140625 -108.554688 51.722656 -111.523438 C 51.527344 -97.800781 49.777344 -84.324219 53.574219 -70.894531 C 54.351562 -68.167969 58.875 -68.65625 61.699219 -71.285156 C 64.570312 -74.007812 71.722656 -103.398438 78.921875 -125.34375 C 77.027344 -103.496094 75.613281 -81.597656 75.859375 -59.65625 Z M 75.859375 -59.65625 "/></g></g></g><g fill="#FFFFFF" fill-opacity="1"><g transform="translate(908.725273, 267.70034)"><g><path d="M 38.976562 -68.511719 C 38 -61.84375 36.347656 -55.421875 33.671875 -49.289062 C 32.40625 -46.371094 30.996094 -43.550781 29.195312 -40.921875 C 28.660156 -40.046875 28.027344 -39.21875 27.347656 -38.390625 C 27.152344 -39.023438 26.957031 -39.703125 26.90625 -40.386719 C 24.28125 -53.765625 25.496094 -67.78125 26.519531 -81.308594 C 26.664062 -83.449219 22.871094 -84.082031 20.097656 -83.351562 C 19.949219 -83.546875 19.851562 -83.691406 19.707031 -83.835938 C 16.300781 -87.585938 9.585938 -87.242188 5.839844 -84.226562 C 0.925781 -80.335938 -1.3125 -72.453125 -2.871094 -66.710938 C -4.671875 -59.996094 -5.5 -53.132812 -5.109375 -46.226562 C -4.816406 -40.96875 -4.183594 -33.964844 1.460938 -31.726562 C 7.882812 -29.242188 11.96875 -34.0625 14.355469 -39.363281 C 15.230469 -41.3125 16.007812 -43.355469 16.640625 -45.445312 C 17.128906 -40.144531 18.539062 -34.691406 23.308594 -33.378906 C 31.140625 -31.238281 33.71875 -38.441406 35.8125 -44.328125 C 38.585938 -52.0625 40.144531 -60.289062 41.117188 -68.414062 C 41.164062 -68.851562 39.023438 -68.996094 38.976562 -68.511719 Z M 12.457031 -55.957031 C 11.484375 -52.40625 10.460938 -48.851562 9.195312 -45.398438 C 8.660156 -43.988281 7.25 -39.851562 5.546875 -37.464844 C 4.964844 -39.023438 4.621094 -41.019531 4.523438 -41.796875 C 4.085938 -44.425781 3.988281 -47.148438 3.988281 -49.824219 C 3.988281 -55.8125 4.867188 -61.84375 6.617188 -67.585938 C 7.394531 -70.214844 8.371094 -72.792969 9.535156 -75.324219 C 10.070312 -76.539062 10.65625 -77.753906 11.289062 -78.875 C 11.679688 -79.554688 12.066406 -80.285156 12.554688 -81.015625 C 12.847656 -80.625 13.1875 -80.238281 13.429688 -79.847656 C 14.160156 -78.824219 14.695312 -77.65625 15.328125 -76.585938 C 15.667969 -75.957031 15.960938 -75.324219 16.203125 -74.691406 C 15.179688 -68.414062 14.207031 -62.085938 12.457031 -55.957031 Z M 12.457031 -55.957031 "/></g></g></g><g fill="#FFFFFF" fill-opacity="1"><g transform="translate(947.991204, 267.70034)"><g><path d="M 41.503906 -67.195312 C 38.683594 -59.800781 35.226562 -53.574219 31.140625 -47.246094 C 30.121094 -45.640625 29 -44.085938 27.832031 -42.574219 C 28.171875 -55.957031 28.269531 -69.335938 28.269531 -82.671875 C 28.269531 -85.445312 21.652344 -85.785156 19.707031 -83.742188 C 18.78125 -84.617188 17.613281 -85.347656 16.007812 -85.785156 C 11.824219 -86.953125 7.007812 -85.6875 4.039062 -82.425781 C 0.390625 -78.339844 -0.777344 -71.722656 -1.847656 -66.515625 C -3.066406 -60.09375 -3.453125 -53.523438 -2.871094 -47.003906 C -2.480469 -42.476562 -1.460938 -37.757812 3.503906 -36.347656 C 8.027344 -35.082031 12.261719 -36.929688 14.5 -40.921875 C 16.25 -44.035156 17.566406 -47.441406 18.683594 -50.894531 C 18.636719 -47.929688 18.585938 -44.960938 18.539062 -41.992188 C 18.441406 -38.539062 18.394531 -35.082031 18.34375 -31.578125 C 17.761719 -30.898438 17.175781 -30.214844 16.59375 -29.535156 C 12.019531 -24.230469 7.492188 -18.976562 3.550781 -13.234375 C -0.0976562 -7.929688 -3.601562 -1.800781 -3.355469 4.867188 C -3.210938 9.828125 -0.488281 14.890625 4.039062 17.273438 C 8.953125 19.851562 15.8125 17.566406 19.367188 13.671875 C 23.746094 8.855469 25.058594 1.65625 25.886719 -4.621094 C 26.859375 -12.261719 27.054688 -20.046875 27.394531 -27.734375 C 27.492188 -31.238281 27.589844 -34.742188 27.6875 -38.246094 C 37.613281 -51.382812 41.796875 -60.871094 43.160156 -66.757812 C 43.257812 -67.148438 41.652344 -67.488281 41.503906 -67.195312 Z M 16.980469 -65.25 C 16.25 -61.308594 12.75 -42.574219 7.007812 -40.191406 C 5.789062 -40.046875 5.109375 -44.523438 5.011719 -45.058594 C 3.894531 -52.355469 4.476562 -60.191406 5.984375 -67.390625 C 6.761719 -71.136719 7.738281 -75.46875 9.683594 -78.875 C 13.285156 -85.101562 16.980469 -78 17.808594 -73.960938 C 17.859375 -73.71875 18.050781 -73.472656 18.296875 -73.328125 C 17.566406 -70.699219 17.46875 -67.878906 16.980469 -65.25 Z M 16.203125 -1.558594 C 15.425781 2.773438 13.671875 12.359375 8.273438 13.574219 C 4.914062 14.304688 2.773438 10.070312 2.140625 7.347656 C 1.363281 4.085938 1.800781 0.582031 2.773438 -2.578125 C 5.644531 -11.773438 11.96875 -19.316406 18.246094 -26.664062 C 18.050781 -18.246094 17.566406 -9.78125 16.203125 -1.558594 Z M 16.203125 -1.558594 "/></g></g></g><g fill="#FFFFFF" fill-opacity="1"><g transform="translate(989.835972, 267.70034)"><g><path d="M -1.363281 -69.484375 C -1.507812 -64.519531 -1.703125 -59.558594 -1.847656 -54.644531 C -2.09375 -47.441406 -2.773438 -36.738281 3.699219 -31.773438 C 5.304688 -30.605469 7.152344 -29.972656 9 -29.972656 C 20.386719 -29.972656 24.378906 -52.113281 26.226562 -62.574219 C 26.371094 -63.644531 24.328125 -63.839844 24.183594 -62.816406 C 23.015625 -55.859375 18.101562 -34.15625 11.582031 -34.304688 C 9.050781 -34.351562 7.980469 -40.53125 7.6875 -42.332031 C 6.570312 -49.097656 7.296875 -56.152344 7.542969 -62.964844 C 7.640625 -66.417969 8.222656 -75.808594 8.078125 -79.3125 C 8.078125 -79.457031 8.078125 -79.652344 8.078125 -79.800781 C 10.167969 -79.945312 11.046875 -80.382812 10.996094 -81.503906 C 10.949219 -83.011719 7.640625 -83.691406 3.453125 -83.691406 C -0.730469 -83.691406 -4.136719 -83.496094 -4.136719 -81.503906 C -4.136719 -80.238281 -2.53125 -79.75 -0.828125 -79.703125 C -0.828125 -79.554688 -0.875 -79.359375 -0.875 -79.214844 C -0.875 -76.734375 -1.265625 -71.964844 -1.363281 -69.484375 Z M 11.679688 -91.867188 C 11.679688 -93.765625 8.757812 -95.417969 5.109375 -95.46875 C 1.460938 -95.515625 -1.558594 -94.007812 -1.558594 -92.0625 C -1.605469 -90.113281 1.3125 -88.507812 5.011719 -88.460938 C 8.660156 -88.410156 11.628906 -89.921875 11.679688 -91.867188 Z M 11.679688 -91.867188 "/></g></g></g><g fill="#FFFFFF" fill-opacity="1"><g transform="translate(1014.602269, 267.70034)"><g><path d="M 38.976562 -68.511719 C 38 -61.84375 36.347656 -55.421875 33.671875 -49.289062 C 32.40625 -46.371094 30.996094 -43.550781 29.195312 -40.921875 C 28.660156 -40.046875 28.027344 -39.21875 27.347656 -38.390625 C 27.152344 -39.023438 26.957031 -39.703125 26.90625 -40.386719 C 24.28125 -53.765625 25.496094 -67.78125 26.519531 -81.308594 C 26.664062 -83.449219 22.871094 -84.082031 20.097656 -83.351562 C 19.949219 -83.546875 19.851562 -83.691406 19.707031 -83.835938 C 16.300781 -87.585938 9.585938 -87.242188 5.839844 -84.226562 C 0.925781 -80.335938 -1.3125 -72.453125 -2.871094 -66.710938 C -4.671875 -59.996094 -5.5 -53.132812 -5.109375 -46.226562 C -4.816406 -40.96875 -4.183594 -33.964844 1.460938 -31.726562 C 7.882812 -29.242188 11.96875 -34.0625 14.355469 -39.363281 C 15.230469 -41.3125 16.007812 -43.355469 16.640625 -45.445312 C 17.128906 -40.144531 18.539062 -34.691406 23.308594 -33.378906 C 31.140625 -31.238281 33.71875 -38.441406 35.8125 -44.328125 C 38.585938 -52.0625 40.144531 -60.289062 41.117188 -68.414062 C 41.164062 -68.851562 39.023438 -68.996094 38.976562 -68.511719 Z M 12.457031 -55.957031 C 11.484375 -52.40625 10.460938 -48.851562 9.195312 -45.398438 C 8.660156 -43.988281 7.25 -39.851562 5.546875 -37.464844 C 4.964844 -39.023438 4.621094 -41.019531 4.523438 -41.796875 C 4.085938 -44.425781 3.988281 -47.148438 3.988281 -49.824219 C 3.988281 -55.8125 4.867188 -61.84375 6.617188 -67.585938 C 7.394531 -70.214844 8.371094 -72.792969 9.535156 -75.324219 C 10.070312 -76.539062 10.65625 -77.753906 11.289062 -78.875 C 11.679688 -79.554688 12.066406 -80.285156 12.554688 -81.015625 C 12.847656 -80.625 13.1875 -80.238281 13.429688 -79.847656 C 14.160156 -78.824219 14.695312 -77.65625 15.328125 -76.585938 C 15.667969 -75.957031 15.960938 -75.324219 16.203125 -74.691406 C 15.179688 -68.414062 14.207031 -62.085938 12.457031 -55.957031 Z M 12.457031 -55.957031 "/></g></g></g></svg>